<mxfile host="65bd71144e">
    <diagram id="06tXRbMYNHlX4ZGp8ef-" name="第 1 页">
        <mxGraphModel dx="1887" dy="1647" grid="1" gridSize="10" guides="1" tooltips="1" connect="1" arrows="1" fold="1" page="1" pageScale="1" pageWidth="827" pageHeight="1169" math="0" shadow="0">
            <root>
                <mxCell id="0"/>
                <mxCell id="1" parent="0"/>
                <mxCell id="3" style="edgeStyle=none;html=1;" parent="1" source="2" target="4" edge="1">
                    <mxGeometry relative="1" as="geometry">
                        <mxPoint x="180" y="110" as="targetPoint"/>
                    </mxGeometry>
                </mxCell>
                <mxCell id="2" value="render(h('div',{}, 'hello')， app)" style="rounded=1;whiteSpace=wrap;html=1;aspect=fixed;shadow=0;glass=0;sketch=0;" parent="1" vertex="1">
                    <mxGeometry x="60" width="240" height="60" as="geometry"/>
                </mxCell>
                <mxCell id="10" style="edgeStyle=none;html=1;exitX=1;exitY=1;exitDx=0;exitDy=0;entryX=0;entryY=0;entryDx=0;entryDy=0;" parent="1" source="4" target="14" edge="1">
                    <mxGeometry relative="1" as="geometry">
                        <mxPoint x="440" y="200" as="targetPoint"/>
                    </mxGeometry>
                </mxCell>
                <mxCell id="11" style="edgeStyle=none;html=1;exitX=1;exitY=0.5;exitDx=0;exitDy=0;" parent="1" source="4" target="12" edge="1">
                    <mxGeometry relative="1" as="geometry">
                        <mxPoint x="440" y="140" as="targetPoint"/>
                    </mxGeometry>
                </mxCell>
                <mxCell id="21" value="" style="edgeStyle=none;html=1;" parent="1" source="4" target="20" edge="1">
                    <mxGeometry relative="1" as="geometry"/>
                </mxCell>
                <mxCell id="4" value="首先执行h函数，通过h函数生成vnode，&lt;br&gt;h函数的参数有三种情况&lt;br&gt;2个参数、3个参数、&amp;gt;3给参数" style="rounded=1;whiteSpace=wrap;html=1;" parent="1" vertex="1">
                    <mxGeometry x="60" y="110" width="240" height="40" as="geometry"/>
                </mxCell>
                <mxCell id="7" value="" style="endArrow=classic;html=1;exitX=1;exitY=0;exitDx=0;exitDy=0;entryX=0.004;entryY=0.938;entryDx=0;entryDy=0;entryPerimeter=0;" parent="1" source="4" target="13" edge="1">
                    <mxGeometry width="50" height="50" relative="1" as="geometry">
                        <mxPoint x="400" y="120" as="sourcePoint"/>
                        <mxPoint x="440" y="80" as="targetPoint"/>
                    </mxGeometry>
                </mxCell>
                <mxCell id="12" value="三个参数写法：&lt;br&gt;&lt;div style=&quot;color: rgb(212 , 212 , 212) ; background-color: rgb(30 , 30 , 30) ; font-family: &amp;#34;consolas&amp;#34; , &amp;#34;courier new&amp;#34; , monospace ; font-size: 14px ; line-height: 19px&quot;&gt;&lt;span style=&quot;color: #6a9955&quot;&gt;h('h1', {style: {color: 'red'}}， '文本')&lt;/span&gt;&lt;/div&gt;&lt;div style=&quot;color: rgb(212 , 212 , 212) ; background-color: rgb(30 , 30 , 30) ; font-family: &amp;#34;consolas&amp;#34; , &amp;#34;courier new&amp;#34; , monospace ; font-size: 14px ; line-height: 19px&quot;&gt;&lt;div style=&quot;font-family: &amp;#34;consolas&amp;#34; , &amp;#34;courier new&amp;#34; , monospace ; line-height: 19px&quot;&gt;&lt;span style=&quot;color: #6a9955&quot;&gt;h('h1', {style: {color: 'red'}}， h('h2'))&lt;/span&gt;&lt;/div&gt;&lt;div style=&quot;font-family: &amp;#34;consolas&amp;#34; , &amp;#34;courier new&amp;#34; , monospace ; line-height: 19px&quot;&gt;&lt;div style=&quot;line-height: 19px&quot;&gt;&lt;span style=&quot;color: #6a9955&quot;&gt;h('h1', {style: {color: 'red'}}， [h('h2'), h('3')])&lt;/span&gt;&lt;/div&gt;&lt;/div&gt;&lt;/div&gt;" style="rounded=1;whiteSpace=wrap;html=1;" parent="1" vertex="1">
                    <mxGeometry x="440" y="90" width="480" height="80" as="geometry"/>
                </mxCell>
                <mxCell id="13" value="两个参数的写法：&lt;br&gt;&lt;div style=&quot;color: rgb(212 , 212 , 212) ; background-color: rgb(30 , 30 , 30) ; font-family: &amp;#34;consolas&amp;#34; , &amp;#34;courier new&amp;#34; , monospace ; font-size: 14px ; line-height: 19px&quot;&gt;&lt;span style=&quot;color: #6a9955&quot;&gt;h('h1', '文本')&lt;/span&gt;&lt;/div&gt;&lt;div style=&quot;color: rgb(212 , 212 , 212) ; background-color: rgb(30 , 30 , 30) ; font-family: &amp;#34;consolas&amp;#34; , &amp;#34;courier new&amp;#34; , monospace ; font-size: 14px ; line-height: 19px&quot;&gt;&lt;div style=&quot;line-height: 19px&quot;&gt;&lt;span style=&quot;color: #6a9955&quot;&gt;h('h1', {style: {color: 'red'}})&lt;/span&gt;&lt;/div&gt;&lt;div style=&quot;line-height: 19px&quot;&gt;&lt;div style=&quot;font-family: &amp;#34;consolas&amp;#34; , &amp;#34;courier new&amp;#34; , monospace ; line-height: 19px&quot;&gt;&lt;span style=&quot;color: #6a9955&quot;&gt;h('h1', h('h2'))&lt;/span&gt;&lt;/div&gt;&lt;div style=&quot;font-family: &amp;#34;consolas&amp;#34; , &amp;#34;courier new&amp;#34; , monospace ; line-height: 19px&quot;&gt;&lt;div style=&quot;font-family: &amp;#34;consolas&amp;#34; , &amp;#34;courier new&amp;#34; , monospace ; line-height: 19px&quot;&gt;&lt;span style=&quot;color: #6a9955&quot;&gt;h('h1', [h('h2'), h('3')])&lt;/span&gt;&lt;/div&gt;&lt;/div&gt;&lt;/div&gt;&lt;/div&gt;" style="rounded=1;whiteSpace=wrap;html=1;" parent="1" vertex="1">
                    <mxGeometry x="440" y="-82.5" width="480" height="120" as="geometry"/>
                </mxCell>
                <mxCell id="14" value="大于3个参数的写法：&lt;br&gt;&lt;span style=&quot;color: rgb(106 , 153 , 85) ; font-family: &amp;#34;consolas&amp;#34; , &amp;#34;courier new&amp;#34; , monospace ; font-size: 14px ; background-color: rgb(30 , 30 , 30)&quot;&gt;&amp;nbsp;h('h1', {style: {color: 'red'}}， '文本', '文本', h('h2'))&lt;/span&gt;" style="rounded=1;whiteSpace=wrap;html=1;" parent="1" vertex="1">
                    <mxGeometry x="440" y="200" width="480" height="80" as="geometry"/>
                </mxCell>
                <mxCell id="19" value="" style="edgeStyle=none;html=1;" parent="1" source="17" target="18" edge="1">
                    <mxGeometry relative="1" as="geometry"/>
                </mxCell>
                <mxCell id="17" value="h函数会根据参数的个数来调用createVnode（）方法来创建Vnode" style="rounded=1;whiteSpace=wrap;html=1;" parent="1" vertex="1">
                    <mxGeometry x="1000.01" y="120" width="310" height="80" as="geometry"/>
                </mxCell>
                <mxCell id="18" value="&lt;div style=&quot;color: rgb(212 , 212 , 212) ; background-color: rgb(30 , 30 , 30) ; font-family: &amp;#34;consolas&amp;#34; , &amp;#34;courier new&amp;#34; , monospace ; font-size: 14px ; line-height: 19px&quot;&gt;&lt;div style=&quot;font-family: &amp;#34;consolas&amp;#34; , &amp;#34;courier new&amp;#34; , monospace ; line-height: 19px&quot;&gt;&lt;div style=&quot;line-height: 19px&quot;&gt;&lt;div style=&quot;font-family: &amp;#34;consolas&amp;#34; , &amp;#34;courier new&amp;#34; , monospace ; line-height: 19px&quot;&gt;&lt;div&gt;&lt;span style=&quot;color: #569cd6&quot;&gt;const&lt;/span&gt; &lt;span style=&quot;color: #4fc1ff&quot;&gt;vnode&lt;/span&gt; = {&lt;/div&gt;&lt;div&gt;&amp;nbsp; &amp;nbsp; &amp;nbsp; &amp;nbsp; &lt;span style=&quot;color: #9cdcfe&quot;&gt;type&lt;/span&gt;, &lt;span style=&quot;color: #6a9955&quot;&gt;// 也就是标签名&lt;/span&gt;&lt;/div&gt;&lt;div&gt;&amp;nbsp; &amp;nbsp; &amp;nbsp; &lt;span style=&quot;color: #9cdcfe&quot;&gt;props&lt;/span&gt;, &lt;span style=&quot;color: #6a9955&quot;&gt;// 属性对象&lt;/span&gt;&lt;/div&gt;&lt;div&gt;&amp;nbsp; &amp;nbsp; &amp;nbsp; &amp;nbsp;&lt;span style=&quot;color: #9cdcfe&quot;&gt;children&lt;/span&gt;, &lt;span style=&quot;color: #6a9955&quot;&gt;// 子元素&lt;/span&gt;&lt;/div&gt;&lt;div&gt;&amp;nbsp; &amp;nbsp; &amp;nbsp;&lt;span style=&quot;color: #9cdcfe&quot;&gt;key&lt;/span&gt;&lt;span style=&quot;color: #9cdcfe&quot;&gt;:&lt;/span&gt; &lt;span style=&quot;color: #9cdcfe&quot;&gt;props&lt;/span&gt;?.&lt;span style=&quot;color: #9cdcfe&quot;&gt;key&lt;/span&gt;,&lt;/div&gt;&lt;div&gt;&amp;nbsp; &amp;nbsp; &amp;nbsp; &amp;nbsp;&lt;span style=&quot;color: #9cdcfe&quot;&gt;__v_isVnode&lt;/span&gt;&lt;span style=&quot;color: #9cdcfe&quot;&gt;:&lt;/span&gt; &lt;span style=&quot;color: #569cd6&quot;&gt;true&lt;/span&gt;,&lt;/div&gt;&lt;div&gt;&amp;nbsp; &amp;nbsp; &amp;nbsp; &amp;nbsp; &amp;nbsp; &amp;nbsp; &amp;nbsp;&lt;span style=&quot;color: #9cdcfe&quot;&gt;shapeFlag&lt;/span&gt;, &lt;span style=&quot;color: #6a9955&quot;&gt;// 定义节点类型&lt;/span&gt;&lt;/div&gt;&lt;div&gt;}&lt;/div&gt;&lt;/div&gt;&lt;/div&gt;&lt;/div&gt;&lt;/div&gt;" style="whiteSpace=wrap;html=1;rounded=1;" parent="1" vertex="1">
                    <mxGeometry x="964.38" y="-120" width="381.25" height="195" as="geometry"/>
                </mxCell>
                <mxCell id="23" value="" style="edgeStyle=none;html=1;" parent="1" source="20" target="22" edge="1">
                    <mxGeometry relative="1" as="geometry"/>
                </mxCell>
                <mxCell id="20" value="通过h函数创建完Vnode后传给 render() 函数&lt;br&gt;&lt;div style=&quot;color: rgb(212 , 212 , 212) ; background-color: rgb(30 , 30 , 30) ; font-family: &amp;#34;consolas&amp;#34; , &amp;#34;courier new&amp;#34; , monospace ; font-size: 14px ; line-height: 19px&quot;&gt;&lt;div&gt;&lt;span style=&quot;color: #c586c0&quot;&gt;export&lt;/span&gt; &lt;span style=&quot;color: #569cd6&quot;&gt;function&lt;/span&gt; &lt;span style=&quot;color: #dcdcaa&quot;&gt;render&lt;/span&gt;(&lt;span style=&quot;color: #9cdcfe&quot;&gt;vnode&lt;/span&gt;, &lt;span style=&quot;color: #9cdcfe&quot;&gt;container&lt;/span&gt;) {&lt;/div&gt;&lt;div&gt;&amp;nbsp; &amp;nbsp; &lt;span style=&quot;color: #6a9955&quot;&gt;// 在创建渲染器的时候 &amp;nbsp;传入选项&lt;/span&gt;&lt;/div&gt;&lt;div&gt;&amp;nbsp; &amp;nbsp; &lt;span style=&quot;color: #dcdcaa&quot;&gt;createRenderer&lt;/span&gt;(&lt;span style=&quot;color: #4fc1ff&quot;&gt;renderOptions&lt;/span&gt;).&lt;span style=&quot;color: #dcdcaa&quot;&gt;render&lt;/span&gt;(&lt;span style=&quot;color: #9cdcfe&quot;&gt;vnode&lt;/span&gt;, &lt;span style=&quot;color: #9cdcfe&quot;&gt;container&lt;/span&gt;)&lt;/div&gt;&lt;div&gt;}&lt;/div&gt;&lt;/div&gt;" style="whiteSpace=wrap;html=1;rounded=1;" parent="1" vertex="1">
                    <mxGeometry x="-40" y="200" width="440" height="160" as="geometry"/>
                </mxCell>
                <mxCell id="25" value="" style="edgeStyle=none;html=1;entryX=0;entryY=0.5;entryDx=0;entryDy=0;" parent="1" source="22" target="28" edge="1">
                    <mxGeometry relative="1" as="geometry">
                        <mxPoint x="440" y="452" as="targetPoint"/>
                    </mxGeometry>
                </mxCell>
                <mxCell id="30" value="" style="edgeStyle=none;html=1;" edge="1" parent="1" source="22" target="29">
                    <mxGeometry relative="1" as="geometry"/>
                </mxCell>
                <mxCell id="22" value="render函数里面回去调用createRendere（renderOption）方法&lt;br&gt;renderOption：表示通过什么方式渲染元素&lt;br&gt;&lt;br&gt;createRendere里面有个render（）方法&lt;br&gt;render（）方法会去调用patch（）方法&lt;br&gt;而这个patch（）方法则是渲染元素的核心所在" style="whiteSpace=wrap;html=1;rounded=1;" parent="1" vertex="1">
                    <mxGeometry x="-40" y="400" width="440" height="120" as="geometry"/>
                </mxCell>
                <mxCell id="28" value="" style="shape=image;verticalLabelPosition=bottom;labelBackgroundColor=#ffffff;verticalAlign=top;aspect=fixed;imageAspect=0;image=data:image/png,iVBORw0KGgoAAAANSUhEUgAABEIAAAH6CAYAAAADY+nGAAAAAXNSR0IArs4c6QAAIABJREFUeF7s3Qd8FGX+BvBn0zuBQAghlNCbFMGCBexdTwTxPCtYQZTeewi9d1FAFDn7YfnbsCGogIKC0nsnhJaQTtr/8767s5ndne2bzW7yzN0pZKe8853Zvcyzv/d9dW9/8nUpAMh/yD8Y/6T8ROPH+nVM1rS6nfb+yg5n5XXV/qztodTKMc3PwXJ7s5/Y/quFid39WeAYaE3FTHxtvWS6ouXfSh3Z2PZlsHcI5eZwcD3bq1m7bB7ZOXdCAQpQgAIUoAAFKEABCviVgE7nqeZ6YEcO7EIHB1aydko2NtXcr+b6pj+0WMUM1PJ188Y5tz9la52VC2eyN2vr2Lno1vYN1XZlx1H9yZqvYTvlZd0qQxCikXZYDUBMnvM9GYD4aPhhN/iwCFKshTvOv8HthhwOBRwOrWS1cQwunL9u3IICFKAABShAAQpQgAIUqBgB94MVB4IOO6u4FJZY2afFvuwkG7aCCF8LRawGHoZbx14gYi3C0bwH1CGKMQjReNot+1HZg7S9KhCrVRqGE9F83UMBiOnjfjlWfdgLPpzMHayGHXb3Y3cFawU+Xv1EshvmeLU1PBgFKEABClCAAhSgAAUo4MsCLoUIHj4hx8IUu2mIZqucPj+zw9gORpyr7nAmGHGn0sPeti4FIprVIYJcfzRbYYhu1cdfWTxNm2YiGiGIZmjiQheY8g5AnOjy4kzVh8WDvf08As6HHfY8PfxON9udR8ILB1ycOwuP79C5w3NtClCAAhSgAAUoQAEKUMCGgAOVFM74eWB3TocOzrTP2sO2yT6slnm4HpLYCkbKrVpEqyOKdQBXu824E4g4Ux1iEYR4ugrE3jgeWo+29rYRd4zV6g9b4YdZgGMz/HCj6kMzRLD6DK/9grvdUVwOMjySNXhkJ/KDwV0HJz/HuDoFKEABClCAAhSgAAUo4AEBxyoqHD2QRxIRRw9mFmO4d2zrDo4HJDbDnHKqFrGdp7gfihj34MIYIpphiZPVISZBiM0QxMNVIOUZgNjqvuNo9xlnqj7sr+u5sMOhgMOlHMKljUw+JDwXWrjfFpc+5bgRBShAAQpQgAIUoAAFKFAOAu6FCUqDPBOuuNAWBzZxpfLE4ZDEXtihvmIuVotYBh/Wwg7tg9nr+iK20gowbAUinq4OUXvLIESrK4w7Y4HYGgfEowGIamcVGn5Ydi5yOSCwGXQ4lA84tJKxfZ4JL5w7Zjl8snKXFKAABShAAQpQgAIUoECVEXAgmbBj4Xyo4sAxbaziTFBi2TaLdMN4di5Xi9go+XA+FCnfChFbgYjj1SGqNuoA3VsfKWOEuD8WiLMDodrrAuNI9xdrAYhLlR82nudtV32o7BzMBDw9Zoh4JzgeajjYyHL+IHW8veXcEO6eAhSgAAUoQAEKUIACFPC6gPNhRHk10YGQw6HxQET7HO/yol/blWOrtnGxWsTkuI6GIta6n5iWg6hCGsMfHez+Yq+qxNVAxPT09H8zBCH6B2ObVRV2nlotQg0bA6E6F5gYWuVA9YdjwYlZCGAlE/BE8OFc2OFq95nyDzXcDyw800b321FeH5zcLwUoQAEKUIACFKAABSjguWDDsXDAmrjn2mHrmtpuo8PdXmxmJ9aPYbp/F4IRh7vQ2K/20M5B7G+n6JoHHLYCEae7y2iGNzoRhHwpn1KNj6pOjAWyfevv2LNzB44fO4zMSxdRUlLCdz8FKEABClCAAhSgAAUoQAEKUIACFPCoQEBAAKpVr4H6DRqhZZt2aN/pWs392+ouo4QsupWGIESrX4W1risiAPn2y7W4dOG8R0+MO6MABShAAQpQgAIUoAAFKEABClCAAvYEqsfVxN33d3MtEJFBiBNVIF+u/Qgbf1pnr018nQIUoAAFKEABClCAAhSgAAUoQAEKlKvAzbfehfu7Pap5DGvVIbqVH/6f2dAg1sdzYAhSrtePO6cABShAAQpQgAIUoAAFKEABClDASQFbYYjYlcU4JOogxFpXGPHzHdv+wPvvvOlkc7g6BShAAQpQgAIUoAAFKEABClCAAhQoX4F/P/0C2nW8xiL0UI6qDkNkRYjVaWzllKz6CpEZKaM4Jkj5XjfunQIUoAAFKEABClCAAhSgAAUoQAEXBMSYIcPGTZFb2ptqV7figy80+8Kow5Ed237H++8sd6Ep3IQCFKAABShAAQpQgAIUoAAFKEABCpS/wL+ffh7tOpbNJmMtENEMQswrRN5/+03s+POP8m81j0ABClCAAhSgAAUoQAEKUIACFKAABVwQaHf1Nfj3My+YbKkVhpgEIZpdZEpLMWPSaHaLceEicBMKUIACFKAABShAAQpQgAIUoAAFvCMgu8eMnSz6xlgc0GSMEKVrjEUIYhgbRPSbGTOoD0pKSrzTch6FAhSgAAUoQAEKUIACFKAABShAAQo4KRAQEIDUOUthjEHMAhElDJEVIbZCEHHcUQNecvLwXJ0CFKAABShAAQpQgAIUoAAFKEABCnhXYMq8ZfKAtsIQ3fL3Py8bLFVVBaJuKoMQ7144Ho0CFKAABShAAQpQgAIUoAAFKEAB5wWUIETZUisQKQtCrIQgolpk9MCXnT86t6AABShAAQpQgAIUoAAFKEABClCAAl4UmDz3dYvpc83DEH0QYiMEEe1lEOLFq8ZDUYACFKAABShAAQpQgAIUoAAFKOCSgAhCxGI+W4w6DNEtf+8z2TWmrH8MYD5mCIMQl/y5EQUoQAEKUIACFKAABShAAQpQgAJeFFCCEOWQJrPFGH6oe9MQhCgraQ2cOnpQHy82m4eiAAUoQAEKUIACFKAABShAAQpQgALOC0yes9Ri+lyL6hB1EKIVgijT5zp/eG5BAQpQgAIUoAAFKEABClCAAhSgAAW8J2CcPtfK1LmiJcaKEJMQxGzMkDGsCPHeVeORKEABClCAAhSgAAUoQAEKUIACFHBJQAQhMuxQtlYFIkpliO6N/36qHh5EDBAiV1fNqYsxg/q61ABuRAEKUIACFKAABShAAQpQgAIUoAAFvCWQOmeJMQbRCkNkSGIShJiEIIYopBQYM5hBiLcuGo9DAQpQgAIUoAAFKEABClCAAhSggGsCqbOXqMtBtCtDjEFIaalJFYg8pCELYRDi2gXgVhSgAAUoQAEKUIACFKAABShAAQp4T0AGIWIpKwcp+6uhm4y+IsRKCKJ0jxnLihDvXTUeiQIUoAAFKEABClCAAhSgAAUoQAGXBCYZghCZg1gJQ3RvrFlr6BAj1irrDmMcI6S0FGOHvOJSA7gRBShAAQpQgAIUoAAFKEABClCAAhTwlsCkWYuN0+daC0N0y9astUg/1CGI+PM4BiHeumY8DgUoQAEKUIACFKAABShAAQpQgAIuCqTMWqwvBFG6wSj7UaUihiCkVF0Mol9N1V2GQYiLV4CbUYACFKAABShAAQpQgAIUoAAFKOA1ARGEyBzERhiiW7bmf8ZRUs0rQQyJCMYN6ee1RvNAFKAABShAAQpQgAIUoAAFKEABClDAFYGUWYtMp8/VqAzRLXv3fzL/0P9DH4UYAxHxp1Jg3FAGIa5cAG5DAQpQgAIUoAAFKEABClCAAhSggPcEUmYuUspB5EHLxkvVGf8sgxBbIYjYkEGI9y4aj0QBClCAAhSgAAUoQAEKUIACFKCAawIyCDEmIPoYxDwM0b0uKkKsVIKIDUS/mfFDX3WtBdyKAhSgAAUoQAEKUIACFKAABShAAQp4SWDizIUw1n6oB0hVjq/TQff66k/KusbIF/TdYdQDh4wfxiDES9eMh6EABShAAQpQgAIUoAAFKEABClDARYGJMxYaS0BkIKIRhsggxHxMEPPRUxmEuHgFuBkFKEABClCAAhSgAAUoQAEKUIACXhOQQYhYDP1htMIQ3VJDRYhWJYjSUl8NQoJ0OrSLCEfD0BBUDwqUg7xmFBXjaMEV7MjNQ5Eq4vGauupAQYFAu4aBaBgfgNhI/QsZOcDR9BLsOFqMouKKaJXqmIGArlEQdAmBQJThLskuRWlaMUoPFwEV3b4K5uHhKUABClCAAhSgAAUoQAEKUMC/BIxBiK0wRB+E6P8rFlkNUlYiIv8+YdhrPnXmHSMj8HR8DVwfFYHCgABEhAQjMjhItjGnsAi5VwoRXFKCTdm5WJ1+Edtycr3a/o6NA/HkLcG4vlkgCot1iAwPRGSYPmjIyS9FTl4xggNLsXl/Md5dX4hth7ybOOiaBiHwznDoWgYhoDgQAeFB8n9iKckr0v8vsBile4pQ/F0eSg8UedWPB6MABShAAQpQgAIUoAAFKEABCrgiMGHGgrIxQgxhiPmYIbqlqz82ZB/GJMR4LCUUmTDcN4KQmkFBGFMvAR2jIpAYG4PI8DAEBARo2pSUlCAnLx+nMy5jW3YuJp1Iw4Wi8n2gj4vWYUzPUHRsFIjEWiGIighCQIBxfFqTdpaUlCI7twinz13BtsPFmPxhAc5nqRIoV664vW1iAhD0ZCQCmgYjND4KQZFh0FlpX2lJKQpz8nElPRslBwpR9G4OcLnE3hH4OgUoQAEKUIACFKAABShAAQpQoMIEJkxfILvFlE2Wa9lNRrf0nY8Ng6VaVoLoK0NKMWF4/wo7CeXAogpkdsO6qFMtCtVjop1qz6XLWTidmY0hR0+VW3WIqAKZ+WwYEmsGo0a1EKfadzHzCk6fL8TQVfnlVh0iqkCCXopGSHwkQpV+Og62siAjB1fSc1C0LIvVIQ6acTUKUIACFKAABShAAQpQgAIU8L7AhOnz9cmHRhiihCO6Je98pC9DMOsOo4Qg4qWKDkJECLKkURJq14hFRHiYS5K5efk4ezEDfQ+f9HgYIkKQRS+GIaFmKCINXUycbWROXhHSzheg3xueD0NkCPJaNMJrVUNQRKizTZPrF+UWIO9cJooWMAxxCZAbUYACFKAABShAAQpQgAIUoEC5C+iDELFohyHyFRmE2AhBxHijE0dUXEWI6A7zUfNkJNes7nIIokiLMOTI+Uvose+Ix7rJiO4wHw2LQHKi6yGI0j4Rhhw5XYBHZ+Tigqe6ycQEIHhcNYQnuR6CKO2TYcjJTBSmZLKbTLm/fXkAClCAAhSgAAUoQAEKUIACFHBWYPy0+dAZR6iwUhmy5G1DRYjJQKmGIhFDQFKRQci85CTcW6eW091hrGGJbjJfnzmHAUdOOuupuf7c58Jwb6cwp7vDWDu46Cbz9dZ8DFyR75H2BfWNRuj11ZzuDmPt4KKbTMHmTBQtyfJI+7gTClCAAhSgAAUoQAEKUIACFKCApwREECIWW2GITglCymaLMQ1BxM9TRgzwVJuc2o/oEjOvURKa101wajt7K+87lYYBHugiI7rEzO0dhhbJhrlx7R3Ywdf3HsnBwJXud5ERXWKC+8YgqnEtB4/s2GrZh86hcMlljhfiGBfXogAFKEABClCAAhSgAAUoQAEvCYybNs84UKq1MEQGIbZCENHWigpCRDXIg0kJiI6M8ChZVk4uvjiZ5nZViKgGefC6cMREBXu0fZezC/HFljy3q0JENUjYjdUREh3u0fZdycpD/q+XWBXiUVXujAIUoAAFKEABClCAAhSgAAXcFRBBiFiMA6NqdJPRLX77Q9UYIaUQY4KIxfjDUiBlpPcrQoJ0Ovzapika1Im3OkWuq0Biat1jZ9Jx484DKFJO2MmdBQUCG6dEIrluhNUpcp3cpXF1MbXukVO5uHlUDoqKXdxLIBA8rzqi6tWyOkWui3uGmFo3+8Q5FA64BLjaPlcPzu0oQAEKUIACFKAABShAAQpQgAJWBMZNnSfHSbUMQ4w/hG7xqg/Log8rg6amjBzodWTRLWZ+k/poVie+XI69/0w6+h887vIMMrJbzHPhaNHQs9UqysnuPZqLgSvyXJ5OV3SLCXklFpGN4srFL+fwBVxZnMHuMeWiy51SgAIUoAAFKEABClCAAhSggCsC46bO1ZwxRt9NRh+GGIKQskoQ8UN1VxlRMDFplPeDkO41YjG6cT0kxVV35dztbnPywiVMPnQCn1zMsLuu1gqPdA7G6J4RqFfbtelo7R30xNkCTP4wF//bVGhvVc3XA24OReiT1RFep5pL29vbKO9MJgrevYSSjQX2VuXrFKAABShAAQpQgAIUoAAFKEABrwiMnTLXMFCq5YwxShiiW7zqg1J17xDzEES0tCKCkOfi4zCsSX2PzRZjLi5mj5lx8DhWpF9w6WI8d0cwhnaP9NhsMeaNELPHzPwkByu+dzEIuTcM4Y/X9NhsMebtE7PH5L13HiVfe2Z2G5cuAjeiAAUoQAEKUIACFKAABShAAQqoBEQQIhZjBYjMQ4wDhcif6xa99YGxQ4z2oKmlmDRqkNdhn4+Pw9ByDkJmHjyO5QxCXLq2DEJcYuNGFKAABShAAQpQgAIUoAAFKFCOAmOnzNEPlaoxSKpyWGMQYi0EEStWRBDi611juncOxqhy7hoz5cNcfMKuMeX4FuGuKUABClCAAhSgAAUoQAEKUKAyCeiDELFYD0NkEGIrBBHdZlJHe78ihIOlcrDUyvRm5LlQgAIUoAAFKEABClCAAhSgQPkLjJk8x6QaRKsyRLfwrfc1ps8tmz6mooIQTp/L6XPL/y3CI1CAAhSgAAUoQAEKUIACFKBAZRIwDULUlSGq6XMXrnzfbPpc0xBEzCGTOnpwhbjMT07CA0kJiI707BS1WTm5+L+Taeh/5KRb5zX3uTA8eF04YqKC3dqP+caXswvxxZY8DFzh3kCkQX2jEX5jdQRHh3u0fYVZecj79RKKlmR5dL/cGQUoQAEKUIACFKAABShAAQpQwB2BMZNnm3WLsQxDdPogRJk+1zIEERUhk8dUTBAiusfMa5SE5nUT3HGw2HbfqTQMOHwS23Jy3dpvx8aBmNs7DC2SI93aj/nGe4/kYODKfGw7VOzWfnXNghDcJwZRjWu5tR/zjbMPnUPh0sso3V/k0f1yZxSgAAUoQAEKUIACFKAABShAAXcERqfONs4YU9YtxjQM0S1c+Z5h+lztEESEJJPHDHGnHW5tK6pC7qlTy2PT6Ippc785c87tahDlpERVyL2dwjw2ja6YNvfrrfluV4Mo7RNVIaHXV/PYNLpitpiCzZmsBnHrrubGFKAABShAAQpQgAIUoAAFKFAeAqNTZ6kqQtQDppaFIboFK94zdo0RPxYVIGUVIvo/V2QQUjMoCB83T0bDmtURER7mllNuXj6Onr+EHvuO4HyRZ6oZakbr8OGwCCQnhiIyPMit9uXkFeHI6QL0nJGL81llwZRbO40JQPC4aghPqoagiFC3dlWUW4C8k5koTMkELpe4tS9uTAEKUIACFKAABShAAQpQgAIU8LSAEoTI2EMOC2I2e4z4iT4I0T90a4Ug4ucVGYSI43eKjMDiRkmoXSPW5TBEhCBnL2agrwe6xJhfKNFFZtGLYUio6XoYIkKQtPMF6PeG+11izNsnusgEvRqN8FquhyEyBDmXiaIFWSg94JkQydM3PPdHAQpQgAIUoAAFKEABClCAAlVbQB+E6AMQa2GIbsGK/+prQAyVIFp/njK24rrGKJdQhCGzGtZFnWpRTneTEd1hzmRmY/DRU26PC2LtlhJhyMxnw5BYM9jpbjKiO8zp84UYusrzIYjSXhmGvBiNkPhIp7vJiO4wV9JzULSMIUjV/kjh2VOAAhSgAAUoQAEKUIACFPBtgVGTZlmdPlcZM0QGIfoQREYgmoHIlLFDfeJMRTeZsfUScHVUBBJjYxAZHoaAgADNtpWUlCAnLx+nMy5jW3YuUk+keaw7jDUM0U1mdM9QdGwUiMRaIYiKCEJAgGGKHrONSkpKkZ1bhNPnrmDb4WJM/rDAc91hrDUwJgBBT0YioGkwQuOjEBQZBp2V9pWWlKIwJx9X0rNRcqAQRe/msDuMT7wL2AgKUIACFKAABShAAQpQgAIUsCYwatJMi+4wShcZsY34syoI0QpB9OGIrwQhyomK2WSejq+B66MiUBgQgIiQYEQG68fnyCksQu6VQgSXlGBTdi5Wp18styoQa/CiOuTJW4JxfbNAFBbrEBkeiMgwfSCSk1+KnLxiBAeWYvP+Yry7vtDt2WGcfQuI6pDAO8KhaxmEgOJABIQHyf+JpSSvSP+/wGKU7ilC8Xd57ArjLDDXpwAFKEABClCAAhSgAAUoQIEKEVCCECX00DdCGSdE/2/d/OWia4z16XPF8CFTxvlGRYi5YpBOh3YR4WgYGoLqQYFypJOMomIcLbiCHbl5KCordamQCxAUCLRrGIiG8QGINcywm5EDHE0vwY6jxShyb3Zc988pENA1CoIuIRCIMlSuZJeiNK0YpYeLgIpun/tnyD1QgAIUoAAFKEABClCAAhSgQBUSGJUy0zA8iPaMMTIUmb98jdXpc0WyUIpSTB03rAqx8VQpQAEKUIACFKAABShAAQpQgAIU8EeBkSkzRNRhMwyxCEKMg6YaQhBx4gxC/PHys80UoAAFKEABClCAAhSgAAUoQIGqJSCCELFohyGGrjHz3lxjMX2uUgmicDEIqVo3Ds+WAhSgAAUoQAEKUIACFKAABSjgjwJKEGIzDJn35rsW0+eaBCGlpZg6frg/nj/bTAEKUIACFKAABShAAQpQgAIUoEAVEhg5cbp+ahiTqhDD3wxDY+osghBVlxgxl65ISaYxCKlCtw1PlQIUoAAFKEABClCAAhSgAAUo4J8CIyZOFyOEaIQhZYOnyiBEa1wQJQQR2zMI8c8bgK2mAAUoQAEKUIACFKAABShAAQpUJQERhMgcxEYYopv7hugao/xX9pKBCEHkvwxaDEKq0m3Dc6UABShAAQpQgAIUoAAFKEABCvingEkQYi0MmfvGan3/Fxl8lAUhSggiykWmTxjhnwJsNQUoQAEKUIACFKAABShAAQpQgAJVRmD4hGnQGccIMesiI4MRQKcEIdZCELEeg5Aqc8/wRClAAQpQgAIUoAAFKEABClCAAn4rIIIQmXdYC0NkELJstWFIVH2XGHUliNxaVIRMHOm3CGw4BShAAQpQgAIUoAAFKEABClCAAlVDYPj4qWUDpVoJQ3Rzlr1jGBDEdFwQwwiqDEKqxr3Cs6QABShAAQpQgAIUoAAFKEABCvi9gNUgRJyZEoyogxCtahDxsxmsCPH7m4EnQAEKUIACFKAABShAAQpQgAIUqOwCw8ZPNZ0xRqsqRAYhVrrEKDUiMyaOquxWPD8KUIACFKAABShAAQpQgAIUoAAF/Fxg2PgpckRUk+lzzcIQfdcYBiF+fqnZfApQgAIUoAAFKEABClCAAhSgAAUcC0Jef7vUWpcYMaGu+O+MFFaE8HaiAAUoQAEKUIACFKAABShAAQpQwLcFho2bIqfItVUVoptjCEKMg6OK9Y0VIgxCfPsSs3UUoAAFKEABClCAAhSgAAUoQAEKKALWghAZjej0XWZ0s19/WxaEqGeJMc4fo89BMJMVIbyrKEABClCAAhSgAAUoQAEKUIACFPBxgaHjpigFIdarQkQQYisEEdUhMyeN9vFTZfMoQAEKUIACFKAABShAAQpQgAIUqOoCQ8dOltPkGnrHaIYhsiKEQUhVv1V4/hSgAAUoQAEKUIACFKAABShAAf8XcCgImbV0laEnTKnsBqMMkGroLyN/NosVIf5/N/AMKEABClCAAhSgAAUoQAEKUIAClVxgyNjJxqlzrVaFmAYh+kFB1CGI+NusSWMqORVPjwIUoAAFKEABClCAAhSgAAUoQAF/FxgyNtWkO4wShsjOMjr5N+hkEGI2SwyDEH+/9Gw/BShAAQpQgAIUoAAFKEABClCg6glYC0LU0+nqZi15q9RalxilPGRWKitCqt7twzOmAAUoQAEKUIACFKAABShAAQr4l8CQMaki89CsClHCEM0gRD94alk3mdkMQvzryrO1FKAABShAAQpQgAIUoAAFKECBKigweEyq6YwxGjPI6GYuecuYeJh3iVHGC2EQUgXvHp4yBShAAQpQgAIUoAAFKEABClDAzwQsghDRfvMwxCQIsTJWyOzJY/3s1NlcClCAAhSgAAUoQAEKUIACFKAABaqawODRkyyDD5mFiMFSZSoC3cwlK+W8uebVIPreMfrRQxiEVLVbh+dLAQpQgAIUoAAFKEABClCAAhTwPwEZhMi8Q2eYJEbOF2MSjpQFIVaqQRiE+N+FZ4spQAEKUIACFKAABShAAQpQgAJVUcAkCJEBiP4f4l9KVYhu5uKV+roPVRCirgYR5SJzJo+rin48ZwpQgAIUoAAFKEABClCAAhSgAAX8SGDQ6BRD7GG9KkQfhNioBmEQ4kdXnE2lAAUoQAEKUIACFKAABShAAQpUYQGLIERYmFWF6GYsFmOEyGFCyqbMNYwNogweMmcKK0Kq8H3EU6cABShAAQpQgAIUoAAFKEABCviFwKBRKTL4MIwMYjpIqgxFdJBBiKgIkcOlqgZN1cci4gelmDNlvF+cMBtJAQpQgAIUoAAFKEABClCAAhSgQNUVGDRqomFgVFkGYjmDjAxCFq0w1n/ocw+lNsSYijAIqbr3EM+cAhSgAAUoQAEKUIACFKAABSjgNwIyCNGXhFitCtFNX7TCWAqiDJoqzlDpFiOCkblTWRHiN1edDaUABShAAQpQgAIUoAAFKEABClRRgYEjJ5bNDqMfHMSyKkQrCFFCEBmHlIJBSBW9gXjaFKAABShAAQpQgAIUoAAFKEABfxLQByEy/SirChHdYQw/knUi0xctV+Uept1ilG4yrAjxp8vOtlKAAhSgAAUoQAEKUIACFKAABaqmgAhCZOYh0hBV9xg5SKqSj5gHIebVIGI9BiFV8wbiWVOAAhSgAAUoQAEKUIACFKAABfxJoCwIUVIPw1ghJkHIwuX64VHNBklVD5o6b+oEfzpvtpUCFKAABShAAQpQgAIUoAAFKECBKigwYOQEi0FSlal0laoQ3XRVEKJVDSJ+xiCkCt49PGUKUIACFKD3Nk7FAAAgAElEQVQABShAAQpQgAIUoICfCZgGIaLxlmOF6KYtFGOEWE6ZK36kBCPzprEixM+uPZtLAQpQgAIUoAAFKEABClCAAhSocgIDRkwwjg1iMWiqzEV0MAYh1qpBUAowCKly9w5PmAIUoAAFKEABClCAAhSgAAUo4HcC6iDEkHtYVoVMW/CmfogQkXgof1JVg4gfzpumH3WVCwUoQAEKUIACFKAABShAAQpQgAIU8FWBASPGmwQfWlUhOmMQIrvHGHvJGIMRMWjq/OkMQnz1IrNdFKAABShAAQpQgAIUoAAFKEABCugF+g8fbzF1rhKGyCl1RUwighBb1SAiH2EQwluKAhSgAAUoQAEKUIACFKAABShAAV8X0AchMu6wOlaIKgixrAbRV4iIipAUXz9Xto8CFKAABShAAQpQgAIUoAAFKECBKi7Qf/g4fUWIerYY/Rip+oFSxX9kRYhmtxglGGEQUsXvI54+BShAAQpQgAIUoAAFKEABClDALwREECJCEHXwIRqu7h6jm7rgDdkzRhkfxHL2GAYhfnG12UgKUIACFKAABShAAQpQgAIUoEAVFzAJQqx1j1GCEH1ViPnsMfqfsWtMFb+TePoUoAAFKEABClCAAhSgAAUoQAE/ENAHIaICRKt7jGHckKnz39BPlqvPPAyzxZR1i2EQ4gdXmk2kAAUoQAEKUIACFKAABShAAQpQAEoQYrN7jDoI0eoWIwKSBTM4WCrvJwpQgAIUoAAFKEABClCAAhSgAAV8W+C1YWKwVNFGwzghGt1jdNaDEENXGQYhvn2V2ToKUIACFKAABShAAQpQgAIUoAAFpEBZEGLZPcYYkEydv0wZHsTQLQZyylzRSUYsrAjh3UQBClCAAhSgAAUoUF4CgYGBaNmyJUJDQ5GVlYX9+/eX16G4XwpQgAIUqAIC6iBEXxViGBdEVIYYZo/RmQQhJtPolo0TsmDGpCrAxVOkAAUoQAEKUIACFPCGgAg/Xnr5Jdx2262Ijo42DGgHHDx4EH37vOKNJvAYFKAABShQSQVeGzbWpFuMetpciyDE2vggojKEQYj/3CGBgTqEhgQiN6/IfxrtRy2Nqt8U7YbMRXBUNWQe+Ad/Te3rR62vHE2NiYnBlKmT0axZM/y57U+MHj0GxcXFlePkPHAWLZ8fg9o33I2SKwXY+9Y0pG/53gN75S68LqALQEBgIEqKCr1+aHHAkJgaaD98ASLqNEBhdiZ2zBqI7OMHKqQtvnDQHj26o1fvXigoKMDcOXOxceMvvtAsv27DSy+9iIe7PQwRiKgXBiF+fVnZeApQgAI+IWAtCNEPFaIfN0Q3Zd4y2QdGCULMu8WIvy+cyYoQn7iiNhoRER6Elx5vgQdur4evfjqB2ct3+nqT/bJ9DEIq/rI92+tZPPZYT+Tm5mLWzNnYtGlTxTfKh1rAIMSHLoYLTREha/37nkD8dXfg0IdLKizICo2tiXbDFiAioR6DEADqAHbnzp0YOmQYA1gX7m9lE+E5e85sNGhQH0VFRfjhhx/x7urVOHs23Y29clMKUIACFKCAXuDVoWNlpaG+EkQsGt1jTIMQ02lzRQgiesswCPH9W+qJfzXGgN5tEBIcgHf+d4BBSDldMgYh5QTr4G4TEhIwbfpUJCYmYuvWrRg1crSDW1ad1RiE+Pe1rn/fk2jU46UKr+hhRYjlfdTzsZ549tln5Dhqy99cgbVr1/r3zVaBrU9OTsak1BTEx8fj2LHjGDxoMC5fvlyBLeKhKUABClCgMgnogxBloFQlCNEPDiL+I38ighBb3WIYhPjHLcEgxDvXiUGId5ytHaX3c73Rs+ejKCwsxNIlS/HVV19XbIN88OgMQnzwojjRJF8JQpxocpVZVV3FsHv3Hvnwzm55rl3+jh07YszY0YiMjOSYIK4RcisKUIACFLAhoAQh6ulzlXFCjN1jLIOQstlilG4yC2emEtrHBRiEeOcCMQjxjrPWUcRDyIyZM9CoUTIOHz6CYUOH8RtEDSgGIRV3j3riyAxCPKFYfvt4rf9ruP/++5Cfn49FCxfhu+84Bo8r2gxCXFHjNhSgAAUo4KjAq0PHGLvDKN1j5Mwx+hREP05IWRCi3S1GjB7CIMRR8opbj0GId+wZhHjHWeso9913L/r07YOQkBB8+eVXWDB/QcU1xoePzCDEhy+OA01jEOIAUgWucu2112LEyOGIiorCz+t/xuTJUyqwNf57aAYh/nvt2HIKUIAC/iBQFoRY7x6jD0KsTJsrf+zDQUjzRtXw8n9aoH2rOFSLDoGYMaWktBQZmVfwx9/n8PqavTh8IsvqtXrw9voQAUJyvWiEhepHLRezrew5lIE339+HTX9qD9rV+ep4zBp5LaIig+V4HEvX7MWAXq1xd5ck2Q6xZGZdwbcbTmLeW7tszuAi2vzEv5qgx70NkVArXM74IpaiohJczCzAjj0X8e7ag9i+56LJeaiDD0duxiuFJZi3cifWfHbIkdWdXscYEETG4NBHS3Him/dQ46rr0OCBpxGd3BIBQcEoLS3BlcyLOPvr1zj2xTsovpJvcRyxXu3Od6HuHY8iok59k+0u/PULjqxdLgfuM1/UA/ud/e1b7FkxBYldH0S9e/+DsJoJ0OkCUJSThfStP+HIJ29o7kPZpxisMLn7i6jVsSuCI2PkQML559Nw4uv/IuvoPrQdNMuhWWPEIIP1H3gacW07y/2IPmliJo/sU4dx7PNVuLDjN6vO6vM5s/FL7HtrGoRx8iMvILZ5BwSGhkEM4FOYcxkXtv8qB1XUcnH6QvrwBiNGDMdtt9+GvNw8zJkzBz//vMFua2t2uAktXxwvveR9sdx6dVtUUmO0HTwHIdVq4NKuP7BjzhCgtEQeQx2AHf54GU6u+wANHnwadbo+hJDo6nKdK1mXcObnz+W9bWumD/VgmOJYuoBAlJYUy3tMbH/yu4/szhQS1+4GJD/yovE9UlyQj0t7tuLgmnlI7vaCQ7PGuPpes4teESvoApDQ+S4k3v4IIhMbIjA0XLZCeb8d//JdnP/rF+P1NG+iO9dECS6UmVWKci6jyRMDUL1lJ3nfiWube/oYDn+yTPM9r2zvKJutGVzEPVz3jh6o3qqjnPUlICTUxOH0D/9D2qZ1Vh3Unzvq9jg6a4wnP4fF8X3xM1TdPeb06dMYMXwk0tLSHL18Xl2v0x0JiI4Nxq//dxpX8n1rZi0GIV69FXgwClCAAlVOQB2EaHWPkQOpTp73uhwiRM4bo08+5ACp6r/7YkVInyda4pnuTREeZjrtmvoqn0rLRZ+xv+LYqWyTiy/Ch6lDO+GOG+vK8ERrEcHBfz87hLkrLWdfUQchn313HI3qR6NNs+qqUWn1exSO67ecweDJW1BcrLdVL7ExIUgd3BE3dRIP6tbvz72HMvDYqz+ZrOCzQUhUNYgHxYCgIBkCiIct8yU37QR2zHgNBRnnTV4SgUXrvpMQ3bCFVQyxze6l4+TUtepF/Qu4eOARDyO1b7xHBiDmS8bev/DP/OEoLsizeE204ar+0xFZt5HFa+KBJu2Xr1Hz6pvtBiH17/0PGv6rt/FBxHxnIhQ6++s32PvWdM2HEvMHios7t6DZ00MQGBZh0S5HH1L8+RNQ/fAhHjrEIKknT560e0riAbf98IWIrJuMnFNHsH36q1YDo3p3P4ZGj+qnQz780RKc+PYD4/7VQcjJdR8isl4TVG/RQYZbJktpKdI2fYu9K6ZqXteY5JZo1TcFYXEJVtuedXQvdi0ZK4MRraXhQ89af2+dOQbx/hIBkK3pc915r9lF9/IKIdXi0LpvCqo1ucryeihtKS01BrTmzXP3mihBRlFejgxZ6z/wFMT713wRYdX+d2birAgiVIunghAxy0yLXiOsfubIQ5aW4tLev+RnqL1AWd1GRz9jPPU5LI7ty5+h48aPw0033Sin0hXdY7791vSaevktYPVwD/RuhC7dkmQIcmBHBtZ/cgLH9vjGgKTqIGTXrl0YOGCQr7CxHRSgAAUoUAkE9EGIUg1SNnuMSfcYJQjRmjZXhCFi8bUg5JWnWqH3o00RFBQgKyd27r+Ez78/jtPpuRDTyN5+QyK6XpuArJxCvDJ+Ew4dM/0//n5Pi+2byRCk4Eox1m08hW83npIzrnS/pyGua1dL7lu8NnfFTrz3xWGT20EdhGRcvoLIiCDs3HcJH319BJezC3FvlyTceXNdub+c3CJMmP+nPIb5om7HxYwCrPvlFH7ZelaeU2J8BG7tXAcd29TE8dPZFkFIjdhQNG0Yg4AA/YPYNW1r4aluTeQxP113DN9sMH1ILCkpxYGjlyGOUx6L+kHx4j+bEdO4DXSBQTi76Rv5i794CBDrJN35KAKCQ7BjRn+TIET+Aj10HiLqNJCVI5cP7Zbfuueln0JwdCwSbrwXta7uIn/Jzz1zDH/PHWLyoGgy1WPOZXmMnJOHZWWK2EfN9jei7p2PysoM8W39/rdnIu1X04E2A0PC0Kb/dFRvebV8YMg+eQjHvni7bPvbuyMoKkY/0rBOJ8OYv6bqH5zVS4MHnkLDh5+T3/SLB4i0X7/Bud9/QElxkdy3qCKISKgvvykW+z/62VsW+1Cfz+XDu+W3uyGxcbL64/TPn6MwKwNhcbWRdNdj8hvwHbMHIfv4gfK4tD6xzw4dOmDsuDGyHN3ZX5qbPjEAdW/vLu/BPW9M1FcGmC+6ALQbNAvVW18jq5b+Fp4ny6qn1Pe3eD0oIgoiUDux7gMU52YjXlQjdHlQ3p+i8mjnwpHI2L/D5CgilBH3eFS9Jhb3l3gYr3//U7J6SSyX9vyJnSKsM6uair/mNjTvPVJWGojzObPhC6Rv/g6BEVEQD9SxLdrLj21dQIDVIMTd95pP3BCGRghTUcUT3aCZ/EnBxXSc+eUrXNzxm3y/ietWp8uDiGncCkc+eRPHv3rX49fE2JWlqBDFeTnQBQXjzIb/k+95cV0a3P8UYpu3l58Z4r0sPvvU11V8JoXG1Ta2q/b1d6LePY+jpPCKrCIR95l6EZ8beWknLKqGRBDSvNdwFOfn4tLubTj3x4/Iv3BWbqp89oqKEdGOs5vXYc+bky3DOl2ArMIQn59iafDgM7IyzpUgRFSrufI5LI/r45+hYuaYfz/+bwQEBODTtZ9iyZKlvvS2MLblvmeT0fWResa8Vnw5czEtD79/l4Y/1qUhO7OwwtrdtWsXDBo0COER4XIK9PHjJlRYW3hgClCAAhSofAJKEKJMm6s5ja4+CCkbH6SsGkSA6H++aJbvDJYqHvhnjLgGIggQQYXo/rLyo/0WV69uQgR69WgmQwx1ECJ+/nrqTaifGCm3X/j2bqxee9Bk+xEvt0XP+xvJoGT/kUy8MPIXiMBDWdRBiLWqj/H9O6DbXQ3lLyCffHMUKQtMf5kV+3p7VhfZrScnrwiTFv6Fr9dbfsMtzvO2znXw8ddHbd6hFT1GiPpBsbSkBAUXz2LnotGWD+e6ABkGZB/bL7t1KEvTJwei7q3dZAhiLRxIuOEeWRUhfrk+9uW7OPK/N4zbm5d0a1V9JHZ9SJasiyqV839uxM5Fo0xMRdjS7Jmh8vXMA3/j7zlDTKpGqjW9Cq1fSZWhhFi0gpDIpEZoO2i2/EZYK7AR24myfdG9plrTtsg/fwbbZ7xm8e2/+nyEiXi43rtyqgxCzJfYZu1kWGNeYePqR1qzDtXx5PCWCIsMcnoXu7dcwKrUXU5vZ2+Dbt264fkXnkNwcDB++eVXpExMsbeJ8XXRNanVyxNkNc3p9Z9h/zuzLLa11S1GrKy+v8WHolbVR6NH+6D+PY/LB83jX63B4Y9fNzmOUnEiQgqt+1OEIG0HzpJhoFZYJ4K6dsPmI6ZRKxlyiPNI++2bsmPoAtDiuZFI6Hy3sRvW3remIX2L6WCO7r7XHIb3worKuQhzETztWjRas9JBfHbIKiyzagx3r4k4RXVFh1bVh3i/tx++QFa6iaoRGZKZhRtqKlfHCBH3qBLQadGrP3dEsCE+30T1ka1FGW/GlSBE7NeVz2F/+Ay9++670O/VfggNDcWWLb9j7JixHr/bPfU53Oq6ONz4QCIatIhBiKqCtqiwBMf3ZWHDpychPre9vSiDzopv5sTsX/PmzvN2E3g8ClCAAhSoxAL9howxfBGgVIOY/Vt2jZn7eqkSeJj+u6ybjC8FIWP6tUePe5PliYkxOIZN+8OpS6gODMT4G72GbbDotiK6rLw1o4vs8qJV0aEOQs5dyMeA1M2yIkS93HxtAqYPu0ZWi2zffQHPDLEcz+CDhbeiReNYnEnP1axccebEfCkIEQ9xYqwCUbngyCIeANsPW4CwmnXkw8w/IoDQGD9EPAi2H7EI0Q2by2oP2c3BEKaogwNrDxuh1WvJB5Lw+CSL7UU72/SbIru9WKsYEeuIICbxln/J09IKQsS4DQ3uf1J+m6v1EKp41On6IJo+MVBWjRx6fyFOfv+xCZVJsFNaiuPfvIfDH3nnW0dP/QLuyLV3dJ0XX3oRPXp0l6t//PEneGNZWQhmbx/iG3fZPSapkdXuMUl39EDjf78qd2XeLUb8TB2E5F9Iw46ZA2T4pF5EVYcIwYIio3Fx1+/4e/bgspd1AegwYqEMv2xVpij3hQjjzm1dL7vIKEtsiw5o8+pUBIVHalYWyHaqxjnR6hrjifeaPW9vva4+F60qHrvt8MA1EcdQByFaAatYR3RnElViIiTWer+r2+pqEGL3fAEo93lpcRH2vTVdVobYWtwJQlz9HPaHz1BvjG/h6c9hEYKIQKTDLfGIT4pAgKFbsPgyJ+vSFWz/OV12nSmPKpHw8HA0a94MQYFBCA8PQ5cuXdD5hs4ySMrKysKsmbNlVQgXClCAAhSggKcEyoIQ8+4xqkCkLAixnDZXNMTXKkL+O/8WtG5aXVZRTJin3eXEFuCUoZ1w/631ILqKLP9gPxav3q25uq311EGI1vgdYoeNG8Rg8cTOqBMfAWvrKBUhYjwSUZkiBl51dfGlIMTaGCDWzq329XfJkm5R6XH00xU4+vkqqwzGX8yzMuTDqNJ9QR0c2Dp+h5FLICo7zNdRPyxbe9AVjVK31SII0QXg6lFLENO4NfLST2L79NdQcOmc5rmoH6yVwVDVK5p09XHw21tX7x3z7cQvzPWaRVsdP8fWcTIvFODs8VxPNcW4nwEDB0DMGlNSUoL333sfq1a97dQx7HWPaTt4Nmq0vlazW4w4kCOzBamvmfm9Iao82g+bDzGehXmIpz4RW+spD7GiokSr4kTuR3UPagUhnnivOQVfjivX6nQLWjw/GiIgtRZA2Dq8J66J2L86CBHjI5l3vxHrqMfvsLaO0lZPBSEiTAtPqCfDVmURYVqj7i/Jz1p77RDbuBOEuPI5rL5/ffkzNDk5GZNSUxAfHy8HSnV0zCJn3g7l+TkcXy8CXR5OQstraiAqNsTYdaa8qkTUwZFiILpjnzlzBu+ufhfff/+DMzRclwIUoAAFKGBXQB2EmHePUcYJkRUhpuODWHaTWTRrst2DeWMFdbjgahXFogmdIao17M2iIsYhef6xZnIMji9/OoFRM7caT1EdhKzffAb9UzZbnL4jQYh6jBAxmOqBo5nY8PtZiH3uOmBaYWLP15eCEItvw+00Xvm21N45ql83L9W29RCq3s5aEBIeX1eO3yAGsRQzw2yf1k+zKsXWA7G64sSZc9GazUR9PrYenJ05jj+vOzFlAjp37ozCwkIsf3MF1q5d69TpqKspzLvHqB+Ird276utubfYZW/egulrE2tgy4oTUgdyVzAvYPqO/7GIllkY9Xkb9+56QFUsH1szFmZ+/0DSwNX2uJ95rTsGX48qOBBC2Du+JayL270hw4a0gxHzGK1ujcJd3EGLrPrf2Oewvn6ENGjZAamoqateOx9mz6RgzZgyOHdW/T/1tEV1nRCgiwu/gEP3g4iIQ+WrVEfzyueXYZq6cn1YQIvYjqkH+97+1WPPuGld2y20oQAEKUIACVgX6DRktviE06R6jD0DEIn4uu8YsNUwWY32cEF8MQvYdzsTj/X/SnI3F1j2hdEfJzinEkKm/W50iVx0smIcdngpCxBgkU4aI2WsS5eCs6kUEI6fO5uCjr45izWcH7Z6nLwUh9qYpNb8+yoObM+9lTwchjnzjL9pnaz2TcSScOBl7QYitBwonDuPXq7obhJh0qzKbPUbdLcZatwV3gxD1g7C994fykGh+j9sKONQX19Z6nniv+cqNZAwgCq841M3DvN2euCZin74ShDgy+43awBeDEH/5DK1MQYi4Jxq0jMGND9RF6+vjZBji6SBEfd/Fxsbi/gfuR/fuj8jBr/Pz87F0yev4+mvTwct95XOG7aAABShAAf8U0ApCLIIR7SBENY1uaSkWzfaNihAxS8pC0d2kVgQqQxCi3FbtW9ZAj/uS5RS8ibUjEBpSVspcUlqK9ZvOyNBGawpeZR+VIQixNkuC1tvPfOYEdytCPB2EiEEI962a4dAnR+HlSxYDnTp6Pg4dwMmVyrMk28mmGFd3Z4wQZSdKRYX5GB1l3WJMKzDUba1sQYg77zVXr6Gnt1OqW8S5ODLeRWUOQtQD6Yr+rJeP7MGJr/+Lizt/Nxnw2ZnKFOHlTtcYVypC1O8zX/4MbXNVG4wfPw7VqlXD4cOH8UrffiguLvboLV7en8NR1YJx00N10e7mWqiREG4sHioRX8IczsaXKw/j8M5Mj56Teme9n+uNnj0flTPv/PjDj5g2bXq5HYs7pgAFKECBqifQb/BoOXmAUgRi7A4ji0L0PzdUhFgbH0SOo+ozQUhFdY0xn/XFUxUh1m7J69rXwjPdmxqn8c3NK8KUJTvwxQ/Hrd7F/hyEGB9o7JT823oLOxoceKtrjK3uNY58FDl6Po7sy9l1PD1In7PH11rfE9NVanWPcaRbjGiPu0GIK90wzMeq8WTXGHvdazxxzcp7HxXRNUZr/CBfqAhRz4x0btvP2LVknOXUuADUg/H6YkWIumuML3+Gqrt67N+/H/1e0Q+07MmlPD6HxQCp7bvE4/p7EpDUNBpBwWWVqLlZRdi95TzW/+8k0k94fpwnc5vrrrsWI0eNREREBKfP9eSNw31RgAIUoIAU0AchykCpSvhhGozoUucs1acdcmBUy+4xvhSEiDb62mCp7owRYu8+Hf2KmCGnoRynRAykOnv5zkoZhKgHcLQ2vak9K0eDA28NlurSLBaqk3T0fOy5uPJ6efwC7ko71Nt07doFgwYNQnhEuMvTVWp1j6l9/Z1ythhRYWRr3A13gxBPDMzp6cFSXX2vuXstPbW9rw2WqjU4rXKuzlRiOBKsmBvWu+dxNH60D0qKi2zex0qYJrb3xSBEPViqL3+GqqfzLq9qBk9+DouuLzfcl4jmHWsgIrpsWnTRBebkgSxs/iYN2zekQ1SDeGtRh0m7du3CwAGDvHVoHocCFKAABaqAgBKE2BwnRAlCxOww1qbRXTx7is9weX36XI3Zacq7IkTBdqbK47EHGmHw821ktxrzwV29cfEceVC01g71NJj559Pw95xBclYXZxZHgwNrQYg4Vuu+kyAerjwxfa7YnztT3jp6Ps4Y+fO66lkajh07jsGDBuPy5ctOn5IyNWdxQR52vz4Bde/sIWeLsTVTkDiII/e3zWvmwlSt5jOhxDZrp58+NzLaI9PnuvpeM0cXff6HDB0M8WAjZvX54fsfMH/+Ao93FTA/bkVMn6s1O40jwYUzQYgSaogvJuxNtauYGNtgo6pODKQqp5Gumyw3cyQIMXYnu5KPvcsnyymdbS2Ofm7Z+hxW3qO+/Bnat28fPNztYRQVFWH1O+/ivffec/qzyBsbdLojAXc8Vh/Va4cZS4O9MV2uI+fmjSmIHWkH16EABShAgcop8MrgUXJAVPMgxOTvqXOW6CMQYxBiOj5IKUrhS0HINW1rYcaIa1AjNhQFV4rx+pq9WPnRfosrGBEehJ73JeOnzWdw7FS28fW6CRF4PfUm1E+MlNuLaWtXrz1osv2Il9ui5/2N5PSh+49k4oWRvyDj8hXjOp4IQsS0uqLa48sfT+DwiSzNO3DqsE64t2s9Walja6pfsbG6TXsOZuCJgevtDrDqydvekQdFW8dr+uRA1L21m1zlwj+bsXvpeJO+7cq2YkrIOl0elA+Dx74om0LVE7+AJ9x4L5o9MxTiGJkH/sbfc4aYtEFMu9v6lVSExNSQzdHqAx+Z1AhtB82GaE9hzmXsf2cWzv3xk+apRyTUQ717/yP78psHP46ejyevoa/va+68OWjdujUyMzMxcWIKdv5jvULK2rmow4T0339AbPP2ckpbe9OvOnJ/27tm9e5+DI0e7Qsx/W3G3r/wz/zhJveXeLBvO3AWRPWIVhinHgdCVB+Ieyvtt2/KTlUXgBbPjURC57tln0hrFQruvtfMbR986EG89NKLCAkJkS/l5eVh0cJF+O6778v9ljKei06HjP07sGvRaIhBZs2Xas3aySljL+36w+Qld6+J2JmngxBnBnFVTkZdHaPZNcbs3hDbaU3bbe6m7kpz4tsPcOiDRTavqb33gLKxrSDEHz5DPfFZVO5vDgAP9G6ELt2S5KHKa2pcV8+DQYirctyOAhSgAAUcEZBBiL5vjJVxQgBdWRCi3S3G14IQceJiatvejzaVM62IAUTFg///vj2K0+m5EAHITZ1qo8u1CSgsLMEr4zfh0DHTb47V09aKMGTdxlP4duMphAQHoPs9DY1jc4jX5q7Yife+OGzi7YkgRBnvJD4uHEdOZmHrP+fx+45zEOOBJMZHyHa0bBqLAJ0O6Rfy8NrEzfI8rS0iWHljyo2onxglTbZsT8fH3xyV+xNLSYmYnvcyLmYUOHLvOL2OIw+KtnaqfggU6xVcTMeZX77CxR2/yXJv8S1mrWtuRWzzDggKj4T5zBue+AVcPGi26T8d1VteLZPB7JOHZNiSl34KNRganWYAACAASURBVNvfiLq3d4f4VlW8J3S6AM0gRLS94b96ocGDz0AXECgfaDP2/YXTP65F/oWzCAwNQ1z7m+T+whPqoSgnCztmDUT28QMmPI6ej9MXyo83UMYJEVUHrn4LaxImFBXKa2SvW4wgc+T+tnfNxL0jpmiOqtfE4v4SY4jUv/8piPeBWC7t+RM7RVByJd/kisVfcxua9x4p7yMx6OuZDV8gffN3CIyIkg/ksS3ay56OImyxFoS4+14zv4XMgxDx+scff4I3lr1R7nebMG07eA6iGzSTxxLdKcQD/oW/Nho/N2rfcLf83Dj66Uoc/+pdkzZ54pp4OghRd6MS1/C0uMab1snzEYv5QNHiZ+rzKC0tQcbe7fJcC7My5L2bdOejiEpqrP/sMvxSYC/8E/tVV92I++3kug8gghZlMR/o2d57QNnOVhDi65+hzVs0x4QJ4xEXF4fdu/fI6jRPD5TqqTfO/b0aocMt8dj+czrWf3IC2ZmFntq12/thEOI2IXdAAQpQgAI2BMqCELGS9jS6Mgix1S1GbOpLFSHK+Q7o3Qb/eaiRyQwr5hZn0nM1gxBR6TF1qJi2tq6s+tBarhSW4L+fHcLclZbfOnsyCBEBhq1FVKKIMObT747Zvdmf6tYErz7TStNEnM+8lTux5rNDdvfjygqOPCja26/4pbtVnxTENGwh0ztbi/m3mZ76BVy04ar+0xFZt5Hl4UtLcf6vjRDfWIbHJ1kNQsSGory94b96ywdWW4t4UNkxc4AMXdSLo+djz7Qyvd6kaROkpExEzZo1sXXrVowaKeYHd34xlt4b7jF73WLEERy5vx25Zo5McSpmy9i1ZCxE1xWtRQwuXP+Bp2Xlkvly5fJFXNj+G+p0ecBqECK2cee9Zn5M0TVm1OiRuOqqqxAYqJ/xyltBiDPnYq0riLvXxNNBiDgndZhq7m0+rbLyevXW16DVi+MQHB2red+IACV9yw+ITm6BiIT6cHQw0tqd70Kzp4dqfpaVRyCtNN5XP0N7PtYTIpQVs518+OFHWLlipfMfQtxCdqUbM3Y0IiMjcfDgQfTt8wpVKEABClCAAh4TEEGIWGx1jzELQiy7xYgd+GIQItrVvFE1vPyfFmjfKg7VokNkqCGmm83IvILtuy/g7U8OYPuei1ZBH7y9PsQ4HMn1ohEWqv8FXlRQ7DmUgTff34dNf6ZrbuuJIETsWMwOc0/XJLRvGYeEWuEIDwuSz/+ioiMz6wr++Puc7PpjreuMVuMevqsBnny4iez6o56G1x+CEP3dGoCEznch8fZHEJnYEIGh4fLHorJChAaX9mzDmQ3/J0MIlJYYCRx5CBUr2/smUqwjvl1N7v4ianXsiuDIGPktqngoFV1Yzm5aJ/vZRzdsbjMIkQ9ocbVlGCIeUEKq1ZDVB6LSpCg/F7lpx3Hu9x+Q9svXsguN+eLo+Xjs08JPdjR69Ch0vaUrLly4gAkTJmLf3n1Ot1zdPUZsLMY9EMGDrcVTQYhyf9W/7wmILhDKfSEeUsU9dubnz3Hyu4/k/W5riWt3A0SgE1GnvgxExLf1l/ZsxcE181C9zbVo+sRAUQaGvW9NQ/oWK11UXHyv2WrXosUL0axZM68GITY/N64UIPvUYZxZ/5l871pzFe95V69JeQQh4nMwseuDsgotvHaSSehlLQhRPnOaPDHAWDmnXCtRKSOq20799Cla95kox0JyZjBScb816v4SIhIb6D/HDEt5BiG++hk6fcY0dOjQAefPn8e4ceNx8IBp11qnP5Cq6AYNGjZAamoqateOx+nTpzFi+EikpWmHv1WUiKdNAQpQgAJuCBiDEBvdY4xBiL4spGz2GPFH8QAoHtwWz5nqRjO4KQUoQAHPCHTp0gWDBg9EWFgYv431DKnH9qJU7ERHR8sxQr79dp3H9s0dUcAXBEQAIqqfYmJi8OWXX2HB/AW+0Cy/bIOoHlu4cAHE54boWrRj+w45rlBGRgaysrIgpiXmQgEKUIACFHBV4JVBI/Xjg8ggRHsaXUMQYn18EAYhrvJzOwpQoDwEJqZMQOfOnfktYnngurHPgYMG4J577sGpk6cwatRofrvrhiU39U0BdUXapEmp2L1rt2821E9a1b1Hd9nNKDQ01KTF7CrjJxeQzaQABSjgwwLmQYjWOCG6SbPFrDGWQYhh4BBWhPjwBWbTKFAVBdq1bwfxQCIqDz744EOsemtVVWTwmXMW3+w+//xzeOhfD8npc1etehuffPyJz7SPDaGAJwTUnzufrv0Uy7wwGLAn2u3r+7jzzjvQrVs31E2qKyv9RF9uBiG+ftXYPgpQgAK+L6AEIaKlVscJKQtCtMcHEYHIEnaN8f2rzRZSoAoJ3Hf/fUhOTsalixexdu2ncspWLt4XSEpKkgMeimtRUFCAjz76GKvfWe39hvCIFChngdtuuxUtW7VCdlYWPvvsc9mFgwsFKEABClCAAr4p0HfQSEMAImtBtKfRZRDimxePraIABSjg6wKiGmTW7JkIDQnFO++sxubNm329yWwfBShAAQpQgAIUoEAlF3A4CLE1UKqoE2FFSCW/U3h6FKAABShAAQpQgAIUoAAFKECBSiAggxBxHrYGTBUVIQxCKsHV5ilQgAIUoAAFKEABClCAAhSgAAWquICDQchiw7ioZQOmqqfOZUVIFb+LePoUoAAFKEABClCAAhSgAAUoQAE/EdAKQixmjpk02zIIUc8YU1oKLJk71U9Omc2kAAUoQAEKUIACFKAABShAAQpQoKoK9B0oBkvVd40Ri9bMMToGIVX19uB5U4ACFKAABShAAQpQgAIUoAAFKpeAa0FIaSnEf8QiK0NYEVK57gqeDQUoQAEKUIACFKAABShAAQpQoJIKiCBEP2uuoSLEZApdnSwUMVSEKMGHTD8YhFTSG4KnRQEKUIACFKAABShAAQpQgAIUqMwCtoMQfUBiFoToK0BkRYgMREQwwjFCKvNNwnOjAAUoQAEKUIACFKAABShAAQpUFgFjECJOSGMKXRmEpMxarE8/VF1h1EGI6B6zdO60ymLC86AABShAAQpQgAIUoAAFKEABClCgkgr0GThCX/VhJQiRM8goQYgYDsRQDmJSEcIgpJLeHTwtClCAAhoCtWvHIympHkpKSnDkyBFkZGTQiQIUoAAFKEABClCAAn4jYC0IMZlC12YQYugmw4oQv7nmbCgFKEABpwWu7ng1evXqhcaNGyEoKEhuX1hYiOVvrsDatWud3h83oAAFKEABClCAAhSgQEUJyCBE/Mcwha6sDdGXhxhm1NWoCJEzxYhFjBHCIKSirh2P66ZAg7pRWDrpRtRNiEB2TiGGTP0dm/5Md3qvgYE6PPdoM3S/Nxm1aoRB/F1Z1m8+g/4pm53epysbdOvWDc+/8ByKCoswb958/PTTT67shttYEYiLTsAr96QiOiwW+05vx/IfUsvdqkeP7ujVuxcKCgowd85cbNz4S7kfU+sADRo2QErKRNSpU8fkZQYhFXI5eFAKUIACFKAABShAATcFzIMQGYHoUxH7QYgyda4YL4QVIW5eCW7udYHGDWKweGJn1Il3LwgZ8XJb9Ly/kUkA4u0gJCEhAVOmTEZSvSRs2rQJ48dNcNrz2TGt0eq6OLldUWEJvlp1BL98fsrp/VTWDSoiCImJicGUqZPRrFkz7Ny5E0OHDENxcbHXiR9//HE89fSTshLk1KlTeOft1diwYUOFtMXrJ88DUoACFKAABShAAQpUOgElCDGZQtdmEKIxdS6DkEp3X1SJE/JERcjVbeIwZ/R1qF4tFJezC/Hupwfx996LRr/0C/k4dOxyuXv2fq43evZ8FPn5+Zgze658SHV2YRBiW6wighDRop6P9cSzzz4DETxXVDeUvn374OFuD6OoqAir33kX7733nrO3F9enAAUoQAEKUIACFKCAzwhoBiH6VERdEbJIP0yq+KcShKimzmUQ4jPXkw3xssAT/2qMAb3bICQ4AP/97BCmL/vbyy0ARDXItOlTkZiYiN2792DwoMEufVPPIMQ3gxBRFTJ7zmw0aFDfrevrzo05MWUCOnfuzDFB3EHkthSgAAUoQAEKUIACPiNgEoSIVhmn0FWCEIhZY5QgRD+LrvnUuWI7do3xmWvKhnhRYPDzbfD0I01xpbAE81buxJrPDnnx6PpDKRUD4s+rVr2NDz/40KU2MAjxzSBEtOq1/q/h/vvvkxU/ixYuwnfffe/SNXZ1IwYhrspxOwpQgAIUoAAFKEABXxQQQYg+/7A+hS6DEF+8cmyTTwhUdBASGBgoqwVatWqJ8+fPY9y48Th44KBLNgxCfDcIufbaazFi5HBERUXh5/U/Y/LkKS5dY1c3YhDiqhy3owAFKEABClCAAhTwRQGHgxD9RDFmFSFKdQgrQnzx2rJNGgLqAVLVLzs6a4wSfDiKW96zxrS5qg3Gjx+HatWq4a+//sLwYfpk05XFmSBE5KZPdR2Mq+pfj6y8DCxdNw7nLp+2eth7OvwHt7d5BPmFeVj542QcSd8r140IjcJLd05AYvWG2Lj3S3zxxyq0qX8d7mn/b9SKqSsT2pz8y9hy8Hv8uHMtCgrzbJ5a/ZpNcWfbnmgY3xxhwRFy3dyCbOw7/Re+3fEBLmSl2dw+NDgct7Xphmsa34aosGpy3XOXT+Gb7e8jLeM4+tyd4tCsMdUiaqBrq4fQvuFNcj/iPAqK8nHi/AF8u/19HD23z6lLpO4ec/r0aYwYPhJpabbPxakD2FmZQYgnNbkvClCAAhSgAAUoQIGKFjAGITam0JUVIUoQojV1rhg3ZOm86RV9Ljw+BewKVLYgRJnNQ1SGfPThR1i+fIVdA2srPPRiY9z0YF35siOzxnRs1BU9b+gr1//wtyXYdvhnzV2LcOGlO8ejXlwTnLhwEMu+m2gMNNRByNZD65FTcBldWj5omLrKdHe7Tv6BdzfMQVFxocVxRDBzd4fHcUurfyEwIFCzHVeKCvDpHyvwx8EfNV8XgUXv20bKdpovxSXF2LDnC3RqfIvdIOSaJrfh4WueQ0hQqOZxxGeo2NeX21bruxk6uIwbPw433XSjnEpXdI/59tt1Dm7p/mpKEFIRx3a/9dwDBShAAQpQgAIUoAAFTAX6DBhuHBdEP1mM+IfpFLqaQYh66lwGIbyt/EUgMFCHti1qICxU/7D8TPem6NwhHo5WhIipdhsmRRlP954uSXj4rgZyjJDVaw/ij7/PmVCU96wxnnw4vq1nfdz5eAMEBumQn1uM92btwZ4/ymbAMb/GsZE10ffuSageWQv/HN+M1T/P1nywT45vgd63jUZYcDh+2Pk/fPPXf427Ugch2fmZCA4MwfELB/HDP58gI+c8mie2kxUeIqQoLL6C1RtmY8/JbRa329XJN6PnDf1kCCKqRtbv+gw7jv2GwIAg3Nj8XhlgBAUGy4qUd9bPwIG0f0z2IV574uaBaFPvWjk7y7Hz+/HN9veMbbj9qu6ICosVebEMafad3o7lP6RatOO6pneg27UvyHZk5Wfglz1fSZuS0hI0rNVchjyJNRpCBCufb30Lv+37xuG3jpg55t+P/xsBAQH4dO2nWLJkqcPburvi9BnT0KFDB+Tk5CB10mRs22Z5Ddw9BrenAAUoQAEKUIACFKCAtwTUQYi1KXQZhHjravA4XheYP+563HJ9HYeDEPMGVvQYIUuWLkaTJk2QnZ2NSSmpsnuMq0vn+xLx4HONEBQSgJzMQrwzdTeO7Mq0ubunugxG2wadZWAgusdczE63WN9atxixojoIEX/Xqvq4qv51ePym/jIk2XroJ3zw22KTY6grTkTQsWbjHOw9ZepwQ/N78FCnXjKgECHIyh+nmFSWtEzqCHEu4hhi27d/nmHyekJsfTx/+2hUi4iTx9YKQqpHxaPPnRMg/n3q4hEZlIhwR72IwOWZrsPQom4HpGeexNJ14y3WsQZ+9913od+r/RAaGootW37H2DFjXb3UTm3XpGkTpKRMRM2aNXHhwgVMmDAR+/Y617XHqQNyZQpQgAIUoAAFKEABCpSzgHNBiDJ1rpxF13S8EHaNKecrxd2Xi4A/ByENGjZAamoqateOx9mz6RgzZgyOHT3mslOzDtXx5PCWCIsMwqX0fKycuBNnj+fa3F+H5Jvx7xv7yXW0useEBoXhxTvHQ4zdYd4txjwIyS3Ikt1mTl86anLMiNBo9LlrIkQYcfz8AbwhutYU5RvXaZbYToYLoiuKtcoUEUC8cPtYNKrdSo45suz7iThzqczqsRteQafGt9qsOlECHWtBSJeWD+CBjs/IfYggZf/pHZp2YgyUJ24aICs73v91Ef46stGha9axY0eMGTsakZGROHjwIPr2ecWh7ZxdSdxXNeNqys2aNGmMu+++G3WT9OO1bNq0CePHTXB2l1yfAhSgAAUoQAEKUIACPiVgNQjRl4fInjJlFSFKECL/rYydKgIRjhHiU1eVjXFYwJ+DkOYtmmPChPGIi4vDqVOnMGL4CBmIuLrUrh+B3uPboHp8GE4dzsb8/n/a3ZW97jENajXDc7eNRnhIpEW3GPMgRAQgy76bIAc3NV+ev30Mmie2lyGJ+Tp3tespu8+UlBbbDBasracOa8SAr6KyRQwAa740T+yAZ7oOQXBQqEVFiOgy8/wdY9CsTjs5qKqo9BDBjtYSF52AV+5JlWON/Lz7c/zftnfsOosVkpOTMSk1BfHx8XKg1FEjR+PkyZMObevMSsp4IOpt8vLy8PuW37F48RJkZFjaOLN/rksBClCAAhSgAAUoQIGKFrAIQkSD5FS6FkGI2YwxSlWIDEQYhFT0heTxXRPw5yDE0xUCAYE69J97NeokR+Lgjgy8MeZvh1CVagqt7jFK+JB3JQcrfpyMY+f2m+xT3TXG2rgbYgNbQUi3a5+H6PoiBkO1VYmhVK8E6ALx3d8fYt2OD2VbosNj0eeuFNSKScThs7vx5g+TNAdkVQcY5m1VV604hGZYScyU8/kfbzm0iacrgKwdVCsIERWAu3fvxtw583D8+HGH2suVKEABClCAAhSgAAUo4KsCShCizz9k/KEKQgw/088aYz0IEa+9zlljfPUas102BBiEmOK8mNoWTdrFYudv5+UYIY4s6q4e6u4x6koLrS4tYt+eCEKUkEQMTrr4mzFWp8hVd6FRBxC2Ag71+dtaT/2aI2bKOr4YhKjbLwZI/c8T/0HbtlfJ/4PYuXMnhg4ZhuLiYmdOk+tSgAIUoAAFKEABClDApwReHjDcOFOl1SBk4sxFSgqinxVCdI2RP9FP/cggxKeuKRvjhIA/ByHlUSHw+OAW6HBLPDasPYn/W3nYIUl1RYV6jA51txh1BYZ6p5UxCDl8dhc+3OTYjC55V7I1uwJpwbe5qg3Gjx+HatWq4fDhw3ilbz+vBBIJCQmYNn0qEhMTkZmZiYkTU7Dzn50O3RtciQIUoAAFKEABClCAAr4oYBKEyJkhTStCIH6mBCGyKkSffJQFIYbxQlgR4ouXl22yJ+DPQYgYJHXa9GmoW7cu0tPTMXbMOBw5csTeKZfL61rdY+x1ixEN8UQQ4krXGDEuhxifQyye7hpjq3uNO/jqrlD79+9Hv1dedWd3Tm07KXUSrrvuWk6f65QaV6YABShAAQpQgAIU8FUBGYSIxhnGBVGCEP2PZCpiGYRodZNhEOKrl5jtsiXgz0GIOK/pM6ZBdF/Izc3F1ClT5bSqFbGYd4/ZeXyLcbYYW8GAJ4IQXxss1dZUwu5cm27duuH5F55DcHAwfvzhR0ybNt2d3Tm1rTJuSEFBARYtXIRvv13n1PZcmQIUoAAFKEABClCAAr4kYB6E6MdIldEIgxBfulBsS/kIjHutA7rf0xAFV4oxe/lOfPB/jnUHUVoz+Pk2ePqRprhSWIJ5K3dizWeHyqehVvbat28fPNztYRQVFWH1O+/ivffec/n4La+pgUf6NkVMXCjOHsvBB/P24dQhyxlctA4QFVZNTnEbXy0Jfx/bhA17vjDOFqOuvjDf1hNBiLPT52pN09vj+pdxXdM7PDJ9rjjHr/56F+t3febytdDa0JPX2tmGKUFIYWEhlr+5AmvXrnV2F1yfAhSgAAUoQAEKUIACPiPgeBCiTJ2rzBajjBHCrjE+czHZEOcFnn+sOfo80QJBQQH49LtjGD/X/pSx6qNUdBBy9913od+r/RAaGup2lUDfGe3RsGWM8fR2b7mAVam7HEZVwoRLOeew99Rf6NzsLjmF7LLvJsppb7UWTwQhocHheOnO8agX1wT5hXlYs3GOPL56EbPKPNSpFwIDAnEg7R+s/HGKycwwLZM64qkugxEcGCK3FbPPFBUXGneREFsfz98+GtUi4uTPtGa4qR4Vjz53ToD4d3Z+JtZsnIeDaf9onne1iBq4qcV9+GXvV8jMveiQ8dx5c9C6desKGaeDQYhDl4grUYACFKAABShAAQr4iYDNIESZQleOEaIEIYbgQ46Zqho49fX53ivT9hNbNtMPBFo2icWC8dcjPi5cVoV89t1x/LjptLHl6RfycejYZatnUtFBiHqckGPHjmPwoMG4fNl6e62dSO36Eeg9vg2qx4cZVzl1OBvz+zseDClhgggbSkpKEBQYbHM6WnEgTwQhYj9XJ9+Mnjf0k0FHQWGerMbYcew3BAYE4cbm96JT41tke0RQ8s76GTIMUS/itSduHog29a6Vgz8fO78f32x/D6KbS/PEdrj9qu6IDqsuP/MCdAGaQYjYnzpwEUHK7pNb8cveL3E5L0OGLC3qdkD7hjcisXoysgsybc5yo25f8xbNMWHCeMTFxWH37j3yOntz5hYGIX7wYcYmUoACFKAABShAAQo4LPByfzFrjNmUuWJrw5gh8t8TZy7UZx5K8KFUhYgVDQOnMghx2Jwr+pjAU92a4NVnWiE0JNCiZes3n0H/lM0+G4SIhr3W/zXcf/99yMvLw5zZc7FhwwaXhM0rQnZsPIc1M/Y4vC919xhlI1vdYjwZhIiZv+/u8DhuafUvGYZoLVeKCvDpHyvwx8EfNV8X7e9920hZWWK+iHBk6+H1SIprjDqx9a0GIWK7To1vxcPX9IaoVLG1XM67KIOQi9npdo17PtYTzz77DAICAvDhhx9h5YqVdrfx5AoMQjypyX1RgAIUoAAFKEABClS0gDoIEW3RnELXVhCiDJzKIKSiLyWP747Aw3c1wHM9m6Fu7UgEBuoHyRGLPwQhYrDUUaNHymlVv/rqa8ybO88lCnfGCFEOqHSPEX/Pyb+MZd9PxJlLx6y2x1MVIcoB6tdsijvb9kTD+OYIC46QP84tyMa+03/h2x0f4EJWmk0bEV7c1qYbrml8G0QwIpZzl0/hm+3vY8+pbXjh9rFoVLuVzSBEbBMZFoNbWz+Mq+pfL7vTiHBGfFbmF+bi1MXD2HpoPcSAsgVF+Q5dK2VQ3PPnz2PcuPE4eOCgQ9t5aqUXX3oRPXp0l5U+FRHEeOo8uB8KUIACFKAABShAAQoIARGEmA+Qqp5FRr7GIIQ3CwV8W2DK1Mno1KkTTp8+jRHDRyItzfYDv2+fDVunFlCCrpiYGHz55VdYMH+B14HUM9ZcvHgJ69atw47tO2QwIqZszsjI8HqbeEAKUIACFKAABShAAQq4KsAgxFU5bkcBHxLo3LkzhgwdjMjISH5j70PXxRNNGT16FLre0hUXLlzApEmp2L1rtyd269Q+YmNjMSl1Epo3b2ayHWeRcYqRK1OAAhSgAAUoQAEK+IiAa0GIMl6IagYZdo3xkSvKZlRZgREjR+DWW2/BqZOnMGrUaFaFVII7oV37dhBBSHR0ND5d+ymWLXujws4qISEBTzzxH1x73bWyPUFBQWAQUmGXgwemAAUoQAEKUIACFHBDwCIIgc5y8FSLrjEMQtwg56YUKB+B+vXrQ0ynGxwcjM1btuDPbY7P+FI+LeJe3RW47bZb0bJVK2RnZeGzzz5nFxR3Qbk9BShAAQpQgAIUoAAFtMYIcSoIUU2ly4oQ3k8UoAAFKEABClCAAhSgAAUoQAEK+LqAsSJENNQwZa7FdLpWK0IYhPj69WX7KEABClCAAhSgAAUoQAEKUIACFFAJOByEyGlyxSLCD6VrjDEIKcXr82cQlgIUoAAFKEABClCAAhSgAAUoQAEK+LTAy/2HGSpBLCtCRMN1okpEVIQwCPHp68jGUYACFKAABShAAQpQgAIUoAAFKOCAgNNBiAxEWBHiAC1XoQAFKEABClCAAhSgAAUoQAEKUMDXBLSCEOj0lSBisagIYRDia5eQ7aEABShAAQpQgAIUoAAFKEABClDAUQEGIY5KcT0KUIACFKAABShAAQpQgAIUoAAF/F7A/SBEjqHKwVL9/k7gCVCAAhSgAAUoQAEKUIACFKAABaqAgAxCoBMz5xqnz3WuawyDkCpwm/AUKUABClCAAhSgAAUoQAEKUIAClUPAsSBkxkJlolxYjBHCIKRy3Ak8CwpQgAIUoAAFKEABClCAAhSgQBUQsBuEiGqRiQxCqsCtwFOkAAUoQAEKUKCyCdSuHY+kpHooKSnBkSNHkJGRUdlOkedDAQpQgAIUcFrAuSBEqQtRT5/LihCn0bkBBShAAQpQgAIUKC+BqztejV69eqFx40YICgqShyksLMTyN1dg7dq15XVY7pcCFKAABSjgNwJWgxBxBjqdqAdRVYQYghDZPUYs4u8MQvzmYrOhFLAlMKB3GzzbvakcMGj95jPon7LZJbDmjaph6ItXoXXT6ogI1/8CLpbsnEIMmfo7Nv2Z7tJ+ndkoJiYGU6ZORrNmzfDntj8xevQYFBcXO7OLSrWu/CDXBaCktGIMwoIj8PJdE1G3RjKy8jOw+JsxuJCVVqmMeTK+JRAXnYBX7klFdFgs9p3ejuU/pJZ7A3v06I5evXuhoKAAc+fMxcaNv5T7MbUO0KBhA6SkTESdOnVMXmYQUiGXgwelAAUoQAEfFTAPRrGQHwAAIABJREFUQkQzdTIAYRDio5eMzaJA+QgMfr4Nnn6kqdy5q0FIyyaxmD3qOtRNiLBopDeDkGd7PYvHHuuJ3NxczJo5G5s2bSofNB/fa4AuEB0bd8VtbR7B+p1rseXgDxXS4ojQKLx05wQkVm/IIKRCrkDVO2hFBCHqAHbnzp0YOmRYhQSwjz/+OJ56+klZCXLq1Cm88/ZqbNiwoULaUvXuPJ4xBShAAQr4i4BbQYgycCqnz/WXy812UsC6gCcqQqYM7YT7b60nK8W2/XMe//3iEHLziuRBi4pKsevAJePfy+taJCQkYNr0qUhMTMTWrVsxauTo8jqUz++3WWI7PNN1GEKCQvHxpqX/z955gEdVpW/8TSMNkpCE0FNooUOkI0W6gqCsCCrrIlhYsIDgCkhHUERFRcVFUUFkUSyoCEqVJr23BAgdQiiBJIQU0v7Pd/zfeDOZmcwkkzKZ9zy7y8Kce8rvO3fmnvd+5/tKTAihR0ipXyplboAlIYQIxIGDBuKpp4aowPIldQxl5MgReLj/w8jIyMCSr77GsmXLypx9OSESIAESIAESKCwBTQjJkzJXGs7vaIw+g8yCD+YUdiy8ngRIwM4JfPthF9Sv7Ycr15Px4tQdOHUusdhnNOzpYRg48FF1Hv6T+Z9g9erfin0MpaXD0iKElBYeHIfjECgpIUS8Qt6d+y5CQoJx/Hgkxo4ZW+yeGNNnTEO7du0YE8RxljtnSgIkQAIkUAACw0e9quKAUAgpADxeQgIk8DeB2iE++Hh6O1QN8kLU6XgMevGPYscjm5A5b89BrVphOHPmLF79z6tITCx+MabYJ26iQwohpcUSHEdxEygpIUTm+dKol9CnT2+kpqbiow8/wrp164t1+hRCihU3OyMBEiABErBTAhRC7NRwHDYJlDYCpUEI6d37AYwYOQLlypXDqlWrMe+DeaUNU7GOh0JIseJmZ6WIQEkKIa1bt8b4CeNQvnx5bN60GbNmvVGsZCiEFCtudkYCJEACJGCnBCiE2KnhOGwSsAUBfYBUfXuWBEvVCx+WjKU4gqWOHz8OXbt1RUpyCubOnYvNm7dYMrRcdcRFLrx6BDo37IsaAbUh8S2kpGWk4uKNU1h3+DucvRqJbPx/9iyDHrTruzcdgCp+wXB39VDxApJSE3Dw3DZsOPoj7qQa91JpU6cbBrQbkRNQNDU9GX1bDEGjmq3h4eaJzKxMXL55Biv3LsK56yfyzE0vfFgy8bsZaVi8eQ5OxhzKU92/fBDa1uuJRjVawtc7UM1Dz2Hz8ZU4cfmASQ76AKn6xi3NGqO/fmvUKqzcswiNg9vg/uaPoZJPdRXVWzjuil6PjUdXIC09xeyUfb380blhPzQP7YDyHr7qes2maw5+Y5SnvsF+rYaiY/0+uHzzLP67dqqad/t6vdA+/H74egXktCdr49f9X+Fq/EVLTFAsdWRNPtl5LJoEt8XtlHh8snYKrifGmOz7/ogn0K3xP5CanoIvNs7C2WtRqq6tbRIcWBc9mg5EaFB4zn2WnJaEEzEHsObQt/lmFnJ380TXxv3RqnZXZVMp1xMv4/eD3yA2/gJG9JphUdaYwq4NQ5D64zExMTEYP24CYmOLL0sShZBiua3YCQmQAAmQgJ0ToBBi5wbk8EmgMATKkhCi33zIpkOCpF66dMkqPJ7lvPFEh9EIr9ZcbWyNFRE1lu+Yj72n8x79cXVxw6PtRiIitIPJ60UQWbr1fUTHHsnTvCaEJKfdxo+7F6JPxGBULB+Up55sUJdunYuoywdyfWYrIcSSdoTD8Ut7sezPeUZFCFsKIXtPb8KdtER0atDXKNdjl/bg6y1zkZGZbtRmrep0xcOtnlZBY03ZdEvkSqzat8SksKMJITG3zqm+Hu/wEmoG1DHaXkkGpjW14FvU6oyB7Ueqj5dvn499ZzYbrSriwvAeU9XcLsZFY8G66Tn21du0MDYRYaZXxOO4r+FDcHF2MToOEel+2vM59kRvNPq5CB/Duk4wagMRDMWeLWvfl68QYou1YWyAU6ZOQYcO96pUunI8Zs2atVZ9FxWmsiaElETfhRk3ryUBEiABEiCB4iRgvRCSLTli/noTymCpxWkq9kUCticg8TxCa5RXDQdXK49RTzWCt5erRelzXVyc0LS+Pzzc/9rI+PmUw8vDGqNyoCdOn0/E25/l3ugXddaYiIgITJ4ySbmjHzt2DC+PHmMVMNkAPt31NYQFNVDX3bgdi21Rq3Ey5iCysrNQ2bcG7g1/AHWrNsUPO/9rNANLz2aD0L3JALVZT0y5iQ1HfsCJmEMQgaVbk0fQqEYr9Vn8nRv4dP2MPG/lNSFENvTJd2/D1dkN4nlx5MJOyPjEy6Rh9ZaqjVOxR/DFxjdybf5FiPHxrAgnJ2c1h9BK4XikzXNwc3XH6v1f4/CFnbmYZGdnITHlVh4BQYSQf3V6BSl370BEhkPn/kRiSry6Vjh0adwfIYH11Dj+jFqNn/d8mUdAkM2uj5c/ZExSxMNANp0F8QgR8cjNpRwuxEUrpsIvvFoz5U0gG+L0zLtYsuVdRF7al8fmbep2R//Wz6oNt/S9LXK14ik2FT4irlTzD1XeNr/s/RLbT/xudN1oQoj0LWJIg+otcP7GSfxxdAWuJlxS42seei861O+tPHZKKlWxqUXv5x2Ikb1eR0XvSmr+Sza/a1T0CQuqj2FdJyoPJPFe+v3A/3Ka1AshhbHJPWEdMbD9C8om4smz6djPOHR+O1ycXdU9JgKGrBsR/L7aNEetdX2RzwZ3fBmNa7ZWzyFih98PLstZF3KvlffwUwHQZI2eiDmIhRtmFtnaMMZcMsc89vhjcHZ2xk8rfsL8+Z9Y9X1UmMpvzZkN+T68c+cOZr4+C/v25b0vCtM+ryUBEiABEiCBskDAqBCinh1MZY3RhJDs/5dD/v/vzBpTFpYD5+DIBNrdE4R3JrRGeW83i4QQQ1YlHSOkf//+eObZp+Hm5oZt2/7EjOkzrDKnXsSQDfXSbe8b9XSoX/0ekYHzeGPIUZIRPWdANpwJyXFYuGGWcs/XimzK+rYcgg71+6jN2a5T6/H9zv/mGqMmhMg/GvP6kA3gM90moXblRhCvEXlbL5tyU6WgMUIkvoIchTHVtoxD0vLWrx5h0VELGZ8mJBRECJHrjXl9NAlug8c7jFIihHjofLv941woxJtmRI9pyqtGjrTIZlg28Iabam0u1xIu4ZO1U/PU0Y9fNt6ZWRlKkJH/Gh6R8vH0h7ubh9mjJ1YtTBtWfrLTWDQNaacEAzkeczPpWp7WTR2LkYqGXj4FsYne48SUZ5McN+rXcqgSSowJfg1qtIDMRewuXlFyvEvvDSRH0p7pNlEdWZJiTAix5dowZqJevXrihRdfgLu7O3bt2o3Jkybb0JKmm6pTtw5mzJiOwMBAxMXFYdq06TgRlfcYXbEMhp2QAAmQAAmQQCkmkEsIkXFqKXMphJRiq3FoJFAEBOxdCHlu+HMYMOARReb773/Apws+tZiSeBWM6DkdQb41zG4SzTUongePtBmuRA7DN+nadRU8/ZRYUsmnGoxtuvVCiLGNvbTTPryX8nDIys7EN39+hANnt5ocVkGFEEvARYR1xGP3voDMzAws3vyOiutgrhRGCDEl+ni5V1B2k43vhRun8Kkc48hIzRlGpwYP4sEWQ5THiKlYKFJZYo8M7jBavb03xVQbv9Q/ffWYElVMHcWxhF9J1NFsJn0bOx4j4tdzPaZCYncYHouRa/RCSEFtol+TpjxTRGh7tttk1KrcUMWBWbB+Oq7cOp+DbFD759GydheznkCaoCMXGRNCbLk2jNmyRYsWmDR5Iry9vREdHY2RI54vEpOHhIYgMCBQtV2nTm306tUL1Wv8FUNnx44dmDplWpH0y0ZJgARIgARIwN4J2EAI+et9GD1C7H0pcPyOTsDehZDRL4+GZI3JysrCN8u+waJFiy02ae0qjTH0vnHq+IkpASK/xrS37XKc5PONs3D++kmjl5irpxdCTMWZsEbcsKauufk5O7nA1zsAzv9/5Ebq6o/dWBITozBCiHimLFg3DRJI07CIh4zEdDGsIx44z3SfhHpVmynPHPH0kM27saLPMLL5+C/4dd9Xeapp4xePkB92LVAePfZW8jseE1KpHp7uOlEd5TIm5umFkILYRHj1bDZQHWnKT8gzVU8v1kjAV/FskQCwhiW8WgSGdH5FHQszFEJsvTaMrYOwsDC8PnMGgoKCVKDUgsQssmR9afFA9HVTUlKwe9dufPzxfMTH52VjSbusQwIkQAIkQAJlncBfQojmCVIgjxAKIWV9kXB+jkHA3oWQwmRKsESAMLcK9Bur/I5+mNsIauMwl83FGnHDmrqG8zPMyGEqeKxcV9RCiKkYD9K3KSFE7y1izR0sGWp+2fOlSSEkP6HLmr5Koq7mTWHseIy2Nk3NUS+EFMQmMt/+rZ9RmXbMrXGpp3mviAi37vByrD20XOHSe1WduXocn2143ahnjrn0ubZeG8bsKJ4aM2fOROXKQbh69RomTZqE8+f+9mqxle2NCSEqkPHx43hv7vu4cOHv43m26pPtkAAJkAAJkEBZIEAhpCxYkXMgARsQoBAyAukqnWz+xzwMcVv6plyuMye6lBYhRI7uDO0yXh3hsaSURiFEvxG2ZA5anfyEkPyELmv6Kom6+mNA+uMxek8LY8eMZKy2EEI04So/jnoRT28TcwKHnqe5erZeGyUphOj7lgCpTwx+Ak2bNlFHY44ePYr/vPIqMjMzS2KpsU8SIAESIAESKNUEKISUavNwcCRQfATsXQgpTIwQLe4GhRCobB3Dur6GulWaqIwc0VePYsPh71VmDn1MDGu9TQpzNKYg3gf6ze6Zq8ewfIdlWTtS7iYZPYJj7fiL7861rie9R4U+Rof+WIzeA0PfelkUQmyxNoxZoHGTxpg6dQp8fX1x5swZPD9S4ukUvSBRpUoVzH7rTVSrVg0JCQmYPn0Gjh45at0iYW0SIAESIAEScAACFgkh0+bM0/LlIjtP1hgejXGAdcIpOgABexdCCpOusiSOxoioIJlpjl7YlbO6SoNHiH5DvCd6I77b8YnRNKuaZ4EIJ6XRI0R//MHcEQpLb+2yIoTIfI0dj8nvWIxcZwshpCBHYyRmi8RukWLrozG2WBvG1pA+WOrJkyfxwvMvWrrUCl3v9Zmvo02b1kyfW2iSbIAESIAESKAsE8hPCJG5O2lCiLwdlMioSvrISZ9LIaQsLxDOzXEI2LsQ0rlzJ4wZMwaeXp5Wp6ssbcFSSzJGiGTjGNhupEoRayjU6O+Gzg374cEW/1L/VBqFEH3cFnPpYi29w8uSEGJ4PEbEOC1bjDlhwBZCSGkLlmqLtWFsDenTeW/csBGzZ79l6VIrdD0tbkhaWho++vAjrFmzttBtsgESIAESIAESKGsETAkhEkFVi41HIaSsWZ3zIQEjBBqHV8T7k9qiUoAHjp26hSdGbbKKU+0QH3w8vR2qBnkh6nQ8Br34h1XXF7ayPkvD+fMXMHbMWCQmJlrUbEmkzzWW8cLWHiF6gcfUcQdDQNoYjHmsaHUlkOrwHlNRM6COxUKIJpykpafgy01v4XSseXd9W2y6tRSpMsjVB77GpmM/W7QejFWypRAib+tHjRqFgMAAnD17Fu+88y6iT0UXeGzWXqhf74fP78CWyJU52WL03heG7drCJtamzzWWpndA239D0lVLWuQlW95F5KV9eRBYmj7XFmvDGP+RI0fg4f4PIyMjA0u++hrLli2z1kwFrl+YwNEF7pQXkgAJkAAJkICdEaAQYmcG43BJoKgI+PmUw5dzOqFWcAXcuJWKV97YjQPH4izurqSFEBnoe+/PRaNGjQp0Nr5ns0Ho3mSAUoBlYyXeELJpNyxV/YLh4uKGS3Gnc33kXz4II3rOgKQoTUiOw8INs1TaVq2Ih0LflkPQoX4f1YekX/1+539ztWFrIUQfJyPq8gF8sfENo8dc9IPQiyfGjsYYzkOuNZVyVt+u/ijNbwf+h41HfzS7tmyx6a4oNukxDfJnUmoClm59H9GxR4z26+vljw71e2Nb1GokJN/MU8dWQoiLiws+/HAe6tT9S0SSUtweA9KnJibcunMdsjba1eup0gsvWDddpSI2VmxhE72IlpqegqVb56r+9UWyyvRrORQuzi44FXtErVt9fJoGNVpA0lC7uZRT1y7ePCfX51X8gvFMt4nw9QpQzRqLMWPLtWGMVWG+iyz+0jVRkUJIYQnyehIgARIgAUcgUDghREUO4dEYR1gonKNjEJj0QnMMeCAMTk5A9PlEfPHdSdyMT1OTz8jIVp4iySkZRmGUBiFEixOSlZVl9VtY2aA93fU1hAU1UPMTl/mtkb8i8vJ+ZGVnoZJPVbSq3RUNa7TET7sXYlf0hjwc9GJKYspNbDjyA07EHIJnOW90a/IIGtVopUQQafvT9TMgXiH6YmshRJ8JJDMrE3tOb8SfUb+pN+nq2zs7C4kpt3JtIoXDs90mQ2KFyHHIY5f2qHlIStXKvjXQpXF/hATWU9/8IorIfPae/gPfbv/Y7E2i90KQDfDag9/g+OW/3+QbBim1xaZbBqTfVMtm+vilvdgWtQqJKfFqI12/egSah96LahXDkJSWgI9/n4S427F55mIrIUSfVlXrJCoqCi+9OKpYv2Q0MUHEBrlfJNZLfvEybGWTe8I6YmD7F5TQIWKjeOocOr8dLs6uuDf8AbSsfZ8aj6yTrzbNUWKIvshngzu+jMY1W6s1KoF8fz+4TN1X4dWaqXutgkdFtUadnZyNCiG2XBuGhguvH45p06YiICAAx49HKu+04giUqo2DQkix3krsjARIgARIwE4J5Agh6nlWAoKoJ1tYdjRGE0Kys7Fg3tt2ioDDJgES0Aj4+7njo2nt0KhexTxQku6k45U3d2PH/mulVgiRt+wzZkxHYGAg9u7di9cmTLTKuLJZH9xxNGpXbpxzNtBYA6ZiYsgG7dF2IxER2sHk9eY8E2wthMjYZaM/uOMYeLh55pmKqVgkNQJqY2iXcfDx9DfKT0SVHSfXoFblhqhWMTTfDbTWiLmxGKattdWmW/qWuCcPtxoGEXnMFRGvRAi5mZR3jdtKCCktHiF6YUpjYu5YjNSxlU3kIaNXxOO4r+FDSgwxVmRt/rTnc4hXkrEi4x/WdULO8Sx9HRFH9p7ZBFnH4sFlLuuQLdaG4fgGDhoIEWWdnZ2xfPl3+OLzL6z6HipsZQohhSXI60mABEiABByBwPCX/vP/z+sUQhzB3pwjCeRLoHoVL4we2hj3tqgMby/XnPr2IITIYCdOfA2d7+uMuLg4TJs2HSeiTuQ7Z30F2aSFV49A54Z91UbKw81LfZyWkYqLN06poxORl8RLxHgqTO367k0HQFz0xStDNmYigBw8tw0bjv6IO6nGY5cUhRAiYw+tFI5ezR9DzcC6ajxaMReU1dvDB31bDEGD6i3UBlgr8tb91/1LcPjcdjzSdriK1WBNwEkZS9+WT6G6f61cm+CiFEJk7DKfLo0eRpPgturIhGzAxS6p6cm4fPMM9p7epDL4iJ2NFVsJIdJ2SccI0eanHY+Rv8uaXLB+Oq7cOm/yfrGVEKJ1EBxYFz2aDkRoUHjOfZacloQTMQew5tC3Rj1z9IMTYatr4/7KU0uEESnXEy/j94PfIPLyPuXZJGKdOSHEFmvDENhbc2YjIiICN27cwJQpU4s1/ouMRUslLp4+JSHEWPWFy8okQAIkQAIkUEIEKISUEHh2SwIkUDQEOnXqhDFjX4aHhwc3AUWDmK2SAAmYICACyGsTJ8DHxwerVq3GvA/mFTsrfcaamzdvYe3atTh08JA6AiXBeePj44t9TOyQBEiABEiABEobAQohpc0iHA8JkEChCWiu4TExMRg/bgJiY/PGfCh0J2yABIqBgHgY+Xj5q5gZ1paklHiTHi7WtsX6lhHQe6S9/vpMHD923LILbVjLz88Pr898HeHh9XK1mp6ejoWffY4VK1bYsDc2RQIkQAIkQAL2ScByIST7r6Co8j/q/8nfGSPEPq3OUZNAGSfQrHkzdUSmQoUK+Pbb5Vj05aIyPmNOr6wS0B9HsXaOpmLZWNsO61tGQP+989OKn7BgwaeWXVgEtapUqYLBg59A6zat1fegq6srKIQUAWg2SQIkQAIkYLcEzAohMisJnjptzjyleojuIWeqVaEQYrdG58BJwBEI9O7TG2FhYbh18yZWrPgJKSl5U+E6AgfO0b4JUAixH/t17doFDRo2RNLt2/j55194BMV+TMeRkgAJkAAJOCABY0LIX/qHyh1DIcQB1wSnTAIkQAIkQAIkQAIkQAIkQAIkQAJllkCBhRDlGcKjMWV2YXBiJEACJEACJEACJEACJEACJEACJFAWCeiFEHEBEU8QKfl6hGhCiBYvZMG8t8siH86JBEiABEiABEiABEiABEiABEiABEigDBEQIUTFAVEqCIWQMmRaToUESIAESIAESIAESIAESIAESIAESMCQAIUQrgkSIAESIAESIAESIAESIAESIAESIAGHIUAhxGFMzYmSAAmQAAmQAAmQAAmQAAmQAAmQAAlQCOEaIAESIAESIAESIAESIAESIAESIAEScBgC1gkhKlGMShUDBkt1mDXCiZIACZAACZAACZAACZAACZAACZBAmSFgUgiR8KmSQEYCqU6bMy8b2eo/FELKjOk5ERIgARIgARIgARIgARIgARIgARJwPAIUQhzP5pwxCZAACZAACZAACZAACZAACZAACTgsAQohDmt6TpwESIAE7I+As6sbsjIzgeysAg3ex8cHb7w5C/Xq1cP+ffsxceIkZEp7DlqclPunM7KyS4aBh5sX/t1zOqr7h+F2ajw+/n0S4m7HOqg1OO3iIBBQoQqev38mKnj44UTMQSzcMLPIux0w4BEMHTYUaWlpeG/ue9i6dVuR98kOSIAESIAEzBOgEMIVQgIkQAIkUOoJlA+ui7B/PAsP/8o4PHcs0uJvFGjMTw19CoMGDURycjLeeftd7Nixo0Dt2PtF7m6eaF+vF9rU7Y4fd3+GkzGHSmRKXu7lMbzHNFSrGEohpEQs4HidloQQohdgjx49iv+88qpDC7COt+o4YxIggdJIgEJIabQKx0QCJEACJJCLQMSE+fCt2wTJsRdxaM5LBRJCqlSpgtlvvYlq1aph7969eG3CRIel3KZONwxoNwJ3M9KwePOcEhNC6BHisEuwxCZeEkKITHbgoIF46qkhKtnAws8+x4oVK0qMATsmARIgARIAKIRwFZAACZAACZR6ArYQQoY9PQwDBz6K9PR0fDL/E6xe/Vupn3dRDbC0CCFFNT+2SwKmCJSUECJeIe/OfRchIcE4fjwSY8eMpVcIlykJkAAJlCABCiElCJ9dkwAJkAAJWEagsEKIbELmvD0HtWqF4cyZs3j1P68iMTHRss7LYC0KIWXQqJySRQRKSgiRwb006iX06dMbqamp+OjDj7Bu3XqLxsxKJEACJEACtidAIcT2TNkiCZAACZCAjQkUVgjp3fsBjBg5AuXKlcOqVasx74N5Nh6hfTVHIcS+7MXR2o5ASQohrVu3xvgJ41C+fHls3rQZs2a9YbuJsSUSIAESIAGrCFAIsQoXK5MACZRFAu5+gWj26jx4VamJhFNHcODNkUanaW4zLsE8m73yHtzK++LM9wtwae23COn7L1Tt3A/lKlRU7d29fQtXNv+C8yu/QlZGeq4+GjwzCZXb90L8yUO4tnM9Qh8ainK+/ribcBPnfv4SV3esQYNnJ8O/aVs4ubgg5eolRH02E4lnI42OVcYR3Hswgtp0V+04ObsgOysTqTdi1Rgurfsuzxi0hrSxpCcl4NA7LyPpwqk8fQT3/idqDRiOrLtpiPpyNq7tyv1mU2tDi+nh7h+EWo+OgE/tRlCZXzLSkXj6GM589wkSzxzP077G2tL1Zs5u0sb48ePQtVtXpCSnYO7cudi8eYulTefUkwwr4dUj0LlhX9QIqA2JbyElLSMVF2+cwrrD3+Hs1UhkI9to21qA0rb1esLXKwAuzi7IzMrEjcQYbI5ciX2nN5vM3qIJF1pmldT0ZPRtMQSNaraGh5unaufyzTNYuXcRzl0/kad/7XpLJ20ug4t/+SDIHBrVaAlf70C4u3rk4rD5+EqcuHzAJAd9gFT9eCzNGqPfyH6/4xPsOb0J7cN7oXPDfoqrlITkOGw+/gu2n1iTb0YcXy9/dW3z0A4o7+ELJyenHJuuOfiNUZ7auPVzkf5+3fcVZHy9mg1CgxotlW0kJkRSagL2n92i1khaeoqlZijyemLLET1nwM87EFGXD+CLjW+YXb/De0xFzYA6uBgXjQXrpufMRc9ha9QqrNyzCI2D2+D+5o+hkk91xfROaiJ2Ra/HxqMrzDLQ7rPuTQegil+wWl8aw4PntmHD0R9VW+aK3GtdG/dHq9pdlU2lXE+8jN8PfoPY+AsY0WtGvlljZBwhleqhW5MBCKvcINc4jl/eh98OLM13HIZj1B+PiYmJwfhxExAbyyxJRb7Q2QEJkAAJGCFAIYTLggRIwOEJ2FoIubR2Obxr1kHF+hGAk1NuvtnZiN2xBlGfv5krBawmHGSk3IGziyucy7nnXHc38RbuXDqNig1a5Gov6WI0Dr09GiJY6ItPWAM0HDkDHgFVTNr29rkoHJs/WQkjhsWWQkhqXCwurf0OYf2fhovHX8KBvtxNvIljH09SApS+2FII0W8+ZNMhQVIvXbpk1br3LOeNJzqMRni15mpTZ6zIZm35jvnYe/qPPB9X8qmGoV3GQ/40Vc5cPYYlW+aqTbNh0YSM5LTb+HH3QvSJGIyK5YPy1EtNT8HSrXPVplZfbCWE1KvWDEM6v4pyrn+vT8NBCIfjl/Zi2Z/zjG54bSmE/H7gf6gRWAeNarTKYxcZxzbZlO9dbHJz36pOVzyEfAi6AAAgAElEQVTc6mmT85E2tkSuxKp9S4y2YSgAiAA0uOPLkPViWCwVeqxamIWsLJv9JzuPRZPgtoi/cwOfrJ2Cm0nXjLYaFlQfw7pOVOKOiBHCXit6DntPb8KdtER0atDX6L1y7NIefL1lLjIyc4vB0parixsebTcSEaEdTN5ncn8s3fo+omNzf2doYxHhY1jXCUqwMSwiGIo9W9a+z6wQYsk4Uu7ewdKt76kUvNaUKVOnoEOHe1UqXTkes2bNWmsuZ10SIAESIAEbEaAQYiOQbIYESMB+CdhaCBEvDlev8oiPOoCLa79FZnISgtr1RLVOfZXAkXHnNo5+OEF5f2hFEx+QnY3r+7fg4uqlykOkWpeHlTeH9u/iaVKj5yBUuqcTMtNScPy/0xB3+O8UsOIJ0uw/76N8zTrqmqRLp3F+5WKkXLsMEUiC+zwJj8C/BJJbkftx9INxyLybmst4thRCxGMkMz0NWel3EbNxhRqrZ1B1hPYbCu8atVS/1/duUqKMvngEVlUMtRL+1KuoEFofKddjcHLxHKQn5X4jnJGchNQbV4wuwoiICEyeMkm5ox87dgwvjx5j1WKVt8tPd30NYUEN1HU3bsdiW9RqnIw5iKzsLFT2rYF7wx9A3apN8cPO/2JX9IZc7cv1z3abrN4uy8b6/I2T+P3gMrXxrFYxBA9EDM4RSI5e3K02V4abRE3IkH9Pvnsbrs5uEM+LIxd2QtqXt+cNq7dUm8dTsUfUm319G/JWvbynX864mga3Re97/on0jDT8sOvTPF4PMq+EO3F5vClECPlXp1cgm0DZ0B469ycSU+JVu8KhS+P+CAmsp8bxZ9Rq/LznyzwCgmy+fbz81aZXSrfG/4AIEpYKBXqPEGHo7eGD4xf3YNPxX5Tw0jz0XtzX6GElbojnwIL103Hl1vk8NpfUwf1bP6s8c6TvbZGrFU+Ze2ilcLWRr+Yfqrxtftn7Jbaf+D1PG3oBQLj7eQWgoncl7Du7BTtPrlWcfDz91HhqBNTC/DVTEHe7dHkARIR1xGP3vqDmtnz7fOw7s9no/XF/xBPKViK2fbFxFs5ei8qpp+cgQoWbSzlciIvGhiM/qHUeXq0ZejQdqLwz0jPvYsmWdxF5aV+efno2G4TuTQao9ZOYclNdfyLmkBKWujV5JEfwkjY/XT8D1xNjcrUha0qEqMY1W+e512QM0kZ5Dz/IGpQ+RMRYuGGm2TYu3zyLjUd/QMyt82peTUPaqvvdy72C8jxauGGW8jKxtEjmmMcefwzOzs74acVPmD//E0svZT0SIAESIAEbEqAQYkOYbIoESMA+CdhaCBEBwpjXhxwNCb7/ceXVcWH1Upz5/r85wHI8Qu7cxuG5Y9WRFxEMRNQQzw7xrBDvD03QaDrmXbh6V1DHcC6s/jqnnZq9BqHWoyPh5OyshJgjInSk/e2KLyJI05ffgVfVEHU85eTitxH7Z+7sKbYUQmRgxrw+5BhS0zFzlSijn5upFVSYGCH9+/fHM88+DTc3N2zb9idmTJ9h1ULVb85k87Z02/tGPR3qV78HQHYeb4wWtTpjYPuRcHZyUeKB4dtw2Rw+020SqvuHmdwk6j06jHl9yAZQ2qhduRHEa0SOLcTcOmdyngWNESIihIgqptqWcYjHSP3qEbidEq88DAw3q4aD6tdqKDrW71MgIcSU18d9jR5C74h/qs2uHFeRYyv6It40I3pMU141stGVzbChJ45+LtcSLuGTtVPz1NELACKgiPDy1ZZ3cE4nEmj9Vq0YojbOyWlJVq2/oq4sx2JG9npdCTgiBC3Z/G4e8UrENlPHYmR8hl4+xtZ5k+A2eLzDKCUmiNfUt9s/zjU1/TEdYwKDiBd9Ww5Bh/p9lF13nVqP73f+/R0qjTWo0QJPdhqr+hCvKEkNrRcE5ajNM90m5hyhMiaE3BPWEQPbvwBnJ2eTHkVVpZ3uk+Dj6W90HOZs1qtXT7zw4gtwd3fHrl27MXlSbhG4qO3N9kmABEiABP4iQCGEK4EESMDhCdhaCDG1sRePDE3AuHlsNw6/OzaPEKLF1EiLvwGXch5oPv4jVAgNx+1zJ3Bw9gvKe0M/3ssbfsCppe//1Y6TMyLGfwjfuk2RmZaKyE+n48aBbXnsW7VzX9Qd/LKK1WHMG8PWQoih6KMNqMFzU1C5bQ9kpibn8WwxHHRhhJDnhj+HAQMeUU1+//0P+HTBpxaveREpRvScjiDfGvkeHTDWqGzehnV9TQkDxt6ka9dIPIXBHUYrLwljGzy9EGJsEyntSJwM8XDIys7EN39+hANnt5qcZ0GFEEvAaR4GmZkZWLz5HZyIyX1Mx7CNwgghIrKI2CKii77IEaTne81U3iKHz+9QHgj60qnBg3iwxRAlPMlm+WTM395Z+nqaXeTtvTGmegFARJnVB77GpmM/W4KpVNUR8aBpSDuTa1y8mZ7uOlF5Zhgei5GJ6DmYEuLEg0LuJREjLtw4hU8lxkjG395o4qHzSJvhSuQw1of0U8HTT8U0EfsaE6cGtX8eLWt3Met1onm2SHuGQojcf3K/1q3SRIl9C9ZNMylcaX3dunMd89dMVuwsKS1atMCkyRPh7e2N6OhojBzxvCWXsQ4JkAAJkICNCVAIsTFQNkcCJGB/BGwthJgK3GmuH8PgoiKESNEEAH2b+naubl+DyIV/uXaLl0fzVz9AOd8A3Ll0BgffehHpd/IGFcyvni2FEFPBVGW8+QVc1a+kwggho18eDckak5WVhW+WfYNFixZbvEhrV2mMofeNU8dPTAkQ5hrTv203tvnTrs2vnl4IkQChhsdvpB19/A5TdbT+bCWEiJeLr3eAenuuFTlW8kib5+Dm6o78xiHXFEYIMfZG33BjblhHxCl5m1+vajN1pEE8PWTzbqzoj+FowVD19fQCgKUeMBYvvmKsmN/xmJ7NBqqjLabEPD0HcwKCeC1JnB1jdTQxRo4Tfb5xFs5fP2mUgKl64qn0XI+pCA6sq7yQjAlk0mB4tQgM6fyKWp+Ga0MvoMlRqBW7F5q0gnYPyXGsLze9hdOxRy2yWFhYGF6fOQNBQUEqUGpBYhZZ1BErkQAJkAAJmCVAIYQLhARIwOEJ2FoI0YsTerhFLYToPU7MZVFx8/ZB83EfqhgddxPicHDOKCRf+TuGgi2FkMJknrGVEDJ9xjS0a9cO6enpWPjZ51ixYoXFa94SAcJcY/qNlalNu1yv38QZe8NsiXBRXEKIYUYOU8FjZV5FLYRIhpJf9nyZxwT6jbkhd71ngsULAYCxvvT9mBO6rOmnJOrqPS0Mj8fo16apOZrjrZ+PKSFEL07lFytGE2UMPZ/0czhz9Tg+2/C60YCs5tLn6kUSS+1wNyPNrFeRYTshoSGYOXMmKlcOwtWr1zBp0iScP5c3ho2l/bMeCZAACZBAwQhQCCkYN15FAiRQhgiUFSFEUuXWHzpeBWQ1JcZoZtM8LIwJFRRC/l7cmgAhQUUtOeZheFvoxQlTm3btGm2TaGwjWFqEEEuy3+gZlEYhRL8RtuZrLD8hxJzQZU0/JVVXO+phmD1Gfyxm3eHlWHtouVXCkyVCiKUeJdKWKXHSnMChH4O5etZmV5J2KYSU1IplvyRAAiRQOAIUQgrHj1eTAAmUAQIUQl5G0oVTOZYsa0JIYWKEaHE3KIT8ldpUi58g8TCirx7FhsPfqyw4+oCU1nimyKIrzNGYgniE6DfCkrJ4+Q7Lsnak3E3KEy/CUk8Ie/ia1MdD0WeP0TwwzB1ZsZSDKY+Q0iiErN7/NQ5f2Jmv6bKzs5CYcsuo94mxixs3aYypU6fA19cXZ86cwfMjX0BmZma+/bACCZAACZCAbQlQCLEtT7ZGAiRghwTKihBSkKMxxgK7ljUhpDDpKkviaIyx+AalwSNE7xmwJ3ojvtvxSZ7sInL76wO/lkaPEP3RGHNHKCz5KrNUALCkrZKuY+x4jKQg1uJumDv6YykHWx6NEfFNMjgdvbBLobP10Rhj2YZsYSN9sNSTJ0/ihedftEWzbIMESIAESMBKAhRCrATG6iRAAmWPgF4ISTx9DPvfGAlkZ+WaaDkffzQfN08FJNVndtEqlQ+ui2avvAe38r4mj6UUdYyQ/IKgamPNr56xVL6GVg8fOh5VO/aBqWCothBT9H0WJlhq586dMGbMGHh6eVqdrrK0BUs154ZvjSeGJcKKoc0lG8fAdiORmZWRawNqWK9zw354sMW/1D+XRiFEH4/C8BiItd9ulgoA1rZbUvUNj8eIuKBlizEnDFjKwZ6CpZpKJVxY2+jTeW/csBGzZ79V2CZ5PQmQAAmQQAEIUAgpADReQgIkUMYIODnjntfmw6d2I6Rcu4SDb72EtFvXc03Sr34EGr/4Jlw9vUutEFKQ9Lk39m/F0Y9eyzXX0H5PIfThp5GVfhcnvnwLV3euzfW5Pq1vcQkhkkbYr14zo8Fd81uN+iwN589fwNgxY5GYmDebjrF2SiJ9rrHsNJYIF9YIIZqokY2sfFPtaly0MRi+iddzk0Cqw3tMRc2AOhYLIZpwYmn2Df3RloIcjZGBaelz5f8XJuWtpQJAfms0h3Gb1hg1ahQCAgNw9uxZvPPOu4g+FW3p5YWu16BGC0hWFhdnF7UuKvlUVdliTKXE1Tq0lIM5IcTa9LnGPKcGtP03pB1JiywpkyMv7cvDxNL0uXfSbuOz9a/j8s0zheaqb2DkyBF4uP/DyMjIwJKvvsayZcts2j4bIwESIAESsIwAhRDLOLEWCZBAGSfQ4LkpqNy2B7Iy0hG99H3EbP4lZ8Yu7p5oMuotiBgipbR6hMjYavYahFqPjoSTszPiow7gyAfjkJmWkjMXj8AqaPryO8qzReZ6cvHbiP3zt1zWrdy2J8KHjoOzWzlc37cZx+ZPyeUhE/rQUIT0HQInZ5di8wjRPEzMpeM1t0Tfe38uGjVqhISEBEyfPgNHj1iW6lLa7NlsELo3GQDJjiIbK3HHl027YanqFwwXFzdcijud66MWtTpjYPuRkFSzxy7twddb5uaKJyBii2wQq/uHmdzA2VoIsSaIqzYZvXeMsaMx4mnRt+UQdKjfR7GSYizlrCE3/VGa3w78DxuP/mj228YWQkjF8kEY0WMa5M+k1AQs3fo+omOPGO3X18sfHer3xrao1UhIvpmrjqUCgCVfny4uLvjww3moU/cvEUlKcXsM6IW/45f2Qv4u6WjzO0JkKQdzQoi/2KTnDEgq6YTkOCzcMEulN9aK4fradWo9vt/531xoNSHHzaUcoi4fUNlc9PFrqvgF45luE+HrFaCuMxbg9p6wjhjY/gUlBkkMmSVb5qo1YlhkPGGVG6B25caQILKWlsJ8F1naB+uRAAmQAAnkT4BCSP6MWIMESMABCFS59wHUG/IfOLu6ITM1GZc3rsCNfZvhHlBZbfq9qgQr4aBUe4QA6mhOs/+8j/I16wDZ2Ui6dBrnVy5GyrXLkBgiwX2ehIghUm5F7sdREUrupuaysHze/NV58AisCgkEePPwTlxa/z2y7qaievcBCIzoiMyUO3Cr4FdsQkiN7gNQ+7EXlcCTdvOamlPi2ciccWckJyH1xhWTK1WLE5KVlWX1W1jxcni662sIC2qg2pfjFFsjf0Xk5f3Iys5Sb81b1e6KhjVa4qfdC7ErekOuccj1z3abDImxIUFGJbjo7weXqXaqVQzBAxGDIdlYpBy9uBtLt76XJ/CirYUQ2WyO7PU6KnpXUlkvNh37CQfP/anmI0X+TLgTB0lRqhXDeYios+HID5AgmpV9a6BL4/4ICayn4obIJlHEEGPeLYZG0m++U9NTsPbgNzh++e83+YZBSm0hhMgY2offj34th6oNr2yWZeO/LWoVElPiIRvp+tUj0Dz0XlSrGIaktAR8/PskxN2OzTV8SwUAS75C9WlVtfpRUVF46cVRllxuszqaV4UwcXZ2VgJefvEyLOVgTgiRCehFx8SUm2p9nYg5BM9y3ujW5BE0qtFKrSu5dz5dPwPiFaIvEtB3cMeX0bhm6zz3Wni1ZqqNCh4V1Rp1dnI2KoRIG//sNEb1JUWyOO08uRaHz+9UQqWPpx+ahd6LJsFt4OPpb7QNU8YIrx+OadOmIiAgAMePRyrvNAZKtdnSZUMkQAIkYBUBCiFW4WJlEiCBskpAjns0HvUWKja4J+8Us7MRu2MNnJycUbldz1LtESKDF8Gj4cgZ8Aj4S/AwVm6fi8Kx+ZOReiP3xk6rG/Lgk+p4jHh9GJbkK+dx+Y8VqD1ghPoo6svZuLZrfa5qto4RYuiVYzimhFNHcODNkSbnK2/ZZ8yYjsDAQOzduxevTZho1VKWzfrgjqPV21/N28FYA6ZiYliSdtbc22dbCyEydr0QYDgXYyl8pU6NgNoY2mWc2gAaK5lZmdhxcg1qVW6IahVD8/Uk0NoQ0WFwxzHwcPPM06zh8RdbCSHSkRwRerjVMIjIY67IplyEkJtJ13JVs1QAsGSxlQaPEBmn3qtC/p7fsRipYymH/IQQESEebTcSEaEdTN5n+XnwyL06rOuEnONZevYiRO49s0mtY/HgMpXyWMYhgtA9YZ3M3u/StniJffHHm5aYGAMHDYSIsiIwLV/+Hb74/AuLrmMlEiABEiAB2xOgEGJ7pmyRBEjATgnIZrv2oOcR1KorXL0rKG8IEQou/vY/xGxeifCnXlUBQkvz0RgNvXiGBPcejKA23VHO118JGtlZmWo+Vzb/gkvrvlMeLuZK1Y4PIvjBvzxIRATKuHMb1/b+gbM/fKqOCdV/ZqJ6818cQoiMU+YU1v8ZBER0+GtOTs45w89PCJGKEye+hs73dUZcXBymTZuOE1EnrFqpMtfw6hHo3LCv2kh5uHmp69MyUnHxxil1dCLykniJGE+FKZvt9vV6oW29nso1XzwRRDi4kRiDzZErse/0ZpPXFoUQIvORYyldGj+Mqn4hKj2uVkwJIfK5t4cP+rYYggbVW6gNsFbkLf2v+5fg8LnteKTtcBWrwZpgpKGVwtG35VOo7l9LsdFKUQoh2ny6NHoYTYLb5thFNsyp6ckqPsTe05tUZhKxs2GxVACwdKG1KeEYITJOvYeO/P1U7BF8sfENs+lhLeWQnxAi/Wn3WfemAyBHWdxdPZR3hwggB89tw4ajP+JOqvkYP3KvdW3cX3lqyXykXE+8jN8PfoPIy/uUh5aIdaaEEM1eciyoa+N/QNamZBsSEVTuWRmLHKUS0e/ijdMm71tDu781ZzYiIiJw48YNTJkytVjjv1i6BlmPBEiABByFAIUQR7E050kCJEACDk6gU6dOGDP2ZXh4ePBtrIOvBU6fBIqbgAggr02cAB8fH6xatRrzPphX3ENgfyRAAiRAAjoCFEK4HEiABEiABByGwPQZ09CuXTvExMRg/LgJiI01fjTIYYBwonZLQDwnfLz8c3nyWDqZpJR4ox4ull7PetYT0Hukvf76TBw/dtz6RngFCZAACZCAzQhQCLEZSjZEAiRAAiRQ2gk0a95MHZGpUKECvv12ORZ9uai0D5njIwGjBPTHUaxFZCqWjbXtsL5lBPTfOz+t+AkLFnxq2YWsRQIkQAIkUGQEKIQUGVo2TAIkQAIkUBoJ9O7TG2FhYbh18yZWrPgJKSl5U+GWxnFzTCSgJ0AhxH7WQ9euXdCgYUMk3b6Nn3/+BfHx8fYzeI6UBEiABMooAQohZdSwnBYJkAAJkAAJkAAJkAAJkAAJkAAJkEBeAhRCuCpIgARIgARIgARIgARIgARIgARIgAQchgCFEIcxNSdKAiRAAiRAAiRAAiRAAiRAAiRAAiRAIYRrgARIgARIgARIgARIgARIgARIgARIwGEIUAhxGFNzoiRAAiRAAiRAAiRAAiRAAiRAAiRAAhRCuAZIgARIgARIgARIgARIgARIgARIgAQchgCFEIcxNSdKAiRAAiRAAiRAAiRAAiRAAiRAAiRAIYRrgARIgARIgARIgARIgARIgARIgARIwGEIUAhxGFNzoiRAAiRAAiRAAiRAAiRAAiRAAiRAAhRCuAZIgARIgARIgARIgARIgARIgARIgAQchgCFEIcxNSdKAiRAAiRAAiRAAiRAAiRAAiRAAiRAIYRrgAQcmEBIaAgCAwKRlZWFs2fPIj4+3oFpcOokQAIkQAIkQAIkQAIkQAKOQIBCiCNYmXMkARMEps+Yhnbt2uV8mpycjD279+Djj+dTFOGqIQESIAESIAESIAESIAESKJMEKISUSbNyUiRgGQFDIUSuys7Oxvbt2zF92gzLGmEtEiABEiABEiABEiABEiABErAjAhRC7MhYHCoJFBUBPz8//OORf+Chfv3g6eWJuLg4TJs2HSeiThRVl2yXBEiABEiABEiABEiABEiABEqEAIWQEsHOTkmgdBJ4a85sREREQI7IvPnGm9i1a3fpHChHRQIkQAIkQAIkQAIkQAIkQAIFJEAhpIDgeBkJlEUCo18ejd69H0B6ejoWfvY5VqxYURanyTmRAAmQAAmQAAmQAAmQAAk4MAEKIQ5sfE6dBAwJPDf8OQwY8AiFEC4NEiABEiABEiABEiABEiCBMkuAQkiZNS0nRgLWE6AQYj0zXkECJEACJEACJEACJEACJGBfBCiE2Je9OFoSKFICFEKKFC8bJwESIAESIAESIAESIAESKAUEKISUAiNwCCRQWghQCCktluA4SIAESIAESIAESIAESIAEiooAhZCiIst2ScAOCWhCSFZWFr5Z9g0WLVpsh7PgkEmABEiABEiABEiABEiABEjANAEKIVwdJEACOQQef/xxPPmvf8LV1RXnzp3Dq/8Zh/j4eBIiARIgARIgARIgARIgARIggTJDgEJImTElJ0IChScQEhqCGTOmo2rVqqqxmzdvYdu2rdizew/u3k3H2bNnKYwUHjNbIAESIAESIAESIAESIAESKEECFEJKED67JoHSSOCeFvfg6aeHoVatWnBxcckZYnp6OhZ+9jlWrFhRGofNMZEACZAACZAACZAACZAACZCARQQohFiEiZVIwHEIdO/eDcOGDUNAYACcnJwohDiO6TlTEiABEiABEiABEiABEnAIAhRCHMLMnCQJWEagTt066mhMYGAgsrOzcfLkKXz//ffYvWs3UlJSLGuEtUiABEiABEiABEiABEiABEigFBOgEFKKjcOhkUBxE9AHSz1x4iQmT5rMmCDFbQT2RwIkQAIkQAIkQAIkQAIkUKQEKIQUKV42TgL2RUBLn5uRkYElX32NZcuW2dcEOFoSIAESIAESIAESIAESIAESyIcAhRAuERIggRwCmhDCwKhcFCRAAiRAAiRAAiRAAiRAAmWVAIWQsmpZzosECkCAQkgBoPESEiABEiABEiABEiABEiABuyJAIcSuzMXBkkDREqAQUrR82ToJkAAJkAAJkAAJkAAJkEDJE6AQUvI24AhIoNQQoBBSakzBgZAACZAACZAACZAACZAACRQRAQohRQSWzZKAPRIYP34cunbrCsYIsUfrccwkQAIkQAIkQAIkQAIkQAKWEKAQYgkl1iEBByHw3vtz0ahRI9y5cwczX5+Fffv2OcjMOU0SIAESIAESIAESIAESIAFHIUAhxFEszXmSgBECIaEhCAwIhKenBzp37oz297aHm5sbrl69hkmTJuH8ufPkRgIkQAIkQAIkQAIkQAIkQAJligCFkDJlTk6GBKwjMH3GNLRr1y7XRZmZmVi58lfM/3i+dY2xNgmQAAmQAAmQAAmQAAmQAAnYAQEKIXZgJA6RBIqKgF4ISUtLw/Xr17F61WqsWPETRBBhIQESIAESIAESIAESIAESIIGyRoBCSFmzKOdDAiRAAiRAAiRAAiRAAiRAAiRAAiRgkgCFEC4OEiABEiABEiABEiABEiABEiABEiABhyFAIcRhTM2JkgAJkAAJkAAJkAAJkAAJkAAJkAAJUAjhGiABEiABEiABEiABEiABEiABEiABEnAYAhRCHMbUnCgJkAAJkAAJkAAJkAAJkAAJkAAJkACFEK4BEiABEiABEiABEiABEiABEiABEiABhyFAIcRhTM2JkgAJkAAJkAAJkAAJkAAJkAAJkAAJUAjhGiABEiABEiABEiABEiABEiABEiABEnAYAhRCHMbUnCgJkAAJkAAJkAAJkAAJkAAJkAAJkACFEK4BEiABEiABEiABEiABEiABEiABEiABhyFAIcRhTM2JkoDjEqhXrx4qVKiAtLQ0REZGIjMz03FhcOYkQAIkQAIkQAIkQAIk4OAEKIQ4+AJwtOl7enqiXng9uLq44vbt2zh58qSjIXCY+T72+GPo17cvAgID4OTkpOZ99eo1TJo0CefPnXcYDpwoCZAACZAACZAACZAACZBAbgIUQrgiHIpAixYtMGnyRHh7e6t5i2dAbGwsln69FOvXb7AbFh9MaYv72lbNM96kO+l45c3d2LH/mt3MpSgG+tBD/fDMs8/A3d09V/MUQoqCNtskARIgARIgARIgARIgAfsiQCHEvuzF0RaSgKEQojWXkJCAd95+B7t27S5kD8VzOYUQ85zfmjMbERERyMrKwt69e7Fo0WJEn4ouHuOwFxIgARIgARIgARIgARIggVJNgEJIqTYPB1eUBGSjPGzYUITXD1fdrF79G95/7/2i7NJmbdcO8UFQgEdOe0MeqYt2EUGgRwjg4uKCj+d/hFq1aiEuLg7Tpk3HiagTNmPPhkiABEiABEiABEiABEiABOybAIUQ+7YfR19IAp07d8KYMWPg6eWpvEEmT5pcyBZL5nLNQ4RCCBASGoKZM2eicuUgxgQpmeXIXkmABEiABEiABEiABEigVBOgEFKqzcPBFTUB8QaZNm0qAgICEB0djZEjni/qLoukfQohf2OlEFIkS4yNkgAJkAAJkAAJkAAJkECZIUAhpMyYkhMpCAH9pplCSEEIlr5rKISUPptwRCRAAiRAAiRAAiRAAiRQmghQCClN1qeGifcAACAASURBVOBYip1ASQshzRv446lH66Flk0CU93KDZHlNu5uJCzF38PVP0fhprWVpXgvjEVK9iheee6w+OrWuAt8K5eDi8leq2dS0TMRcTca2vbH48vtTuBmfZtI+Xp6ueKxvLTzcIwTVK3vB1dUZWdnZiE+4i92HrmPe4mO4HJtcLPalEFIsmNkJCZAACZAACZAACZAACdgtAQohdms6DtwWBEpSCHl5WGM88VBtlHNzNjoVERI27bii0uFmZmabnW5BhRARYGaObYGqQV5m2//qx1N4d+FRo3Ua1PHDrLEtIAFcTRURUWZ+fBAb/oyxhdnMtqG36eXLlzF+3HgVK4SFBEiABEiABEiABEiABEiABIQAhRCuA4cmUFJCyCvPNsET/Wor7wsJcLp+ewzW/xmDjIwstG5aCb061YB4aogAsnzVGcz+72GbCyHS9+ezOyKiUQCys4FT5xLw26ZLiDwdr/q6p1EgOrWujLqhvlj6c7RRIUTEj3lT26JGFW/lAXLqbCJ++P0cLsQkwd/PHQ90qoE2EUFK7BGPkLFv7EJk9F/tF1UpK3FfiooP2yUBEiABEiABEiABEiABRydAIcTRV4CDz78kvAdaNa2EOeNbKaHAlDggn82f0R7ibXEtLgUvTd9pVkAoiEfIPY0DMHdiG1T0dUf0+UQ8O2Gb0eMvMl4PDxds3R2bZ7W8+WpLPNC5JrKyTAs2//pHXbw4pCHcXJ3x/W9nMfOjg0W66gYOGoinnhoCV1dXHDhwAONeHV+k/bFxEiABEiABEiABEiABEiAB+yJAIcS+7MXR2piAj48P3p37LkJCgpGRkYGvl3yN//1vmY17yd3cpBeaY8ADYUjPyML7XxzF0p9PG+3vmUHhGDG4PpydnbDw25P4eMlxk+MqiBDS7p4gvDOhNcp7u2HTzisYNWOnVfMWkUa8QYICPHHs1C2MnLwd8Yl387Th51MOX87phFrBFZSnyHOv/Ykr12wTL8TFxQUNGjSAu7s7XF1d0KZtW0hK5AoVKiA9PR0LP/scK1assGperEwCJEACJEACJEACJEACJFC2CVAIKdv25ewsIDB8+HN4uP/DkE21iCEnTpzAurXrVFyJ27dv4+TJkxa0YlkVOY6y7IMuCK/liyvXk/Hi1B04dS7R6MV6oUJia4yZtcumQojeI0TG8vLr1h1bebJ/Hbz0VCN17OV/P5/GWwtMH9/RhJrEpHS88sYu7Dp43TJg+dTSe/RoVbOzs3Hz5k38/PMv+GbZNzbph42QAAmQAAmQAAmQAAmQAAmUHQIUQsqOLTmTAhIQAWT4v4ejW7euypNAX2ydUrduqA8+nN4OVSuZD05qOJX8PDYK4hGijxEi/SWnZGDf0Rv4Y8cVbN9/LV+vjXHDm6pgr9YUiYciwV937LdN8FJjQoiMJy0tDWvXrsP8j+cjMzPTmiGyLgmQAAmQAAmQAAmQAAmQQBknQCGkjBuY08ufgJ+fH0aNfgmtW7eGm5tbkQohei+P/Ef2d42iEEKkdTne8vqYFqgT4qNS9+qLpPE9evIWPvvmhFHhQhNfrJmHrYUQfd+enp7o0rUL/jl4MAIrBSoB5Ntvl2PRl4usGSLrkgAJkAAJkAAJkAAJkAAJlHECFELKuIE5vfwJvDTqJfTp0xtOTk64c+eOOhazavVqnD93Pv+LrayhF0JOn0/E258dsaiFa3GpkPqmSkE8QrS2xDNEAp4+2LUmaodUQICfh8pmo5WU1Ex89NVxfP1TdK7utT7vpmdhyYpo7Dmc/3GXjIxsFU9EvE+KqvTu/QBGjByh4oYcO3YML48eU1RdsV0SIAESIAESIAESIAESIAE7JEAhxA6NxiHbjoA+WKocp1i0aDF++P4H23Vg0JL+aMyZC7cx9NUtRgOMWjuAwgghhn15ebqi93018GT/ugipXl55ipy9eBsjJm/PdVxGOxojKX8/WRqFhd+esHbYRVI/LCwMr8+cgaCgINj6aFORDJiNkgAJkAAJkAAJkAAJkAAJFCsBCiHFipudlTYC+hgT589fwNgxY5GYaNrzorDj1wdLlQwrr87ebZPAobYUQrQ56lP4GjvSog+WumbLJbw6e09h8djk+pJIiWyTgbMREiABEiABEiABEiABEiCBYiFAIaRYMLOT0kpAv2kuLu8BLX2uMFmx9hymf3Cg0Hje+E9L9OlSE6lpmXhz/iH8tM42x3rMCSz69LnX41JVNpiDkTcLPZfCNqC3qWT+mTRpUpEccyrsOHk9CZAACZAACZAACZAACZBAyRCgEFIy3NlrKSFQEkJIq6aVMGd8K4jHhXhafLj4OL759YxRIs0b+OOf/evg6xXRZkWG559siGcG1VNxTiwVVzq3qYLawT6qb2MxO6pX8cL8GfcitEZ53EpIU+l79x+NyzXON19tqeKLSJGMM/95czduxqflmYsctxnyj7oo7+2Ktz+1LC5KQZcIhZCCkuN1JEACJEACJEACJEACJOAYBCiEOIadOUsTBEpCCJGhjP93UwzsU0sFJZUYG5Kd5Zf1FxBzLRkiGnRoWRmtm1VCtcpeSE7OyDflrN47Q7K9/LzuAjbuiMmZ9blLSXnS4Q5+qDZGD2us+pcApnsO38DhqL88Olo3rYS+3YJRKcBD/X37vqsqRohhkX7ffa0NRDSRcuNWKtb/GYNte6+qdiUbjQgujepWVPPKL/uNLRYqhRBbUGQbJEACJEACJEACJEACJFB2CVAIKbu25cwsIFBSQogMTUSIJ/rVgns5F7MjTUxKV8dOdh00n5Vl7DPSXm24ujrnae+rH0/h3YVHc/27JoSUc8tbX6uYnQ1EnY7Ha2/vxZmLt42O01wKXsMLNvwZozxLirJQCClKumybBEiABEiABEiABEiABOyfAIUQ+7chZ1AIAo2bNMbUqVPg6+tbIhlGwmv54t9P1EfzhgHwrVBOeYiI+JCSmoHLV5OxdXcslq8+m8ebw9SUH+4ZotoLCvDMlQLXmBAiHho9O1THfe2qolFdP9W/JsqIV8nVG6lY/cdFLP7xVL7pbmXcgx+qg37dg1Gzqjc83P8Sd8QrJCEpXXma/LrhAv7YeQWZmdmFsJhll87/5GPUqVMHCQkJeGPWmzhwoPBxWCzrmbVIgARIgARIgARIgARIgARKOwEKIaXdQhxfkRLo1asnXnjxBbi7u2PHjh2YOmVakfbHxouHwPQZ09CuXTtkZ2crgWvVr6sggVMlRXJkZCQyMzOLZyDshQRIgARIgARIgARIgARIoNQRoBBS6kzCARUlAU9PT9QLrwdXF1fUqVMb9z9wP6pXr642zD/+8CMWLPi0KLtn28VEoEOHezH65dHw8fHJ1SOzyBSTAdgNCZAACZAACZAACZAACZRiAhRCSrFxODTbE2jRogUmTZ4Ib2/vXI3HxsZixozXEX0q2vadssUSISC2fmLw46hVqxa8vLxURh0KISViCnZKAiRAAiRAAiRAAiRAAqWKAIWQUmUODqaoCeiFEDkekZycjCNHjuKrxV/hzBnjKWyLekxsnwRIgARIgARIgARIgARIgARIoPgIUAgpPtbsiQRIgARIgARIgARIgARIgARIgARIoIQJUAgpYQOwexIgARIgARIgARIgARIgARIgARIggeIjQCGk+FizJxIgARIgARIgARIgARIgARIgARIggRImQCGkhA3A7kmABEiABEiABEiABEiABEiABEiABIqPAIWQ4mPNnkiABEiABEiABEiABEiABEiABEiABEqYAIWQEjYAuycBEiABEiABEiABEiABEiABEiABEig+AhRCio81eyIBEiABEiABEiABEiABEiABEiABEihhAhRCStgA7J4ESIAESIAESIAESIAESIAESIAESKD4CFAIKT7W7IkESIAESIAESIAESIAESIAESIAESKCECVAIKWEDsHsSIAESIAESIAESIAESIAESIAESIIHiI0AhpPhYsycSIAFLCTg5w9nFBVkZ6ZZeUah65YProtkr78GtvC+ubl+DyIUzC9WednFIaAhmzpyJoKBK+P333/He3Pdt0q69NuIEJzg5OSMrO7NEpuBfPgjP3z8TPp7+iLl1DgvWTUNyWlKJjIWdOgaBNnW6YUC7EWqy3+/4BLuiN9jFxB8cVgud+tdARnoWVi86i22/XLZ63LZow+pOS8kFL1apjj5+/nlGsyfpNmbFXEBqVla+I7VFG/l2wgo2J9Cv1VB0rN8HdzPSsHjzHJyMOWTzPthg0RMo6ecVDzcv/LvndFT3D8Pt1Hh8/PskxN2OLfqJl9IeXnzpRfTp0xs3btzAtGnTEX0q2iYjpRBiE4xshARIwBYERIgI7j0YQW264/Ty+bi2a70tms23jaISQsZPGI8uXe7DtWvXMWnSJJw/dz7fsZTFCu5unmhfrxfa1O2OH3d/VmIPhgEVqighpIKHH4WQsrjQSuGcKIQUTkwphSa1aEi2EDFs0YZFg2UlmxKgEGJTnMXeWGl5XvFyL4/hPaahWsVQCiEA9C8W//hjE2a/Odsma4NCiE0wshESIAFbEAju/U/UGjAcWXfTEPXlbLsWQiIiIvDaxAnw8fHBqlWrMe+DebZAZJdtaJvBkn5DRo8Qu1w+dj1oCiGOKYR4OTvD3dk5Z+0Oq1QFPXwrwhqPEFu0Ydc3j50OnkKInRru/4ddWp5X6BGSdx29NOol5RWSlJSEd95+Fzt27Cj0YqMQUmiEbIAESMBWBMqSEDJx4mvofF9nJCQk4I1Zb+LAgQO2wmR37ZSWBwu7A8cB2z0BCiGOKYQYLlzNu8MaIaQo2rD7G8oOJkAhxA6MZGaIfF4pvfYLrx+OadOmIiAgAJs3bcasWW8UerAUQgqNkA2QAAnYikBZEULq1K2DGTOmIzAwEHv37sVrEybaCpFdtsMHC7s0GwdtAwIUQiiEyDKiEGKDm8lOmqAQYieGMjFMPq+Ubvu98eYstGzZErdu3cL06TNw/NjxQg2YQkih8PFiEiABWxIoK0LIsKeHYeDAR5GVlYVFixZj+bfLbYnJ7trig4XdmYwDthEBCiEUQiiE2OhmspNmKITYiaEohNilofr3749nnn0aLi4uWL78O3zx+ReFmgeFkELh48UkYL8ENNHhbkIcDs4ZBY+Ayqg98Hl4VQuBk7MLMlLuIP7EAUQvfR+pcVdNTrR8jdqo3n0AKjZsgXI+/nAu567qSpyPpMtnELPhR8TuWAtk542Sr43BUorpSQk49M7LSLpwyuQl/k3aoOb9T6BCcF24epUHnJxU9pmUq5cQ88dPuLJlZZ5sNIbBUk8segshff+Fqp37oVyFiqqvu7dv4crmX3B+5Vf5ZrN57/25aNSoEeLi4lR06xNRJyydYk49CdjVtm4PtK7TFf7lK8PVxQ3Z2dlISk3A8cv7sO7Qt0hIvmmyXS3gV9t6PeHrFQAXZxdkZmXiRmIMNkeuxL7Tm01mb9Ee5LTMKuU9fNHnnidRr2ozNY6MzHScvHIIq/YvwbWEvNkk9Js/SyZuKiK6s5MLQoPC0T78foRWqg8Zh8xD4xAVcwAbjvxgNpK6PkCqfiyWZo3RXy9ZP/ac3oT24b3QuWE/xVVKQnIcNh//BdtPrDGbEUei0IdUqoduTQYgrHIDuLt65LLpbweW4k5qoklk+uBp0t+v+76CjK9Xs0FoUKMlPNw8c9rbf3YL1h3+DmnpKZaYoFjqSIyWET1nwM87EFGXD+CLjW8gG9lG+5b1O7zHVNQMqIOLcdFYsG56zlxsbZPw6hHo3nQAqvgF57LJwXPbsOHoj2ZtIoMP8q2u7o/aVRqr6/X3R1il+hZljSns2rC1AW2R8cUWbVg7rxbeFTCrZigu3k3DqxfOqOwsj/gH4gE/fwS4uiEtKwu779zGoutXcflumtHmtTYSMzMw/sJZnElLzVOvlrsHZgeHwcfFFRMvnsO+O7fNDtVRPULCgupjWNeJ6rtpa9Qq/LLnS9O/3brvhyMXdmLJ5ndzvh+03xTttyI1PRl9WwxBo5qtVdvy23b55hms3LsI566b/70tzG+jNvjQSuF4sOUQVK8Ypn4TU9NTcOzibqzctxjdmjxiUdYYz3LeaFevF9rW7Q4/70pwcnJS3x1X4s/jj6M/4eiFXSa/H629L4q6vnx/yfdo54Z9USOgNiS+hZS0jFRcvHFK/RadvRpp9vteAqo7+vOK/jdebzNLs8bY8rdR+vf18lfPOs1DO6jnL1mjmk3XHPzG7L1WVM8r+uMxx49HYuyYscjMLHgmQgohRf3twPZJoJQS0EQIERcurfsO8ncXd488o72beBPHPp6EhFNH8nwm2V3qDx2fI34YnWp2Nm5FHcDxT6ZA+tIXWwohLu6eCH9qHCq17qJStJoqV7auwokvc0eb1gsh13ZtgJtPRVSsH6FElFwlOxuxO9Yg6vM3jQo7Ulf/JX3y5Em88PyLVq8A2Sz/s+MYtWE0VRJTbqp0ajeTruWpUsmnGoZ2GQ/501Q5c/UYlmyZq4QVw6IJIdcTY7D+yPd4uNXTkIc2wyICwMINsxAbfyHXR7YSQrRxmAMoD46/7l+C7VG/GX3IsqUQ8vuB/6FGYB00qtFKPRDoi4gz26JWYeXexUbHIQ/Lj7YbiYjQDnmu1dpJuXsHS7e+hxMxB41OWf9gIZuKE5cPYHDHl43axtIHJ6sXZyEukIflJzuPRZPgtoi/cwOfrJ1idP1KF/oNlIgRwl4repsWtU3k/li69X1Ex+b9/lP3e7XmJm0g98f+s1vRpdHDauim0ufaYm0UwixGL7WFiGGLNqydlyZiXEm/i3diLuG5ylUQ7vHXpkxf4jLSMeXSeZxOzSsUUgixlrrp+uYETcOrWtTqjIHtR6p/Xr59Pvad2ZxTRftNSU67jR93L0SfiMGoWD4oT8ciSCzdOlcJrcZKYX8bpU0Rwvu2eEoJIIbl8s2z6vdQ5mIuOHidKk0wuONotbk0VuT35NilPer3QH7jSnORZ4MnOoxW34WGv4vauGU+y3fMx97Tf+SZSmFtUpaeV2wphBTmt1GM1KpOV/XsV871r5ebhkVsuiVyJVbtW2L0macon1c++vhD1KtXT8Xgk+MxR48cLfAtQiGkwOh4IQnYNwFNhMgWT43sbGSlpytviWs718HFq7wSRvzqyw+bM5KvnMeht0cjLf5GrkmLEBI+dBwyU5Nx6/g+XN+zMcd7RMSFGj0ehXiMiKBwdedaRH42K5eA4ObtA/eAyjltVm7bAzXvfxxZ6Xdx5ocFiI/K/TCTnZWJlNiLeT0ynJzRZNRsBDRpq/oSwUVS717bvQGZaanK26Va1/7wC4/A9d0bEblwZq556IWQuwk3lSeJ9H1x7bfITE5CULueqNaprxJ8Mu7cxtEPJyD+5CGjC6Bvv74YPvw5lCtXDhs3bMTs2W9ZtVBEBBnWZQK83Cuot/unrhzGnyd+w9WES3B2cka9as3RoX5vuLt5GM0rLw+ez3abrDwP5PrzN07i94PL1MazWsUQPBAxOEcgOXpxt9EHLb1r792MVKRnpGHjsRU4deWIEmd6RwxGcGBdNa9dp9bj+53/zTVHeSte3tMv59+aBrdF73v+qdr5Ydened4iZGVnIeFOXB5vChlH+3r348qtczh0frt6uE3PvKs4NKh+Dzo36gcfT3/1wLlky7uIurw/D2vxKvH1DlDXSBnYbgRqVW5kcfpc/aZbGHp7+OD4xT3YdPwX5aHQPPRe3NfoYfWwIN4cC9ZPx5VbudMkywOzCBaNa7ZWNpGH5Y1Hf0DMrfNwcymHpiFtcW/4A8rmpsQlGbv+weJU7BH4eQWgoncl7Du7BTtProUIKT6efmo8NQJqYf6aKWa9ZaxamDaqHBHWEY/d+4JqzXCzo+/i/ogn0K3xP9Sb1i82zsLZa1E5H9vCJtJYz2aD0L3JAPXwLsKieBediDmkhCV5q6sJXmL3T9fPgAiD+iIP8M91n6LuCdms7D29Sd2rUsSeLWvfB2dnZ8galGJMCLHV2rCReXKasYWIYYs2rJ2XJmKkZGXhavpdlblFvD+OJCfB3ckZD/kHoF/FADjDCWvib2He1cvIzM7tlUQhxFrq5uv3bDYQPZoONHova1fmJ5JqQojcZ8l3b8PV2Q2bj6+EeI7Ib554dDWs3lLdy/LdKN5mhgKCLX4b61Zpgn/d96ryQpHv/03Hfla/TdK29p2RjSx1z5sSQgzb2B29AbujN6rftsq+NdChQR/UqdxYoTEnrtvWSgVrTeb9dNfXEBbUQDVw43YstkWtxsmYg5DfdZmPfBfWrdoUP+z8L3ZFb8j9rMDnlVw85D7w8fLPEdnkN1AECUtfbNjqt7FN3e7o3/pZ5YErfW+LXK3uNbGpeEN1atAX1fxDlSfWL3u/xPYTv+dZQEX5vDJ+/Dh07dYV6enp+PzzL/DjDz8WbAEDoBBSYHS8kATsm4DeG0OOsZz86h3Ebtd9mclm89mJqNy2pxJKzq/6Gmd//DTXpEVA0EQDYzTES6PpmHfgW7epEicOz30Ft8/9vaExvKagMUJEcKk96Hl1pCc59gKOfDBOHYUxLL71msG3ThNcWP11nnk0e+U9uJX3VXM15vVR69ERCL7/cSW0XFi9FGe+z7351xp8bvhzGDDgEbXh/W75d1i48HOLF4r+QU1+YFbt+0o9VBgeH5CHrHvD78eRi7uUwKEv2ls1qSNvlL7eMjfXA6G8gXqm2yRU9w9TD14iIERe2perDb0nhrGNubhLSn572QjK5lDe7N9OiTc5z4LGCKlVuaESgEwdF6nqF4xnuk9SYkh+Ry20wcnc5c1VQY7GmPL6uK/RQ+gd8U/1EC7HVeTYir7cE9YRA9u/oMQYUw+2+rkYE5ekPf2DhTyQCJevtryDczqRQOu3asUQJaokpyVZvP6Ko6KIBiN7va4EHEP3d63//N4i6x/2CmoT/TEdY2tcHkj7thyCDvX7KLsas8mAtv+GPDBmZWfi171fKdd/fZEjXf1aDlUPk1KMCSG2Whu2tp0tRAxbtGHtvDQRQ64z5vXh6uSEUVWqq1S24jUy7sIZXEvP/cadQoi11M3XF1H+6a4TlcBo6N2lXam/H419L+i9DI15fYigKN/ttSs3gniNyFE6+Y635W+j9DGs62sQIcOY+G74nWFMCNH/xpsSvaWdh1oNxb31e5sU121roYK3pheT5Tli6bb3jR7HrF/9HgDZeTx1+Lxi/GioZhHtWawgQkhBfxvF02pEj2nK40pe2izcMDOP57DcC0M6v4r61SNwLeESPlk7NU+donxeeeqpIXjs8cfUi4afVvyE+fM/KfAiphBSYHS8kATsm4BeCLl1bA8OzX0lz3GPCqH1lZAhAsHtcydwcPYLyLyb97y0ORI1ug9A7cdeRHZmBk58+ZbyDDFVCiKEuJTzQLNXP4BPrYbK+yPy0+m4cWCbVcbRe4SkxsUq75eUa7ljX/iENUDTMe/C1bsCbh7bjcPvjjXax/QZ09CuXTulVC/87HOsWLHC4rE0qNECT3Yaq7wETG0SzTUmD1DyoCY/TsbepGvXNg5ug8EdRqu3DsY2eHohxNjGXtrp3/oZFbtDvBA+3zgL56+fNDm0ggohloATXk1D2il3ZPkxlodgc6UwQogp0UcEoed7zVTeIofP71Diklb0D8/5iS+D2j+PlrW74Nad65i/ZnIekUv/YCEPOasPfK3eSNpb0Wxm6nhMfhun/2vvTuCkKO/8j/9mAGFADkVBBblE8AirBGOiSSTx1kTjRmPWv7sxMVlRYxQxCioqIAjixe0RE+/oJhp1XXG9NvFEMEaNRwSRQ0HBgwAKyDEz/9fvqarup6qruqu7q2f6+HQMMDN1PM+7numu/vZz2EFIIddEvTTAOPHrI0zIEfXmrHNDNzOniV7f4M1etp9518MOdPR7wSAkybaRdBtIIsRI4hj51ssOQu74ZLXc+1nm0MEDt+8sE3r3ky3NzXLpB0vljY0b/G+Y3XlGmCMkX/3w7bWH4BlHXGF6EQbn+/H2yNVTzA5CdHjFf704O+NkOmRFP8XWYPK+F2bJq0ufS22TxGvjbjv0M/MWac+9qF4ndqATFoR4r/Eajj788u/MvFJhD/tcT/79D/LE6+U34bp+qHLWkeOlR9feOYc6htUxiWuix63m+5VigpBCXxsP2fv78v1hp5kPyu54Zqos+jC897N3H6lhRPD3Ta9LKe9XvAlT27VrJ/PmzZMrLh9X8JMVQUjBdOyIQGUL2EHIsod+K8v++/aMCmnIsP+YWdK532DxJlXVYTJRj/q27aRhl91Nzwzv0W2voTLgxBFS3247WXL/zRm9MexjFRKE6NCb/S6cJu06dys4rLGDEJ0L5dXJzjhl+9G+206y30UzpOMuu5v5UsK20e2vnjpFhg4dKps3b5ZZM2fJ449HBz/Bc3x/2E/MxFTapVc/WdHJ0vJ52J+2v//pu3KLTjC5LTO4yrVdnFnv8wk38tk2W32DQ25023y7jhYThOjcHfrpSPBhv+AHt7FDEu0++uCCWyOr6Dlpl+vb/nK1vLfKP+7VPo/2wNGeOMHhGvm0l9baNtebnlxd6e0gpJBrovX2wphcQV7UdnZYE/XGTM/jBYb672AQkmTbSPpaJhFiJHGMfOtlByFRk5jmmuiUHiH5qufePtfvdK5wNM7qS4N22898Sq3DFIO/a7le81L3K1aPteBrqPe8pb0toz4g0Df32ktRJxYPC0K85wPtzTf78bGRz9/2c732tPjdnyfnRm7hLXRy6J99Z7QZFpTtOTCqWElcEz12Nd+vFBOEFPLaaLffXB8u2a/D3uTt9rUu5f3K179+oFx8ycXSsWNHKXQuPq+sBCEt/MTB6RAoF4G4ocPeZ1wuOneHzgPy9k3j5LO/z/NVQXuL9D/xDNl52HDROT8yJhi1ti5FEGJP2Lr6xccz5v+I4x1cNSY4fPo60AAAIABJREFUh4geI24QMufG2TJw4EDZsGGDTLxykrzyin/YSbbyeG/S43aDDB7LfmMV9SJo6mJ9QhfW+yDOi28+4UY+2wbrFFyRI8ovrlkxQUjUqgfZgpDBuw2V04b/WtpFTDgWVp+oseX2ebIFXXHafGtuY/emCPZ8sttmVB3tG7BCrol9s5er3Xhv4IKfMtu9qqLeFKlxtjdwSbaNpK9nEiFGEsfIt15JhBhJHCNY7lpdNcZzsHs4BHtg2W+Igz3qvP3jvIZkC0KSeG3UDyn0w4pcH1REvTG3n3fyadfZXsvzOU7S28YJp7KdM4lrYgch2Z7L47SffNpaVL2Svl+Jcy9ml6XY10bt7aS9fHQFtXweYa/DpbxfGTZsmIy97FLp1KmTLF68WM4+65f5FNe3LUFIwXTsiEBlC8QOQn4xVnoefJRZDved26aYSUi9hw4X2efsCdKh+y6xMEodhET1bMlVuHILQnIl8VH1sW8Ecy1VmC10ifPi2xI3FrlmLbcdcr2h9bZt6SAk3xV0tJxxgpByvTnO9bvm/dwbBhQcHmP3tIjqEl78zd72Zo4bfXOWa7hS1M1+3DcB2bZLsm3EdY+7XRIhRhLHiFteb7skQowkjhEsd60HIToMTCfx1nmfgsNj7B5iYV3s1TLO6022ICSJ18Y4PQ/sN+bB5/GoFUFytfFyfa73rolOgn7HM9fKwg/DV+rhfiVTIO79Spx7sSSDkKhV9nK10VxBSNJtmCAk1xXh5wggkFOg2CDEnptDJxhdv/Qf8sFjv5c1by6Qxs3pJQntHhulCEJ0MldduUaH3pRDEFLoHCH5dEmshRsLnexzxOFXmHk39IZSZ9Z/4Z3HzCoo9uSx+d4otGYQMvdvd8vf338p5++mruS0ftM/M1Y9yNbzJOdBy2wDe3yxvXqM1wMj25CVagxCim0bSV/eJEKMJI6Rb72SCDGSOAZBSOaV83pUBOev8obFRM2NVI1BiM459PvnZ8iXWzfmbOJbtn5pVu4ot4c3JwtBiEip7lfyvb8p9rXR3n/J6rfkD/PiTUK6acsXGROzl/J+5aijjpRzfnWOtG/fXubPXyCXjb2s4F+P/HqE6Jy/7jJj5m/zn/7RLDfPuKbgQrAjAgi0vEAqCNm6JeskplFDY7r/y0Gyz5njpE2HjvLJK8/IW3Muz5hsVWu16/DjZM9TzxedP6QUQUi5DY0pZlmv1hgaEzahVpwX3zif0HmtOp9tvX28N8Q6Yde9z0+XNyLmS/F6FsT9hKWlgxB7+EO2IRRxngFKeWMR5/xJbhM2PEbH9nuTKmYb+lPszV4hQ2OC3eGTHhpTbNtI8trosZIIMZI4Rr71SiLESOIYBCGZVy5seEycYTFJBCGFDMMIvjYmOTQmzmpr+bb9lt4+bq+4qHIlcU302NV8vxKnbrZvsa+N9tCYJavflt88fWXGBzJx21kp71fsyVKff/4FmTB+QtxiZWwXGYTU6Z2CmOH+deOmzmjWsEMX+SEIKdiaHREoK4FiJ0vd/ehTZI8fnSVNjdvk3XtukI+eeSS0fgNOOlP6HHuq+VkpgpCkJ0uNmmck7hwhp5xyivzHT/5d2rZtm/eyXuU2WWprjrk9/bsXi86wn+2G0e5uXa5BiH2zV8hKQPYvVSlvLFrjySk4PEbDEW+ZzWzBQLE3e1rXcpsstdi2kfT1SyLESOIY+dYriRAjfYxGufiDJfLel5kTTu/faXu5avd+Ui91EjUpq132Wh8aoxZhw2P26X2A/Ns3z5GmpqasE4THCdMrabLUbKu65dvmW2v7cpsstRrvV1o6CLE/JIha1S1ueyvl/coZI86Qk0460Txv3HfvfXL77XfELRZBSMFS7IhAlQkUu3xuqkfJtq2RQYhOpLr/6JnSqVf/WEGIF65o4PrefTNlxVP351RPevncYoMQezbrV199VUZfNCZnHbwNWmP53LDZ3uO8+Ma5MfXqpUvCnnzQ2dIsTaHLrIUBeT03sgUh/XvsJacfeql0aNdgug7P/t+xZuhMtof35nv9pjVm+zVfZC6vae9f7Jtue4nUDZs/l988daWsXLMkdpsoZRBy/PHHy2k//YmZef2NN96QqyZNlrVrW64Ltr2UpM4NsHOXXeWIfznZLIF885PjzfwdYY9ir4keM9/lc4Pt0F46Mri0rlfmfJbPLbZtFNSgsuyURIiRxDHyrVcSQcgeHTrI5N0HSJc2beTyFctkwReZS3Kf0r2HnLZzT1O8OEHI6TvvIid331kWfbnJLNn7eWNjvlWTYo/RrVs3+fWFF4iOr9c3EE8/9bRMnz5DGgsoS96Fd3fwlubUISG67Pohex9nlj/P1UMizutNtiCkkKVag6+N9vCHYpfPbddmO3l58f/JH+fd6BvqWYhra13X1lg+t9buV7xeSFEryQXbSxKvjd7vqB577qt3y1/eeriQZulbPjfpOUKunHil6L32po2b5Prrr5dnnnm2oDLqTvQIKZiOHRGobAE7CNGJUBfdea2sevF/05Wqq5e9//NS0Tk4tEfY8kfvlqV/uiX1850P+I7s9YtLRYOI0KExdfWy188vll0OOiq1ksxHzz0qC2+bEglX6DCX3kf8SPb48S/Nsr0bV70vb0wfLZtWr8g4T4fuPaXb4KH+eopIkpOl9uzZQ6ZcPUV69eolK1eulDGjx8jq1dnfbNtvnHRCOZ0wsrGpUR595U55/p25GTdKelOnN30r1yyVL75c56vnsAHD5eSDzxZd4u+tFS/L3c9e7+vaqDcvGjL02rG/WSf+rmevE12ez34kHYTkM1GdVw6vd0zU0Bi7HrpP3BsFu3vzfS/MlNeXv5j1FzmJG4uv9v+2nHzwOdKmvo3ouNu7nr0+47ppIfS69u+5t+zR8yuiE4UGH0l+wtK3X1+ZOHGiaHvVRxKfrOT7jGjfSL+94q+iX/fZaU/J1SU3iWuy4/Y95KwjJ4h2zV+38TO59elJopMUew+9FscdcJp8a6/vSV1dncx/9ym5/6WbfFU86RtnmkBFV5T5n7/eKTphnP04ePDRcvwBPzPXXR/BJT31e0m1jXztc22fRIiRxDFylTP48ySCkB3btpVr+gyQXtu1lyfX/VOmr1op29xh4Xq+PTo0yITefaV723bm9HGCkCO67iAX7NpbvmhslLErlsk7m3LPDRGsW7HHOO7442TEiDNku+22M4fetGmTWeL9ySfTE6Dn653v9naYMG/RE7JXr6GyQ6edcy6/WmwQouUs9rXRDrV13ip97Xxn5d8inzPCJr3WcNR7jdefP/Tyb00gEvZo2K6TfHPwMaJvInWC2ahHa17XI/f7sRw+5CTzHKn3Efc8P828Fgcfu3brI23atJMVn73n+1Gx10QPVs33K/YQzMde/b3835t/yvorl8Rr4w762njEONG/9f7ynuemyeJVb4Set2vHHeVbex1r7lPXbVzj2ybJ+xX7wMXcY4dVgiAk32dxtkegSgRSQYgZ9tYsTVu2yEfPPiIfv/SktOm4vejPu+21v9TV1cvGj5bL69eMlM1rP03VXnt77HfhNNl+94Gikzuufec1eX/u3bL187UmWNBwQoet6LHNSLu6Ovn0b8/Jm7MuiRTsuGtf2f+i6bJd1+5mlZoPtTzznjDDb/TR3NQom1Z9IE3btvqPUVcvQ86bIt2HfMOcZ9umDfLx/Cdl9bwnpHHzl6IBSI8DD5fu+39TPn3lmYwldpMMQrRg3jwhhaTVGoLosBAdq6k9Y5Z9slD+8tZDsnrdCqmvq5cBPfaWbww6SvQFaPbjmT0g7Bst3X/5p4vkf1+7V7Sb42479JVjhp4qOlxDH29+sEDuee6GjDGgSd9Y2OPA9eZP6/PashekqbnJlEP/XrfhM/OG0nv0094e371Y9GZQb6z0UwkvtNi711dl+L7HS5eGHc0+GvrkWtLQO659I669Qh5++TYTKHmPLzatlc3b0l3hk7ix0Bvofz9klOzb+2vmNNp75aVFT8jfl79kwqguDd1kv37flCF9vm7qFPXpSZI3Fvas617d9VOVSRMntegznBcm6PWrr6831zLXfBlJXBOtpH0Tr23h6TcekIUfvm7a3GFDTjTXS2/w9XfnlqcmmE+t7Yf+Hp1x+OUmTNHy//W9v8gLCx8zm+gbmAP2+I7U17cxz396nLAgJKm2kfRFSyLESOIY+dYriSCkTV2dnNuzlxzVbQdpkmZ5at1a+eNnn8iGpkbZv+P28p89dpXNzU3StU1baaivjxWE9GjXTibv3t+EK8s2fykzVq2Uj7ZucZ//xBzbDlvC6l3sMYJvmPUc99//gNxyc/oDjny9893eDhO83/lcw2L0HEkEIUm8Nu65yxD5yXcuMr0Q7dclPbb3nKE9H/V5LGr1Lw1/Tv32KHMMfY1+96O/m+cN+zVeV9Lp12NvaWzaJnc8M1UWffh6JHVrXlet988PvUT699jblE+fK5/7x//IP1b+zbyuay+/r+1xqOgQqIcW3CrzFz/tq0cS16Sa71fsDwt0ONUTr90nb69Mf3AVnKQ0qddGO8TX31P9oOL5dx6V9ZvWivZm0ja8f79vym479JcvNq8L7Y2b5P2K3WiGDz9ERo0aJQ0dG+SZvzwjkyZdle/TkG/7ooMQM10qk6UWdRHYGYHWELBXjfnn23+VHb5yoJnQNPjYsn6NvDV7rKx7NzMR3mHfr8k+Z1wu7Tp3C62CBhcfz39aOvffSzru0kc+X7ZQXptyjjRuyRxz7R2g3w9+Jn2PO8307gg+tn6xTl6/9nz54v13M37Wpn2D7D3icum+38EmvIl6hA19SToIOeSQQ2TUBedLQ0ODPProXJkxfUZel3jgLkPklG/9yrwpjnpkGwqib9B+9t0xqcAj7BjZeiYkfWOh5w9+Om6XKaou39n3BDl6/1NSn6gH66GfVuhKMt/Z9weiN1S53kB7+2crS/DNalI3FvoGQN/0f7X/IeZNcbaHfrL2uz9PztgkyRuLcugRohW0h4Pp17mGxeg2SV6THx10tgzt963Ia5LrE7HBu+0vp377fBOeBB964/rCO3Pl23t/X3Qi2LAgRPdJom3k9QQTY+MkQowkjhGjqL5NkghC9ID92neQSbv3S/X6sE+ic4ZMX7VCLtxtd9l9u/axghDd/9huO8rZPXeTtoHf//WN22TM+0tlyebo10Xv/MUcQ4dQXHLpxTJkyBBp08btpdTCQYjWw+t67z0P5hoWo/skEYTocYp9bXRey46S44b91PzeBh/au+xvS5+T7+57QmQQovvEeY3X7eL0dGzt66pv1k/99kjTkzHba1vU81+x16Ta71fs4CzY3oLL1ib12qjn0SHNJ3ztdHNvle0RNcw4yfsV+/znnneufO97x8qWLVvkxjk3yty5zocPhT40CHHarX5gq5+lOvdn+nfWyVLN5Kk6eypBSKH27IdAqwoEl89t/HKjDDhxhHTcra8JIbRXxdqFr8rie6bJl5+tjiyr9rYYeOpIM+SkbUP6zcCWdWtk+SN3yMo/PyT7njVedCiNfu/v142SL1b4u0f6Dl5XL7sNP056HXaiNPTs7QtnsgUh3jF2HPJ12f3o/yed++wpbTtub3qIaA8SHSqjPURWPv2Ab3lf3S/pIERvMq+7/jrZZ5+9Zfny9+WCURfI+vXr87re+uLzjT2PkAMHHio7bt/T3HRp6KxvzN758FXTQ0LnJoh66P4HDzpKvjHoSOnasbsJE3S4zafrP5Rn/vGIvPLeM74eGPZxSnFjoS8p2s3zu185QXbt1td3E5kt1Om382D5/gGnSa8d+qf2UYclH78tf5p/i1my7awjx0uPrr0l7oSTXlmO3v/fZOcuvXw3b6UKQjxfHfpx6Fd+KFov7fWjL7Z6XfS6avfTeYselw8+fS/02iR9Y9Hac4SY370OXVPXT7+OGntvt88kb/a0LQzuNVQO/5eTZJdufaR92w6p37PXlj0vT7/5J9nwZfbf3R5de8n3vvofopMH6v76Cdqij16XR/92l7StbycjjrjCXOuoNwJJtI28nlxibJxEiJHEMWIU1bdJUkGIHnTXdtvJ6T12kQM7dZb29fXy2bat8tjaNfLAmk9lu7p6ubpPfxOYxBkaY26sRWSfhk7mmIM7NKQCkXyCkCSOoWWZNXumDBo0qMV7hBhXa2l0/Tps2FnwuicVhOhxi3lt9MoVfF3S0POtDxbII6/cYXpHnPqtkaZHRLbeHGGv8Xp8nT9Fw6FXljwrry97IXQYZdTvRWtdV+95dPg+x0nv7ntIh3YdTRG1d+UHn75rhk78Y4X2EgmfG6eYa1Lt9yvqqO3tuAN+Kr12HOD7YKiUQYiet1OHLibUG9LnG6n7SL3/0jaqc51pL8g335/v60Xrtc2k71f0uF26dDH31n379pElS5bKRRdelPe9dfB3xw5CnDyEICTf1122R6AiBYJByMfzW26ccEWC5Vnok398svz0p6eZieiSSK3zPD2bI4AAAgULJBFiJHGMgivAjpECA/ccKBMmjJfOnTubOUIef/wJtKpAgOtaBReRKmQVOPbYY+Sss88yPdp0pZg//FfmXGr5EuYdhOgaumYhXXqE5GvN9giUlQBBSGkvhybXV02eZD51e/vtf5heIS05O39pa8fRa01AeyR1adgh67CzMJOw+V9qza4S65tEiJHEMSrRrtzLfP6okXL00UfLyhUr5ZJLLpVVq7KvtFXu9aF8jgDXlZZQzQJ2T+tly5bJRReOTmSVu7AgxJnX0OnFpz1E6sZNneEMgtGxMAQh1dzOqFsNCRCElP5iH3OMptdnmhPdOOcmeeyx4sYylr7EnAGBcAF75Z98jOIua5zPMdm29AJJhBhJHKP0Na2dM+gbiV/84udy/A+ON6tE6SeqD9z/QO0AVGlNua5VemGplk/Au5/W4cS3/uZWefjh/05EKGsQ4g2TIQhJxJqDIFBWAgQhpb8ceoNy0kknyk4772yW0n3owYdKf1LOgEAJBAhCSoBaxodMIsRI4hhlTFRRRevdu7eMvexS6d+/v2zevFn++Mf75a4776qoOlDYTAGuK62iVgRO+NcTpFevXvLpJ5+YuY2S6mFNEFIrLYh6IhAQIAihSSCAAAIIhAkkEWIkcQyuTjICGspfe9010n679nLnnXfJSy+9lMyBOUqrCnBdW5Wfk1eBAEFIFVxEqoBAIQIEIYWosQ8CCCBQ/QJJhBhJHKP6pakhAggggEBrCSQThIjIzdOntlYdOC8CCCCAAAIIIIBAQgJJhBhJHCOh6nAYBBBAAAEEMgRGnHeRMymq1Dkr5+rkqN5kqTnnCNH9dPUYghCaFgIIIIAAAggggAACCCCAAAIIVIBAKggxAQhBSAVcMoqIAAIIIIAAAggggAACCCCAAAKFChCEFCrHfggggAACCCCAAAIIIIAAAgggUHECeQUhZhhMs4gZDOMOiWFoTMVdcwqMAAIIIIAAAggggAACCCCAQM0KRAUh3nwhClM3fupMJ/YgCKnZhkLFEUAAAQQQQAABBBBAAAEEEKgGgVxBiJk6lSCkGi41dUAAAQQQQAABBBBAAAEEEEAAAYIQ2gACCCCAAAIIIIAAAggggAACCNSMAEFIzVxqKooAAggggAACCCCAAAIIIIAAAgkEIc7kqTdPn4omAmUv0NDQIIMGD5K2bdrK559/LosWLSr7MlNABBBAAAEEEEAAAQQQQACB5AScIKRO3P9E6sysIPpX+t/Z5wghCEnucnCkUgsMGzZMxl52qXTq1MmcqrGxUVatWiX33H2PPPXU06U+PcdHAAEEEEAAAQQQQAABBBBoZYHCgxDRRWTMWrr0CGnli8jp4wsEgxBvz3Xr1sm111wr8+cviH8wtkQAAQQQQAABBBBAAAEEEKg4AV8QYrqBaOeQbD1CvACEIKTiLjYF9gsMHTpUTj/9ZzJ4r8HmB3PnPibTbpgGEwIIIIAAAggggAACCCCAQBULhAYhZnhM1NAYgpAqbg61V7Xhww+RUaNGSUPHBtMb5LKxl9UeAjVGAAEEEEAAAQQQQAABBGpIgCCkhi42Vc0U0N4g48ZdId27d5fFixfL2Wf9EiYEEEAAAQQQQAABBBBAAIEqFiAIqeKLS9VyC/Tt11cmTpwoPXv2IAjJzcUWCCCAAAIIIIAAAggggEDFCxCEVPwlpALFCBCEFKPHvggggAACCCCAAAIIIIBA5QkkEoToujE3TZ9aebWnxDUvQBBS800AAAQQQAABBBBAAAEEEKgxgTPPu8isE2P+81aNiTtZqjQ36386fSpBSI01nGqpLkFItVxJ6oEAAggggAACCCCAAAIIxBPwghCTgRCExENjq+oRsIOQlStXypjRY2T16o+rp4LUBAEEEEAAAQQQQAABBBBAwCdQUBAizdoHRP+gRwjtqbIFunTpItddf5307dtHtm3bJnffdbf8/vf3VnalKD0CCCCAAAIIIIAAAggggECkQDAIqfOGyegeZohMndSNnzpTIw9zkGYdC0MQQpOqIoERI86QE/71BGnTpo0JQxYuXChPPvGk6Rny+eefy6JFi6qotlQFAQQQQAABBBBAAAEEEKhtgcggxBsmQxBS2w2kFmqvAciIM0fIYYcdKp07d/ZVefHixXL2Wb+sBQbqiAACCCCAAAIIIIAAAgjUhEC8IOSamc2mJwg9QmqiUdRaJbt16ybnjTxXDjzwQGnXrh1BSK01AOqLAAIIIIAAAggggAACNSWQMwjR4THjCUJqqlHUWmXPPe9c+d73jjXLJm3YsMEMi3l07lxZvmx5rVFQXwQQQAABBBBAAAEEEECg6gWKD0KUqJnlc6u+pVRpBe3JUjdv3iy3336HPHD/A1VaW6qFAAIIIIAAAggggAACCCBgghAzKWp6clQzX6q9lG7WHiEEIbSiChawl89dvvx9uWDUBbJ+/foKrhFFRwABBBBAAAEEEEAAAQQQyCZAEEL7qGkBOwhhYtSabgpUHgEEEEAAAQQQQAABBGpEIO8gRIfBOCvo6h/uoroMjamR5lJ91SQIqb5rSo0QQAABBBBAAAEEEEAAgXx7hJhRMVFDYwhCaFDVJEAQUk1Xk7oggAACCCCAAAIIIIAAArkFwnqEhAYhpgOI1wsko0eIyE3Tr859NrZAoMwECELK7IJQHAQQQAABBBBAAAEEEECgxAJnnjdazOSoeh4zaWqd0xnE/bf5mU6WShBS4ivB4VtF4CtDviJXXHG5dO3aVZgjpFUuASdFAAEEEEAAAQQQQAABBFpUoLggxKyca7qH0COkRS8bJ0tK4KijjpRzfnWOtG/fXubNmydXXD4uqUNzHAQQQAABBBBAAAEEEEAAgTIUSAUh3pwgefUIIQgpw0tKkbIJNDQ0yKDBg6Rtm7YycOAecvQxR0uvXr1MoPenB/4kN998C4AIIIAAAggggAACCCCAAAJVLFBYEOIFIAQhVdw0qrNqw4YNk7GXXSqdOnXyVXDVqlUyYcKVsvjdxdVZcWqFAAIIIIAAAggggAACCCBgBDKCEDM3SK45QghCaD4VKmAHIY2NjbJx40Z544035c477pQlS5ZUaK0oNgIIIIAAAggggAACCCCAQFwBgpC4UmyHAAIIIIAAAggggAACCCCAAAIVL1B0ECLNzfofk6VWfFOgAggggAACCCCAAAIIIIAAAghUv4AGId5yuVrbuvChMbNM2uGsoWv+NCvFpL4mCKn+lkINEUAAAQQQQAABBBBAAAEEEKgCATsIMbODOP9pIqLrxzh/j7/GCkKsCVLtYOSmaVdXAQdVQAABBBBAAAEEEEAAAQQQQACBahY4c+TozMlRraV000GI9v/QMTAEIdXcHqgbAggggAACCCCAAAIIIIAAAlUtkDUIccbMuD1CCEKquiFQOQQQQAABBBBAAAEEEEAAAQRqQaCgIMSbIJWhMbXQRKgjAggggAACCCCAAAIIIIAAAtUjEAxCghOn+nqEBCdIdadNNUNmmCOkehoFNUEAAQQQQAABBBBAAAEEEECgWgVMEGLNCeIFId7EqSYImXDtrGYzP4i9Uow3V4j7N0FItTYR6oUAAggggAACCCCAAAIIIIBA9Qj4gpCwpXP1e7mCEB0qcyOrxlRPq6AmCCCAAAIIIIAAAggggAACCFSpwFkjR5slcvWhPUP8S+e633OCENP1Q6dMdf/Wr/U/52uCkCptIVQLAQQQQAABBBBAAAEEEEAAgSoS8IIQbyiMPwipMxmJ2yPECkJCltAlCKmiVkFVEEAAAQQQQAABBBBAAAEEEKhSgYwgxJovRFMQfxCSZQldgpAqbSFUCwEEEEAAAQQQQAABBBBAAIEqEogMQpxZUwlCquhaUxUEEEAAAQQQQAABBBBAAAEEal6g4CDEzBfCHCE134AAQAABBBBAAAEEEEAAAQQQQKCSBOwgxFs6V8vvLKkb0iPEt4SuF4SIyI03TKmkelNWBBBAAAEEEEAAAQQQQAABBBCoQYGzzh9jaq2TpXpBiDdxqi8I0Y3M0jFWLxBnIRn9kyCkBtsOVUYAAQQQQAABBBBAAAEEEECg4gRSQUjE0rkmJNHlcwlCKu7aUmAEEEAAAQQQQAABBBBAAAEEEAgI5BmEWEvo6hwhJh3R/5oZGkPTQgABBBBAAAEEEEAAAQQQQACBshfQIMQbCqOzgpglc6XO+dt8w/QIme3EHc5YGBN8mAzEGirDHCFlf60pIAIIIIAAAggggAACCCCAAAI1L+ALQtzkwx+E1AWCEBOIEITUfMsBAAEEEEAAAQQQQAABBBBAAIEKFAgNQqwVY8yEqb4eIVYQYi+hS4+QCrz6FBkBBBBAAAEEEEAAAQQQQACBGhPwgpCopXNDg5CwJXQJQmqs5VBdBBBAAAEEEEAAAQQQQAABBCpQIBiEBJfOzR2EuHOFEIRU4NWnyAgggAACCCCAAAIIIIAAAgjUmIAJQkLS1OE1AAAVk0lEQVSWzjUBiDN7anpojH5pT5DqTJzqfI8gpMZaDtVFAAEEEEAAAQQQQAABBBBAoAIFooIQDUecR53UXXnd7OawCVK9IETTkDk3TK7A6lNkBBBAAAEEEEAAAQQQQAABBBCoJYGzz79Ysw79z1o6V//pBCGmt4g/CAlfQpcgpJaaDXVFAAEEEEAAAQQQQAABBBBAoDIFUkFI6NK5viBEK6hL5xKEVOalptQIIIAAAggggAACCCCAAAIIIJA9CHHmCXF7hFhBSMgSuvQIoTEhgAACCCCAAAIIIIAAAggggEC5C2gQknXpXIKQcr+ElA8BBBBAAAEEEEAAAQQQQAABBOIKFByE6ASpZs0Yd+WYOdczWWpcdLZDAAEEEEAAAQQQQAABBBBAAIHWETh71MUZE6X6ls51eoTMcVeN0QlCwpfQJQhpnQvIWRFAAAEEEEAAAQQQQAABBBBAIL5AWBDiWzrXWTWGICQ+KVsigAACCCCAAAIIIIAAAggggEC5CsQOQpwVY7weIZkrx9AjpFwvMeVCAAEEEEAAAQQQQAABBBBAAAFPwAQhWZbONcNktEcIQQiNBgEEEEAAAQQQQAABBBBAAAEEKl0gzyBEq6s9Q7y/nR4i+o3ZTJZa6W2B8iOAAAIIIIAAAggggAACCCBQ9QK/HHWxOOvn6l/6d537pfX3xOudOULSAYgThNgrxxCEVH1boYIIIIAAAggggAACCCCAAAIIVLyAF4TU6doxJg/xByEajtQ5QYi7WoymHyErxxCEVHxboAIIIIAAAggggAACCCCAAAIIVL1AMAjJWDFG8xEvCMk2T8js666qeiwqiAACCCCAAAIIIIAAAggggAAClS3wywsuMRVweoR4vUH8w2QCQYhunjlPCEFIZTcESo8AAggggAACCCCAAAIIIIBALQikgpCo+UG8HiEm/sgyTwhBSC00F+qIAAIIIIAAAggggAACCCCAQGULaBCSbX4QrZ3pEeIEIeZPE4ikvtZwRJqFIKSyGwKlRwABBBBAAAEEEEAAAQQQQKAWBNJBSPiwGDcIudEsERNcNcYORghCaqG5UEcEEEAAAQQQQAABBBBAAAEEKlvABCFZhsWY2UMmXu8EIfqIGh4z67pJlS1B6RFAAAEEEEAAAQQQQAABBBBAoOoFzrng0shlc53K10ndpBtubLaHwzj/9i+jSxBS9W2FCiKAAAIIIIAAAggggAACCCBQ8QJeEBK2bK6JQXQlGScI0S8zV4txMpFmIQip+LZABRBAAAEEEEAAAQQQQAABBBCoegEnCImaH8T5fkQQ4g9GZl3L0Jiqby1UEAEEEEAAAQQQQAABBBBAAIEKFzjn15c6w1/qtCLhf9dNuuEmd2hM9DwhBCHl2xL69usrO3XfSZqammTp0qWydu3a8i0sJUMAAQQQQAABBBBAAAEEEECghAJhQUjGMBkNQoLL5vrnCRGZde3EEhaTQxcjMH7CODnooINSh9i4caO8vOBlmT17DqFIMbDsiwACCCCAAAIIIIAAAgggUHEC5/x6rNsbRIuuPUJChsmkgxDdKHyeEIKQ8r32wSDEXMXmZnnxxRdl/LgJ5VtwSoYAAggggAACCCCAAAIIIIBAwgJ2EBK5jO6kaTeZ9CNzwtR0MEIQkvCVKcHhunXrJj888Yfyg+OPl4aODfLZZ5/JuHHjZeE7C0twNg6JAAIIIIAAAggggAACCCCAQPkJpIOQiHlCzKoxJghxehGkl831fz3zGobGlN/lDS/R1VOnyNChQ0WHyEy+arLMn7+gUopOORFAAAEEEEAAAQQQQAABBBAoSuBXF4519/cPi/GGyYhZNcYNQoLzhNhfE4QUdR1adOeR54+UY489RrZu3Sq3/ua38uCDD7bo+TkZAggggAACCCCAAAIIIIAAAq0l4AUh/mExuqKuLiOjKYhI3VXTbk6tGhM1PIYgpLUuYf7nPWPEGXLSSScShORPxx4IIIAAAggggAACCCCAAAIVLuAEIdmWz61zgxBnbExqnhCttw6V8YIRgpDKaQkEIZVzrSgpAggggAACCCCAAAIIIIBAsgJ2EOJfNlfzkTqNSOwgxMQf7lwhJhdJzRtCEJLshSnl0QhCSqnLsRFAAAEEEEAAAQQQQAABBMpZIB2EZC6b64yMCQ1CvEAk/ffMa64s53pSNkuAIITmgAACCCCAAAIIIIAAAgggUKsCv7rwMu34ETo8xheEuJFH5PAYgpDKaUJeENLU1CT33Xuf3H77HZVTeEqKAAIIIIAAAggggAACCCCAQBECXhASNSzGRCQ6WWo6CAlfRpcgpIir0MK7nnLKKfIfP/l3adu2rSxbtkwuunC0rF27toVLwekQQAABBBBAAAEEEEAAAQQQaHkBJwhJD4vxLZurXUI0CJk8XVeNMbOD6B/uPCH+v2dMZWhMy1++ws7Yt19fmTBhvOy6667mAGvW/FOef/45eXnBy7Jly1ZZunQpwUhhtOyFAAIIIIAAAggggAACCCBQ5gLnXnRZ9mExOk+IF4SY6MMsE5NeLcZbNYYgpMyvdKB4Xx32Vfn5z0+XAQMGSJs2bVI/3bp1q9z6m9/Kgw8+WFkVorQIIIAAAggggAACCCCAAAIIxBCICkK8oTI6f4g/CHF7hXiBiBOOiMyYOiHG6dikXAQOP/wwOf3006X7Tt1NlyDvQRBSLleIciCAAAIIIIAAAggggAACCJRC4NyLLncnS9Wj6xAZs1SMWS3GfMcJQm5xBsZkDI8x42QIQkpxZUp4zIF7DjRDY3baaSfTw2fRonfl/vvvlwXzF8imTZtKeGYOjQACCCCAAAIIIIAAAggggEDrCthBiNMxIB2EpFaTiQ5CTAxCENK61zDvs9uTpS5cuEguG3sZc4LkrcgOCCCAAAIIIIAAAggggAAClSiQDkK8CVNzBCFu9JGxjO70qxkaUykNwFs+d9u2bXLXnXfLvffeWylFp5wIIIAAAggggAACCCCAAAIIFCVw3ujL3f3dIERXkLGGxZhBMpNn3OIsGOPMjBpYPcb5HkFIUdehRXf2ghDmA2lRdk6GAAIIIIAAAggggAACCCBQBgJeEBIcFqNFS80X4gUh4fOEONEIQUgZXM2YRSAIiQnFZggggAACCCCAAAIIIIAAAlUn4AQh0cNizJQhU2b8ptm/bK7XKyS9jC5BSOW0DYKQyrlWlBQBBBBAAAEEEEAAAQQQQCBZAV8QEjYsRr9nghBnbIyZGFUfztfuv5rpEZLsZSnt0QhCSuvL0RFAAAEEEEAAAQQQQAABBMpXQIOQ8GExztq55n/pIMQLPoJBiM4RMr58a0nJfAJjxoyWQw87VJgjhIaBAAIIIIAAAggggAACCCBQawLnjb5C847QZXOdlXTdIMREIKY7SGavEP0+QUjlNJ0bpl0v++67r2zYsEEmXjlJXnnllcopPCVFAAEEEEAAAQQQQAABBBBAoAgBJwhJL5lrIhE3GHF6irhzhJggxDccxv/1tCn0CCniOpR01779+spO3XeShoYOMnz4cDn4mwdLu3btZPXqj2Xs2LGyfNnykp6fgyOAAAIIIIAAAggggAACCCBQLgIjx1yRtTeIE4TMvNV0AwkGIXY4Mm3KuHKpE+UICIyfME4OOugg33cbGxvlkUf+R+bMnoMXAggggAACCCCAAAIIIIAAAjUjMHLMOB3/YobAmNAjMEzGzBPiBSF28BFcSpcgpHzbjB2EbN68WT755BOZ++hcefDBh0QDER4IIIAAAggggAACCCCAAAII1IqAHYRkhCBuMlJ39cxbncVisvQKmTaZHiG10mioJwIIIIAAAggggAACCCCAAAKVKjDy4nHZe4NoLxE7CDF5iDtXiDN5qvM1QUilNgHKjQACCCCAAAIIIIAAAggggEDtCPiDEP+kqc7yuRqEzNI5QjTwiO4VcsNknWyEBwIIIIAAAggggAACCCCAAAIIIFC+Audf7Cz2Ejo3iPlBSBBi8pBArxCCkPK9yJQMAQQQQAABBBBAAAEEEEAAAQQcgXQQEt4bxA1Cfuv0B8nSK4QghCaFAAIIIIAAAggggAACCCCAAALlLqBBSLbeIGY9matnZQYhWjG7VwhBSLlfasqHAAIIIIAAAggggAACCCCAAAJOEBLdG8QEIVNn/TY1LarpFWJNkupOHCLTpoyXpqYmRBFAAAEEEEAAAQQQQAABBBBAAIGyFKivr5eRY3SOU38Q4gUjJgTRn06d/btmJ/zwD4/RWjm9Qprltptmyj/XfFqWFaVQCCCAAAIIIIAAAggggAACCCCAwA477iQ/O/NXZqZUJ/JwZk01/3L/0FDEBCEadniL5Yb1Cnly7sPyxmuvoIoAAggggAACCCCAAAIIIIAAAgiUpcCQ/YfJEcf+wO0Q4gQhwd4gJhi5xu0R4gtCdGtriMx77y6Uh/9wT1lWlEIhgAACCCCAAAIIIIAAAggggAACPzj5VNljz8HRvUHcYMQJQtzgwwtDnJEyqa/MqJnbbprB8BjaFQIIIIAAAggggAACCCCAAAIIlJ2AMyzmXF9vENP7wxsSoyV2h8nUXTNHh8Y4k6TSK6TsriUFQgABBBBAAAEEEEAAAQQQQACBHAJxe4OYeVRTQYge1ApDwnqFzHvuz6L/54EAAggggAACCCCAAAIIIIAAAgiUg8BB3/6u6P+dxWKsSVJDeoO4QchtqeVicvUK0S4jhCHlcJkpAwIIIIAAAggggAACCCCAAAIIRIYgSmMFIb5JU6+ZYwUhumHEEBln/IzZQN57d5E8+/TjzBlCm0MAAQQQQAABBBBAAAEEEEAAgRYX0DlBDjnsKNljz0FO4uH1Bgkul2sCkcASutfOuS01LaqXdWjPEJN6pLIP/8Sp+gPdZMniRbLk3XdkxfvLZd3aNdLU1NTileeECCCAAAIIIIAAAggggAACCCBQ3QL19fXStduO0rtPXxmw514yYOCg1ESoGUNiTPjh/KE9Qdx/Ol/rn2FBSFSvED2M1zPECUvSX3vhiNttxF10xglMgt9zAhZn/9S5Ir6X2jJwPm+lm/AyuIe2erG4p3Jbhlcut2z2uVML5njls8qaropV/uDPU1POeoVIndPaPbUqj9dUPU+76bolyNg22z7Bph923EK28a5h1K+We3mK/M1L1TjyOMmcp8hiem232MOwPwIIIIAAAggggAACiQi4cyIkcqzCDuKszJHrEWujrAfJfZ7c5zBDJHI8itrGPX7YWTKOm7GtN7+FU8DUMawym7fyqc382zv7pH/uBAHpyqZ/5nzTW1El/W/3rPZcG/Z2wTk4Uptb83J4JfeKkaqj12sjdUCrrHY5rZVe0gChoYc33MU3L0gKzgtAwoKQG283qUDYijHZltNNBx/lF4Zovb03zOkhPea7qe+HhTPuFuaypd9we91isgQiqczEeiOf7mfjtLp0qpFqhVFBR9ZQxF84369vnNDD2T1O4JB7m/Dnjtz7xTh9ruelhH+eu8wJn5DDIYAAAggggAACCCDQigK5g4CWLFyMXMKOBPIqWlGBRuBMkcfyhRSZxcsdfqTeuVsBh3ucYADibpp+458+n/97dtBhTyDqHCB92MxAxO5d4duu7EKQFEasCVJTCtpD5FoNQtw316neHqmvzT9yDpFxtkrPIRLWC6Rle4a4JQoGFG7vFP8bcX+vFV9vlQQDEVfSaaWBUCSfQMS3u3udwp4J4oQdwf3y2SefbaOfqXIHEOUXmuT1vMvGCCCAAAIIIIAAAgjUpEApww0bNE7Q4W2fz7Y598kRfpi36EGEuL0/nJ1T1bQDjnwDEHOo0B4i1vG9cSOBXiZ2b5GooScZPTFSc3Vk9vpwTuMGL6kyFdoTxKlZ1iEx7vnS1dPt3fP7gxD3bbY1N0hYTxFnK3/wkVgQkipC5tCZ2MNkUmmB3QPEX2Z/hpDKglLBT6qObvOzg5zUqB57iIQduoT1ELFOmNk5JB0IZBsOExU++OKELMlBoeFFoft5v7nF7u8cJ3doUupXGEKZUgtzfAQQQAABBBBAAIFiBOKFD8WcIc6+xfc2KSSwsEtW6P5Z9ysk+PC98feV0PkiOKolcAHzC0CcA2YMg0mdJ6oXiLtBlqEw7pHdMqeHmeQTgqSLUXwQkgpoInqo+Hp+2PW3r8d1N93RnHqjmm2IjPezyLlBku0V4rz1LSwMSe3r9gAxX4cEFf6hMu5e1j7B3iHp46QOZhpDqpzOF775QzJ+bhcmdMRMKnpyGloBwUbcYMT7VUwmqIg35CbXU2dSZcl1Hn6OAAIIIIAAAggggAACLSdQaDhhlzCJYzjvhWOENYUGH16BC+z9YcoXSEj8PToyfx4MQFLHCJtfwy1fVG+PyKEwDlxq0tHYIYhTGHe/4kMQtxhZeoNEzwuS6g2i9YgdhLTmEBk3EEhnFG70kGUC1VQAYXW/sDOFzB4sqVggYx6ROIGILwxxTp4RkKTKZP825zOXSJZgJFZvkXTyEesZr5ShRCmPHatyERuVa7mKqRP7IoAAAggggAACCCAQ681/KzCVslyxjx0SjERFJfnPE5J78tOw8CMzzHAuTraJUMN+7gsO3Osb2qMiMHGqb8iJexDfEBP7eyHDYeyytPaQGLuHiFNsNwhx3l8Hel8Ego+4Q2RSb/Z983H4h54UNF+IGwLECkOswCDdq8QtmdVdInoi1eC24ROm+iZUdXbxhx/u91ImYV97TzZWSpNt6Ix1CGfPiB4jud7Qhw40KWDsR67zJPFc2hLnSKKcHAMBBBBAAAEEEEAAAQRi9rgoEip2yGGfJ4/Aw9st/+DDvNV2ds9c0MU394ezSXDbsJ0yAxCzb3A1mNQ5QyZAzRF02OGIv1xeLw6vE0bu1WFS+7doTxCr1CHL5dq9QcyW1+vQmOBKIjlWkUlPD+LFI8GJUpMdJuMfeuL1BnEiAScYCZbDnVHCFy6ky2jnB9mCEv/KMs75wuYHKSgQcQ9n1SL9KxrsJWJt62wUMqeIt3cBQ2mCz0FJhSQZxy0gaCny+bEkuxPMlISVgyKAAAIIIIAAAggUKFBQKFDguUq5WyL1KCDs8OoUd44Q5y23/fAlEqkfpEemBLfODDvCJkF1zuNfCtd8L1YA4i9lVNARayiMe6g4w2HsMpdbTxDHzqlFKggxb69L2isk/Qbe6xFSsp4h7qnskMT5VjrICM4Pkqt3iOPjten4gUjqvPbvSXAy1RyTq6blrIP4JwJJ/SDf+UF81z3Gs1qsKUsTCDwIG2JcDDZBAAEEEEAAAQQQQKDMBUoVbgSrHWPWj9QuscsUOU9IePDhjx4CiUW+vT98B7N7eDjVyLZUrh3TRK78ksdQGP/5vDN7K7aErHBTRE8Qc670GJxUPROZINWat+X/A7U3uQnEzAI+AAAAAElFTkSuQmCC;" parent="1" vertex="1">
                    <mxGeometry x="440" y="360" width="430.83" height="200" as="geometry"/>
                </mxCell>
                <mxCell id="32" value="" style="edgeStyle=none;html=1;" edge="1" parent="1" source="29" target="31">
                    <mxGeometry relative="1" as="geometry"/>
                </mxCell>
                <mxCell id="29" value="patch首先会判断是否是同一个节点" style="rhombus;whiteSpace=wrap;html=1;rounded=1;" vertex="1" parent="1">
                    <mxGeometry x="50" y="570" width="260" height="80" as="geometry"/>
                </mxCell>
                <mxCell id="31" value="如果不是同一个节点，通过&lt;span style=&quot;color: rgb(220 , 220 , 170) ; background-color: rgb(30 , 30 , 30) ; font-family: &amp;#34;consolas&amp;#34; , &amp;#34;courier new&amp;#34; , monospace ; font-size: 14px&quot;&gt;unmount（）&lt;/span&gt;&lt;span&gt;直接卸载老的节点，在重新渲染&lt;/span&gt;" style="whiteSpace=wrap;html=1;rounded=1;" vertex="1" parent="1">
                    <mxGeometry x="370" y="580" width="460" height="60" as="geometry"/>
                </mxCell>
            </root>
        </mxGraphModel>
    </diagram>
</mxfile>